<svg width="84" height="87" viewBox="0 0 84 87" fill="none" xmlns="http://www.w3.org/2000/svg">
<g opacity="0.1">
<path fill-rule="evenodd" clip-rule="evenodd" d="M4.1413 19.5547L4.13727 19.5563C3.83398 19.688 3.53192 19.8193 3.22296 19.93L3.12915 19.9622C2.74365 20.0948 2.32129 20.24 1.93298 20.24H1.86298C1.28302 20.21 0.753052 19.99 0.393005 19.53C0.072998 19.12 -0.0570068 18.5699 0.0229492 18.0699C0.116638 17.4987 0.473389 17.0502 0.830444 16.6013L0.902954 16.5099C1.07404 16.2908 1.24231 16.0744 1.40771 15.8563C1.55164 15.6665 1.69336 15.4754 1.83295 15.28C2.24158 14.6432 2.578 13.9795 2.91925 13.3057L2.92035 13.3037L2.953 13.24C3.35217 12.4417 3.7702 11.6577 4.18768 10.8748C4.37689 10.52 4.56592 10.1655 4.75299 9.81C4.94299 9.39001 5.10303 8.95996 5.263 8.50995C5.25659 8.52496 5.25061 8.53998 5.24487 8.55499C5.23724 8.57507 5.23004 8.59515 5.22284 8.61523L5.21344 8.6416C5.20398 8.66772 5.19421 8.69385 5.18298 8.71997C5.34302 8.22998 5.49304 7.70996 5.703 7.23999C5.90302 6.79999 6.12299 6.38995 6.35297 5.96997C6.41803 5.8515 6.48358 5.73358 6.54932 5.61584L6.63385 5.4646C6.70123 5.34406 6.76868 5.22351 6.83569 5.1026L6.8985 4.98889C6.99829 4.80756 7.09692 4.62506 7.19299 4.44C7.573 3.71002 7.99298 2.91992 8.62299 2.37994C8.55298 2.18994 8.513 1.97998 8.513 1.76996C8.513 0.799988 9.323 0 10.283 0H10.613C11.7458 0 12.3796 0.891174 12.977 1.73126C13.0124 1.78107 13.0477 1.83069 13.0829 1.87994C13.1896 2.02814 13.2958 2.1767 13.4021 2.32532L13.4341 2.37018C14.0729 3.26379 14.7125 4.15863 15.4339 4.98535C15.4333 4.98358 15.433 4.98175 15.433 4.97998C15.442 4.98895 15.4509 4.99786 15.4526 5.00684L15.473 5.02997C15.6807 5.25739 15.8784 5.48486 16.0762 5.71228L16.0829 5.71997C16.5065 6.16467 16.9375 6.60193 17.3685 7.03918C18.108 7.78937 18.8474 8.53943 19.5491 9.32733L19.618 9.40497L19.6213 9.40863C19.6354 9.42419 19.6497 9.43988 19.6638 9.45599L19.6991 9.49524C20.0488 9.88727 20.401 10.2823 20.723 10.7C20.983 11.03 21.243 11.4 21.3329 11.83C21.423 12.2499 21.483 12.67 21.373 13.09C21.203 13.72 20.713 14.14 20.113 14.35C20.0097 14.3854 19.9038 14.413 19.7966 14.4371C19.7101 14.4565 19.6226 14.4738 19.535 14.491C19.3633 14.5247 19.191 14.5587 19.0229 14.61C18.3929 14.79 17.7704 14.995 17.1479 15.2L17.1395 15.2026C16.5198 15.4067 15.9001 15.6108 15.2729 15.79C14.8277 15.9203 14.3824 16.0467 13.9376 16.173L13.8468 16.1988C13.6998 16.2405 13.5527 16.2822 13.4059 16.3242C13.7355 17.201 14.0981 18.063 14.513 18.91C14.508 18.9 14.5005 18.8875 14.493 18.8749L14.4974 18.8839L14.5038 18.8967C14.5096 18.9078 14.5156 18.9189 14.5229 18.93C14.5304 18.9597 14.5433 18.9838 14.5577 19.0107C14.5626 19.02 14.5678 19.0297 14.573 19.04L14.5679 19.0303L14.5593 19.0156L14.553 19.0049C14.5469 18.9949 14.5409 18.9849 14.5361 18.9761C14.8951 19.6639 15.2742 20.3319 15.693 20.98L15.7487 21.058L15.751 21.0615C15.8228 21.162 15.8929 21.2605 15.9651 21.3581C16.0226 21.4358 16.0813 21.5129 16.143 21.59C17.113 21.59 17.913 22.4 17.913 23.36C17.913 23.97 17.7729 24.49 17.353 24.97C16.993 25.3799 16.473 25.52 15.953 25.52H15.883C15.323 25.5099 14.863 25.24 14.433 24.92C13.963 24.57 13.533 24.0599 13.193 23.58C12.773 22.9899 12.3729 22.4 12.0229 21.78C11.251 20.4095 10.59 18.9747 10.053 17.4968C9.9696 17.5342 9.88629 17.5718 9.80298 17.61C9.25299 17.87 8.71301 18.1099 8.14301 18.3199C7.5257 18.5521 6.88916 18.7138 6.25153 18.8757C5.76324 18.9997 5.27435 19.1238 4.79297 19.28C4.57324 19.3671 4.35699 19.461 4.1413 19.5547ZM9.04346 14.0433C8.98785 14.0682 8.93237 14.0938 8.87689 14.1198C8.84326 14.1355 8.80963 14.1514 8.776 14.1675C8.71448 14.1968 8.65302 14.2266 8.59149 14.2563C8.42603 14.3363 8.26031 14.4165 8.09296 14.49C7.62299 14.7 7.15295 14.9 6.66296 15.08C6.39301 15.16 6.12299 15.23 5.85297 15.3C6.09296 14.83 6.323 14.3499 6.56299 13.8799C6.76776 13.4954 6.97748 13.1133 7.18719 12.7313C7.39746 12.3484 7.60773 11.9655 7.81299 11.58C8.23444 10.7861 8.5022 9.9538 8.77631 9.10187L8.79297 9.04999C8.90302 8.76001 9.02295 8.48999 9.15295 8.20996C9.45294 7.65997 9.78302 7.11993 10.073 6.56995C10.323 6.08997 10.573 5.60999 10.873 5.14996C10.8882 5.12976 10.9008 5.11206 10.9135 5.09436C10.9258 5.07709 10.9382 5.05975 10.953 5.03998C10.973 5.02997 10.983 5.02002 11.003 5C11.213 5.29999 11.433 5.59998 11.643 5.88995C12.193 6.61993 12.793 7.31 13.403 8C13.9197 8.58557 14.4751 9.13489 15.03 9.68359C15.6027 10.2499 16.1748 10.8156 16.703 11.42C16.7189 11.4518 16.7376 11.478 16.7576 11.5015C16.769 11.515 16.7809 11.5275 16.7928 11.5397L16.813 11.56C16.6132 11.621 16.4196 11.6852 16.2271 11.749C16.1495 11.7746 16.0722 11.8002 15.9948 11.8255C15.956 11.8382 15.9172 11.8508 15.8782 11.8633L15.763 11.9C14.783 12.22 13.803 12.53 12.803 12.8C12.6734 12.836 12.5438 12.8714 12.4142 12.9068L12.3756 12.7474L12.3329 12.5699C12.3041 12.4241 12.275 12.2782 12.2456 12.1323L12.1909 11.8608C12.1592 11.7039 12.1275 11.5469 12.0962 11.39L12.0561 11.1882C12.0068 10.9388 11.9586 10.6895 11.913 10.44C11.733 9.48999 10.913 8.78998 9.91296 8.91998C8.99298 9.03998 8.22296 9.96997 8.40295 10.92C8.59644 11.9666 8.80542 13.0054 9.04346 14.0433Z" fill="#5A295B"/>
<path d="M75.893 31.91C76.713 31.4299 77.0229 30.3199 76.5229 29.49C75.463 27.72 74.403 25.95 73.0229 24.41C71.9529 23.22 70.6729 22.2599 69.213 21.62C68.5129 21.3099 67.7829 21.17 67.0229 21.12C66.403 21.08 65.683 21.2599 65.253 21.73C64.7629 22.27 64.603 22.98 64.873 23.67C65.1429 24.3699 65.863 24.87 66.613 24.87C66.863 24.87 67.113 24.8199 67.323 24.72C67.433 24.7499 67.533 24.77 67.633 24.81C67.8329 24.8799 68.0229 24.97 68.213 25.06C68.463 25.2 68.6929 25.34 68.923 25.49C69.1829 25.67 69.4329 25.8699 69.673 26.0699C70.0229 26.3999 70.353 26.7499 70.673 27.1C71.0829 27.59 71.463 28.1099 71.823 28.64L72.0873 29.0622L72.0913 29.0688C72.5514 29.8036 73.0092 30.5347 73.453 31.28C73.783 31.83 74.3829 32.15 74.993 32.15C75.3229 32.15 75.623 32.0699 75.893 31.91Z" fill="#5A295B"/>
<path d="M46.383 31.84L46.403 31.8199C46.4111 31.8145 46.4186 31.8082 46.4257 31.8017C46.4316 31.7963 46.4373 31.7906 46.443 31.7849C46.4554 31.7725 46.468 31.76 46.483 31.75C46.9216 31.3521 47.3239 30.923 47.7256 30.4946L47.7271 30.4931C48.1123 30.0821 48.497 29.6716 48.913 29.29C49.3629 28.9 49.823 28.54 50.313 28.21C50.8897 27.8318 51.4754 27.4894 52.087 27.1743C52.0523 27.1903 52.0176 27.2051 51.983 27.22C53.2101 26.603 54.4843 26.08 55.7571 25.5575C56.3409 25.3179 56.9244 25.0784 57.503 24.83C58.383 24.45 58.823 23.4 58.443 22.5099C58.063 21.6299 57.0129 21.1899 56.123 21.5699C55.8532 21.6855 55.5829 21.8005 55.3121 21.9152L54.4074 22.2974C53.4313 22.709 52.4532 23.1216 51.483 23.55C49.843 24.27 48.263 25.21 46.883 26.37C46.203 26.94 45.5829 27.57 44.983 28.23C44.8401 28.3888 44.7 28.5475 44.5567 28.7019C44.4293 28.8392 44.2994 28.9729 44.163 29.1C44.128 29.1249 44.0955 29.1524 44.063 29.1799L44.042 29.1976L44.0209 29.215C44.0021 29.2305 43.983 29.2457 43.963 29.2599C43.2629 29.92 43.2929 31.1 43.963 31.7599C44.3029 32.11 44.753 32.27 45.193 32.27C45.633 32.2599 46.053 32.11 46.383 31.84Z" fill="#5A295B"/>
<path d="M52.087 27.1743C52.1223 27.1579 52.1577 27.1402 52.193 27.12L52.1287 27.1528L52.087 27.1743Z" fill="#5A295B"/>
<path d="M40.9216 50.5045C40.9095 51.066 40.8973 51.631 40.843 52.19C40.803 53.12 40.013 53.8899 39.063 53.8799C38.093 53.8799 37.293 53.0699 37.293 52.11C37.293 52.0151 37.3021 51.9156 37.3112 51.8177C37.3155 51.7712 37.3198 51.7251 37.323 51.68C37.348 51.1539 37.3644 50.6244 37.3807 50.0942C37.3851 49.9523 37.3895 49.8104 37.394 49.6684C37.4009 49.453 37.4082 49.2376 37.4164 49.0225C37.4311 48.6406 37.4489 48.2593 37.473 47.8799V47.9C37.6092 45.7728 37.7798 43.6456 37.9502 41.5227L37.9906 41.0189C38.0317 40.5056 38.0727 39.9926 38.113 39.48C38.183 38.5099 39.193 37.84 40.103 37.96C41.103 38.0999 41.693 38.9999 41.623 39.96C41.585 40.4545 41.544 40.949 41.5021 41.4435C41.4823 41.6768 41.4623 41.91 41.4423 42.1433C41.3486 43.2355 41.255 44.3278 41.183 45.42V45.37C41.1818 45.3759 41.1808 45.3819 41.1799 45.388L41.1782 45.4009L41.1773 45.408L41.1761 45.4206C41.1747 45.4374 41.1739 45.4547 41.1735 45.4716C41.173 45.4918 41.173 45.5115 41.173 45.53V45.59L41.0229 47.93C41.0128 48.1674 41.0015 48.4036 40.9902 48.6394C40.9682 49.099 40.9462 49.5573 40.933 50.02C40.9285 50.181 40.925 50.3426 40.9216 50.5045Z" fill="#5A295B"/>
<path d="M2.95471 13.2324C2.95374 13.2347 2.95312 13.2377 2.953 13.24L2.96698 13.211L2.96185 13.2194L2.95789 13.226C2.9566 13.2283 2.95551 13.2304 2.95471 13.2324Z" fill="#5A295B"/>
<path d="M48.503 74.52C49.163 73.85 49.153 72.83 48.593 72.12C48.613 72.14 48.623 72.16 48.643 72.17C48.5659 72.0707 48.4917 71.9654 48.4189 71.859C48.3596 71.7725 48.3013 71.6852 48.243 71.6C48.1499 71.4459 48.0547 71.2938 47.9598 71.1422C47.8533 70.9719 47.7471 70.8022 47.6444 70.6307C47.5945 70.5473 47.5454 70.4634 47.4976 70.3787C47.4585 70.3096 47.4202 70.2401 47.383 70.17C47.063 69.57 46.733 68.96 46.403 68.36C45.813 67.16 45.233 65.96 44.683 64.75C44.283 63.87 43.273 63.42 42.363 63.81C41.493 64.17 41.023 65.2499 41.423 66.1299C42.113 67.6299 42.813 69.14 43.593 70.59L43.5939 70.5918C43.9936 71.3312 44.3934 72.0706 44.823 72.79C45.183 73.38 45.533 73.9999 46.003 74.5099C46.323 74.86 46.7729 75.03 47.223 75.03C47.693 75.04 48.163 74.86 48.503 74.52Z" fill="#5A295B"/>
<path d="M63.323 84.23C63.143 84.55 62.8929 84.8 62.593 85.0099C62.093 85.36 61.4529 85.5099 60.8329 85.5099C60.6929 85.5099 60.5429 85.51 60.403 85.49C59.403 85.38 58.4529 85.02 57.563 84.59C56.7029 84.17 55.863 83.69 55.063 83.17C54.6862 82.9278 54.3094 82.6856 53.9327 82.4418C53.7645 82.333 53.5964 82.2239 53.4282 82.1144C53.2731 82.0134 53.118 81.9119 52.963 81.81C52.1629 81.28 51.8229 80.2599 52.3329 79.39C52.7929 78.6 53.943 78.23 54.753 78.7599C56.123 79.66 57.5029 80.5599 58.963 81.33C59.3229 81.4999 59.673 81.65 60.053 81.79C60.123 81.81 60.183 81.83 60.243 81.85C60.683 81.36 61.3829 81.09 62.033 81.31C62.843 81.59 63.623 82.25 63.573 83.19C63.553 83.56 63.513 83.9 63.323 84.23Z" fill="#5A295B"/>
<path d="M74.89 86.1931L74.8729 86.196C74.6182 86.2403 74.3637 86.2845 74.1091 86.329C73.837 86.3766 73.5648 86.4245 73.2924 86.473C72.9664 86.5309 72.64 86.5898 72.313 86.65C72.223 86.6599 72.133 86.67 72.053 86.69C71.213 86.69 70.4529 85.9799 70.3329 85.15C70.2029 84.15 70.903 83.33 71.853 83.15C72.4338 83.0427 73.0167 82.9434 73.5999 82.8441C74.3217 82.7213 75.0439 82.5983 75.763 82.46C76.323 82.33 76.883 82.1899 77.433 82.0099C77.793 81.8699 78.143 81.72 78.493 81.56C78.863 81.37 79.213 81.15 79.563 80.92C79.6371 80.8683 79.7111 80.8155 79.7851 80.7622L79.894 80.6837C80.5454 80.2137 81.2138 79.7313 82.043 79.68C83.0129 79.62 83.813 80.5399 83.813 81.45C83.813 82.1899 83.3829 82.7599 82.7729 83.04L82.653 83.1H82.643C82.543 83.15 82.443 83.21 82.353 83.27L82.1528 83.4092C81.5006 83.8636 80.8497 84.3171 80.133 84.68C78.853 85.33 77.463 85.74 76.053 85.99C75.6708 86.0573 75.2894 86.1235 74.9084 86.1898L74.89 86.1931Z" fill="#5A295B"/>
<path d="M46.373 31.86C46.353 31.88 46.343 31.89 46.323 31.9C46.343 31.89 46.363 31.87 46.373 31.86Z" fill="#5A295B"/>
<path d="M46.483 31.7599L46.433 31.81C46.453 31.8 46.473 31.78 46.483 31.7599Z" fill="#5A295B"/>
<path d="M77.5229 47.95C76.863 49.93 75.7531 51.72 74.643 53.48C74.293 54.03 73.703 54.35 73.093 54.36C72.793 54.36 72.493 54.28 72.213 54.12C71.403 53.65 71.063 52.52 71.5829 51.7C72.263 50.62 72.923 49.53 73.5229 48.41C73.743 47.94 73.943 47.45 74.123 46.96C74.273 46.53 74.393 46.09 74.503 45.64C74.603 45.11 74.673 44.57 74.713 44.03C74.773 42.95 74.7631 41.88 74.703 40.8C74.6938 40.6705 74.6824 40.541 74.6689 40.4115C74.6647 40.3713 74.6603 40.3311 74.6556 40.2908C74.6429 40.1805 74.6287 40.0703 74.613 39.96C74.613 39.94 74.603 39.93 74.603 39.91C74.263 39.05 74.713 38.02 75.573 37.66C76.473 37.29 77.5031 37.73 77.893 38.61C78.158 39.1965 78.1991 39.8994 78.2366 40.5409L78.243 40.65C78.293 41.52 78.333 42.41 78.293 43.29L78.2819 43.5133C78.2465 44.2305 78.2108 44.9543 78.093 45.67C77.963 46.45 77.7729 47.2 77.5229 47.95Z" fill="#5A295B"/>
<path d="M59.313 56.43C60.2529 56.22 60.793 55.15 60.553 54.25C60.283 53.29 59.3129 52.8 58.373 53.02C58.293 53.04 58.2329 53.05 58.163 53.0699C57.9329 53.11 57.713 53.14 57.483 53.16C56.8029 53.2 56.1329 53.19 55.463 53.16C53.847 53.0472 52.2368 52.8666 50.6279 52.6862L50.6255 52.686L50.6165 52.6851L50.5989 52.6833C50.0768 52.6247 49.5549 52.5661 49.033 52.5099C48.0729 52.4 47.1729 53.05 47.043 54.03C46.913 54.96 47.593 55.92 48.553 56.02C49.8229 56.16 51.103 56.3 52.373 56.43L52.7669 56.4709C54.0006 56.5994 55.2549 56.73 56.493 56.73C57.4529 56.72 58.3829 56.64 59.313 56.43Z" fill="#5A295B"/>
<path d="M31.953 42.11C31.783 42.3199 31.553 42.4799 31.303 42.59C31.0729 42.6899 30.843 42.72 30.613 42.72C30.3829 42.72 30.163 42.6799 29.923 42.6299C29.6376 42.5655 29.3691 42.3994 29.1254 42.2485L29.063 42.21C28.8329 42.0699 28.6129 41.91 28.403 41.73C27.9429 41.35 27.4929 40.9699 27.043 40.5699L23.8329 37.6299C22.1329 36.0799 20.463 34.51 18.793 32.94C18.093 32.28 18.1329 31.11 18.793 30.44C19.4929 29.74 20.593 29.78 21.293 30.44L21.2964 30.4433L21.2979 30.4448C24.0638 33.0433 26.8299 35.6419 29.6627 38.1641C30.0801 38.5233 30.5071 38.8904 30.953 39.22C31.293 39.28 31.613 39.4399 31.873 39.7C32.5229 40.3499 32.553 41.42 31.953 42.11Z" fill="#5A295B"/>
</g>
</svg>
