<svg width="85" height="63" viewBox="0 0 85 63" fill="none" xmlns="http://www.w3.org/2000/svg">
<g id="BG_Vactor" opacity="0.2">
<path fill-rule="evenodd" clip-rule="evenodd" d="M5.73126 17.498C4.99121 18.778 3.97125 19.848 2.85126 20.798C2.55121 21.058 2.18127 21.178 1.80127 21.168C1.25122 21.168 0.701233 20.918 0.361267 20.478C-0.248779 19.688 -0.0487671 18.618 0.681274 17.998C0.731262 17.958 0.77124 17.918 0.821289 17.878C1.17126 17.548 1.52124 17.218 1.85126 16.868C2.03125 16.648 2.21124 16.418 2.38129 16.178C2.95477 15.2917 3.47729 14.3714 3.99866 13.4531C4.27734 12.9624 4.55566 12.4722 4.84125 11.988C5.54266 10.7995 6.32953 9.64893 7.10938 8.50859L7.17126 8.41802C7.26013 8.28755 7.349 8.15682 7.43793 8.02594C8.46021 6.52181 9.4953 4.99875 10.6913 3.62801C11.3312 2.90801 11.9813 2.20802 12.7013 1.56801L12.7346 1.53889C13.2855 1.05676 13.8849 0.532084 14.5613 0.238009C15.2213 -0.0419901 15.9313 -0.121992 16.5713 0.258005C16.8513 0.418009 17.1013 0.668017 17.2413 0.95801C17.3394 1.14759 17.4057 1.3476 17.4398 1.54963C17.689 1.68292 17.9301 1.83044 18.1613 1.998C19.4957 2.92802 20.7057 4.04116 21.908 5.14702C22.1923 5.40859 22.4763 5.66976 22.7613 5.928L22.7513 5.91799C24.0713 7.05799 25.4012 8.16799 26.7913 9.20799C28.2112 10.278 29.6613 11.308 31.1213 12.318C31.7713 12.748 32.4313 13.168 33.1013 13.578L34.2112 14.238C34.8112 14.588 35.1913 15.168 35.1913 15.878C35.1913 16.848 34.3813 17.638 33.4213 17.648C32.9612 17.658 32.6013 17.508 32.2112 17.288C32.0312 17.188 31.8713 17.058 31.7513 16.898C30.6513 16.238 29.5712 15.558 28.5212 14.828C27.2012 13.908 25.9113 12.978 24.6213 12.018C23.3813 11.098 22.1912 10.118 21.0212 9.108C20.1035 8.31429 19.1995 7.50008 18.2978 6.68797C18.1089 6.51782 17.9201 6.34776 17.7313 6.178C17.2112 5.72799 16.6813 5.288 16.1213 4.88799C16.0847 4.85868 16.0426 4.83472 16.0031 4.8122C15.9886 4.80401 15.9746 4.796 15.9612 4.78799C15.9506 4.80393 15.9428 4.81704 15.9363 4.82884C15.9306 4.83924 15.926 4.84862 15.9213 4.858C15.8613 4.98799 15.8013 5.11799 15.7513 5.248C15.5913 5.748 15.4713 6.23799 15.3613 6.748L15.3265 6.93899C14.9777 8.85658 14.6255 10.7926 14.4513 12.738C14.3658 14.0373 14.4119 15.322 14.4583 16.617C14.4661 16.837 14.474 17.0573 14.4813 17.278C14.5009 17.5399 14.5196 17.8014 14.5383 18.0625C14.6052 18.9979 14.6718 19.9299 14.7812 20.868C14.9313 22.098 15.1213 23.318 15.3213 24.548C15.3536 24.7045 15.3856 24.861 15.4175 25.0174C15.5839 25.8307 15.75 26.6429 15.9513 27.448L15.9539 27.458C16.273 28.6946 16.5922 29.9313 16.9313 31.158C17.1907 32.1065 17.4698 33.0549 17.7473 33.9981C17.8121 34.2184 17.8769 34.4384 17.9413 34.658C18.1304 35.32 18.356 35.9683 18.5812 36.6152C18.6893 36.926 18.7974 37.2365 18.9012 37.548C18.8898 37.5021 18.875 37.4594 18.8607 37.4182C18.8501 37.3876 18.8398 37.3578 18.8312 37.328L18.8909 37.4852C19.5005 39.0921 20.1063 40.6885 20.8713 42.238C21.4813 43.418 22.1713 44.548 22.9012 45.648C23.5312 46.568 24.2113 47.448 24.9313 48.288C25.5613 48.988 26.2313 49.648 26.9413 50.278C27.7813 51.008 28.6513 51.678 29.5613 52.318C30.2413 52.768 30.9313 53.178 31.6512 53.558C32.3412 53.898 33.0513 54.188 33.7812 54.448C34.5413 54.688 35.3013 54.898 36.0713 55.068C37.0313 55.258 37.9913 55.388 38.9612 55.458C39.9713 55.508 40.9913 55.498 42.0113 55.438C42.2413 55.418 42.4613 55.398 42.6913 55.378C40.9413 53.948 39.3013 52.348 37.9612 50.528C36.4612 48.498 35.0513 46.118 34.8013 43.548C34.5613 41.098 35.1113 38.688 36.1813 36.488C37.1913 34.418 38.6713 32.458 40.5113 31.048C42.5413 29.488 44.9213 28.558 47.4713 28.348C49.9813 28.138 52.4713 28.758 54.5812 30.138C56.6512 31.488 58.0612 33.628 58.6512 36.008C59.2913 38.578 59.4213 41.308 59.1813 43.938C58.9513 46.448 58.4313 49.028 57.2213 51.258C56.0312 53.448 54.1413 55.248 51.9513 56.428C51.8113 56.498 51.6813 56.568 51.5413 56.638C51.9012 56.788 52.2713 56.928 52.6313 57.058C53.7713 57.448 54.9313 57.768 56.1113 58.018C57.0778 58.2016 58.0444 58.3386 59.029 58.4288C59.0624 58.4298 59.0959 58.4322 59.1293 58.4377C59.1365 58.4379 59.1439 58.438 59.1512 58.438C60.3212 58.508 61.4913 58.508 62.6613 58.438H62.6713C62.7085 58.438 62.7495 58.4341 62.7921 58.4312C64.2141 58.3105 65.6077 58.113 67.0013 57.848L67.4122 57.7532C68.8734 57.4167 70.324 57.0826 71.7413 56.598C72.3513 56.378 72.9612 56.128 73.5513 55.858C74.0312 55.608 74.4913 55.348 74.9413 55.058C75.4213 54.718 75.8812 54.358 76.3312 53.978C76.8112 53.528 77.2712 53.058 77.7213 52.568C78.5013 51.678 79.2413 50.748 79.9213 49.768C80.1613 49.408 80.3812 49.038 80.5812 48.658C80.6812 48.458 80.7712 48.258 80.8513 48.048C80.8846 47.9479 80.9091 47.8478 80.9335 47.7477C80.9457 47.6978 80.9579 47.6479 80.9713 47.598C80.9813 47.548 80.9813 47.488 80.9913 47.438C80.9967 47.3673 80.9992 47.2966 81.0003 47.2244C81.0013 47.1637 81.0013 47.1019 81.0013 47.038C81.0013 46.068 81.8013 45.268 82.7712 45.268C83.7412 45.268 84.5413 46.078 84.5413 47.038V47.148C84.5212 47.978 84.3913 48.798 84.0613 49.568C83.6713 50.488 83.1613 51.358 82.5812 52.158C82.0012 52.958 81.3713 53.728 80.7413 54.498C79.5713 55.948 78.1313 57.258 76.5413 58.238C74.7712 59.328 72.8312 60.038 70.8412 60.578C68.2413 61.288 65.5613 61.788 62.8713 61.968C62.2313 62.008 61.6013 62.028 60.9813 62.018C57.3113 62.018 53.6413 61.318 50.2413 59.918C49.1013 59.448 47.9813 58.898 46.9012 58.288C46.1713 58.458 45.4413 58.588 44.7013 58.698C39.5313 59.448 34.0613 58.948 29.4313 56.388C28.2113 55.718 27.0513 54.938 25.9612 54.068C24.9913 53.288 24.0312 52.468 23.1613 51.578C21.4213 49.768 19.9313 47.718 18.6713 45.548C17.1913 43.008 16.1113 40.278 15.1713 37.508C14.5413 35.668 13.9913 33.808 13.4813 31.928C13.2112 30.958 12.9513 29.978 12.7013 28.998C12.4613 28.048 12.2513 27.098 12.0513 26.138C11.6413 24.218 11.3912 22.278 11.1713 20.328C11.0963 19.6378 11.055 18.9476 11.0137 18.2575C11 18.0276 10.9863 17.7978 10.9713 17.568C10.8812 16.388 10.8513 15.188 10.8713 14.008C10.9003 12.1179 11.1704 10.2436 11.4919 8.38121C10.9544 9.13248 10.4346 9.89637 9.91571 10.6589L9.80127 10.828L9.62152 11.1005C8.75061 12.4199 7.87714 13.7433 7.09125 15.128C6.64124 15.928 6.19122 16.708 5.73126 17.498ZM59.127 58.4376C59.0943 58.4347 59.0616 58.4318 59.029 58.4288C59.0031 58.428 58.9772 58.428 58.9513 58.428C58.9863 58.428 59.0187 58.4305 59.0513 58.433C59.0762 58.4349 59.101 58.4368 59.127 58.4376ZM59.127 58.4376L59.1313 58.438L59.1293 58.4377L59.127 58.4376ZM50.0713 32.008C49.7313 31.948 49.3912 31.908 49.0413 31.868C48.8412 31.858 48.6413 31.858 48.4313 31.848C48.2313 31.848 48.0413 31.848 47.8412 31.858C47.4012 31.898 46.9612 31.958 46.5212 32.038C46.0812 32.138 45.6412 32.268 45.2112 32.408C44.8912 32.538 44.5713 32.678 44.2513 32.828C43.9013 33.018 43.5613 33.218 43.2213 33.438C42.9012 33.658 42.6013 33.888 42.3013 34.138C41.9513 34.448 41.6313 34.768 41.3113 35.108C40.9013 35.588 40.5212 36.088 40.1613 36.608C39.8812 37.048 39.6213 37.498 39.3813 37.958C39.1513 38.428 38.9512 38.908 38.7812 39.388C38.6512 39.798 38.5413 40.218 38.4413 40.638C38.3713 41.018 38.3212 41.418 38.2812 41.808C38.2612 42.148 38.2612 42.478 38.2712 42.808C38.3013 43.088 38.3313 43.358 38.3813 43.638C38.4613 43.958 38.5413 44.278 38.6413 44.598C38.8013 45.038 38.9913 45.458 39.1913 45.878C39.5113 46.498 39.8613 47.088 40.2513 47.668C40.7313 48.348 41.2413 49.008 41.7812 49.638C42.4977 50.4416 43.2518 51.1891 44.0524 51.9074C44.974 52.7084 45.9245 53.4707 46.9313 54.158C47.0912 54.268 47.2613 54.378 47.4313 54.488C47.6512 54.418 47.8813 54.348 48.1013 54.278C48.6613 54.078 49.2113 53.848 49.7613 53.578C50.2213 53.338 50.6813 53.068 51.1213 52.778C51.5013 52.508 51.8713 52.218 52.2313 51.918C52.5113 51.648 52.7812 51.378 53.0413 51.098C53.2712 50.818 53.4913 50.528 53.7013 50.228C53.8413 49.998 53.9713 49.778 54.1013 49.548C54.3513 49.028 54.5712 48.508 54.7712 47.968C54.9912 47.288 55.1713 46.608 55.3213 45.908C55.4913 45.018 55.6013 44.128 55.6713 43.228C55.7213 42.158 55.7313 41.088 55.6713 40.018C55.6113 39.248 55.5313 38.488 55.3913 37.718C55.2713 37.178 55.1312 36.648 54.9612 36.128C54.9046 35.9863 54.8479 35.8478 54.7894 35.7107C54.7447 35.6059 54.6989 35.502 54.6512 35.398C54.5012 35.128 54.3513 34.858 54.1813 34.598C54.0413 34.418 53.9013 34.248 53.7613 34.078C53.5913 33.898 53.4313 33.738 53.2513 33.578C53.0713 33.418 52.8813 33.268 52.6813 33.128C52.3913 32.948 52.1013 32.778 51.8013 32.618C51.5013 32.478 51.2013 32.348 50.8913 32.238C50.6213 32.148 50.3513 32.078 50.0713 32.008Z" fill="#7FAE7A"/>
</g>
</svg>
