<svg width="199" height="228" viewBox="0 0 199 228" fill="none" xmlns="http://www.w3.org/2000/svg">
<path d="M52.8907 63.5641C53.0612 63.5981 52.9491 63.9033 52.7762 63.8863C52.6032 63.8693 52.4998 63.6894 52.4356 63.5278C51.8511 62.0496 52.1556 60.3322 52.9132 58.9347C53.6708 57.5373 54.8366 56.4091 56.0348 55.3647C56.7487 54.7424 57.4898 54.1354 58.339 53.716C60.8677 52.4679 64.0822 53.1398 66.2306 54.9665C68.3791 56.7931 69.5385 59.5918 69.8283 62.3971" stroke="#25341D" stroke-miterlimit="0"/>
<path d="M46.1623 69.7617C42.9246 71.7252 39.5481 73.7371 35.7817 74.1294C32.8831 74.4315 29.9742 73.7455 27.0598 73.729C22.5734 73.7033 18.2245 75.2588 13.7522 75.6196C9.28009 75.9805 4.13462 74.7114 2.01291 70.7601C-0.366344 66.3299 2.08842 61.0047 2.87066 56.0381C4.12008 48.1062 1.02189 39.3309 4.90104 32.2998C6.43709 29.5157 8.92372 27.3612 10.5532 24.6307C12.153 21.9498 12.9004 18.7588 14.9135 16.3726C17.5154 13.2885 21.7381 12.1091 24.8125 9.4954C26.2979 8.23268 27.4863 6.65802 28.9167 5.33351C33.1248 1.43568 39.4673 0.00234092 44.9439 1.71127C50.4205 3.4204 54.8205 8.20595 56.0626 13.8044" stroke="#25341D" stroke-miterlimit="0"/>
<path d="M62.5036 71.4034C62.3044 69.8378 60.7736 68.7871 59.2797 68.2489C57.786 67.7105 56.1447 67.4491 54.8751 66.5C53.1614 65.2187 52.523 63.0087 51.6414 61.0668C49.26 55.8206 44.3343 51.7837 38.6948 50.4561C35.4107 49.6829 31.9868 49.7902 28.6401 49.3566C25.2934 48.9228 21.8165 47.8125 19.6819 45.217C20.8064 50.6165 25.4502 54.4833 29.8063 57.9036L40.6081 66.3851C42.4819 67.8562 44.4424 69.3696 46.7745 69.8834C47.9827 70.1499 49.2337 70.1325 50.4659 70.2477M50.4659 70.2477C55.5979 70.7275 61.1671 73.4085 65.5535 70.7203C69.8053 68.115 70.2335 61.9056 73.9859 58.6304L74.1007 58.4857C79.5024 57.2237 81.6212 57.9376 82.5248 58.9064C82.8145 59.217 83.4533 60.106 84.5152 60.2214C85.2621 60.3027 85.9439 59.837 86.6635 59.6228C89.7098 58.7165 92.2438 62.2755 95.3703 62.8526C96.4398 63.0501 97.5395 62.8837 98.6271 62.9052C103.768 63.0064 107.801 67.1208 111.216 70.9371C111.638 71.4091 112.083 71.9354 112.107 72.5661C112.146 73.5757 111.121 74.2791 110.181 74.6665C102.449 77.8536 92.6472 73.6264 85.6521 78.1937C83.8883 79.3452 82.4844 80.9703 80.752 82.1679C78.4967 83.7268 75.6595 84.5907 73.9962 86.7627C71.5212 89.9946 72.3948 95.189 69.2712 97.8094C65.6642 100.835 58.9791 98.3934 56.2077 102.19C55.4011 103.295 55.1601 104.698 54.6207 105.953C53.4714 108.628 50.8314 110.613 47.9266 110.986C45.0221 111.36 41.96 110.108 40.1625 107.812C38.5963 105.812 37.944 103.121 35.9987 101.481C34.214 99.977 31.7243 99.6806 29.5926 98.7201C26.6403 97.3897 24.3638 94.6648 23.5927 91.5384C23.3619 90.6026 23.2679 89.5791 23.6769 88.7057C24.008 87.9986 24.6283 87.4736 25.2387 86.9829C32.6676 81.0085 37.2785 79.248 38.4135 78.699C41.5499 77.182 45.8225 74.6499 50.4659 70.2477Z" stroke="#25341D" stroke-miterlimit="0"/>
<path d="M90.4768 76.4476C90.6226 77.9334 91.1704 78.565 91.5393 78.8556C91.782 79.0469 91.9034 79.3966 94.0523 79.8267C94.434 79.903 94.832 79.9766 95.1461 80.2126C96.8291 81.4773 94.1178 84.9328 95.8068 86.1885C96.5256 86.7229 97.5798 86.3697 98.3707 86.7815C99.3231 87.2775 99.4704 88.5833 99.5845 89.6774C99.7991 91.7259 100.323 93.7272 101.138 95.6087C101.419 96.2582 101.789 96.945 102.435 97.1969C103.03 97.4291 103.707 97.2205 104.255 96.887C107.439 94.9509 107.173 89.9184 109.733 87.1685C111.036 85.7693 111.453 86.1733 112.423 84.8571C114.648 81.837 114.029 77.8976 113.892 77.0207C113.141 72.2322 109.727 69.4795 108.83 68.7998" stroke="#25341D" stroke-miterlimit="0"/>
<path d="M20.7287 48.1653C19.2747 45.613 19.3405 42.27 20.8942 39.777C22.0621 37.9033 23.9424 36.5618 25.1495 34.7131C26.6734 32.3794 26.978 29.4931 27.5588 26.7691C28.1393 24.0451 29.2102 21.1581 31.611 19.7359C34.5003 18.0245 38.1424 19.0318 41.4974 19.2192C46.1206 19.4775 50.8202 17.9903 54.4483 15.1212C56.0548 13.8506 57.4701 12.3132 59.2603 11.3161C61.4652 10.0881 64.0745 9.77874 66.5989 9.85417C72.8791 10.0416 79.0639 12.5404 83.7043 16.765C88.4854 21.1182 92.077 27.4587 98.3428 29.0828" stroke="#25341D" stroke-miterlimit="0"/>
<path d="M67.8618 67.8174C68.3499 65.9544 69.4239 64.0562 69.6387 61.947C70.2832 56.2524 69.4239 50.5577 70.9276 45.074C72.0016 41.9103 75.009 40.4339 77.8015 38.9575C80.1644 37.4811 81.0236 34.7393 82.5273 32.2083C85.3198 27.5682 91.3345 30.0992 95.8455 30.3101C98.4232 30.3101 100.571 28.8337 102.934 28.6228C104.008 28.6228 105.082 28.201 106.209 29.0111M106.209 29.0111C100.23 31.0432 105.703 28.7576 106.209 29.0111ZM106.209 29.0111C100.23 31.0432 94.977 36.0142 93.0551 41.9892C92.1078 44.9342 91.9317 48.9335 88.9858 50.7514C88.0034 51.3575 86.9367 51.6146 85.8373 51.7376C83.4789 52.001 82.9705 51.6583 80.919 52.0964C79.6377 52.3699 77.8262 52.7569 76.8123 54.2669C76.0033 55.472 76.0798 56.8305 76.167 57.4848" stroke="#25341D" stroke-miterlimit="0"/>
<path d="M66.7013 51.113C65.5558 49.5816 65.7597 47.4616 66.5145 45.7271C67.2693 43.9928 68.4989 42.4805 69.3689 40.7948C71.5109 36.6447 71.2507 31.4697 68.7013 27.5304" stroke="#25341D" stroke-miterlimit="0"/>
<path d="M53.9091 73.7129C54.5229 75.079 53.5165 76.5967 52.4667 77.6861C50.5647 79.6581 48.3475 81.3215 45.8999 82.6125C43.9443 83.6433 41.8322 84.4429 40.1044 85.802C38.3766 87.1611 37.0566 89.2792 37.4507 91.3999" stroke="#25341D" stroke-miterlimit="0"/>
<path d="M68.845 70.7201C70.5522 71.0374 72.0973 69.6236 73.1303 68.1643C74.1638 66.7053 75.0899 65.0011 76.6819 64.2809C77.9403 63.7117 79.3764 63.8769 80.7368 64.0526L90.4767 65.3103" stroke="#25341D" stroke-miterlimit="0"/>
<path d="M39.3471 68.3728C38.2659 70.6129 35.8159 71.1086 33.7931 70.5605C31.7702 70.0122 29.9208 68.6816 27.9012 68.1148C25.0871 67.3247 22.0191 68.1302 19.6819 70.2729" stroke="#25341D" stroke-miterlimit="0"/>
<path d="M72.7781 57.0088C74.1694 54.668 73.1914 51.7158 73.4803 49.0261C73.7206 46.7886 74.9108 44.6623 76.7111 43.2523" stroke="#25341D" stroke-miterlimit="0"/>
<path d="M54.096 68.8C52.346 68.1799 50.6916 67.3157 49.1816 66.2328C48.4938 65.7394 47.8154 65.174 47.4583 64.405C47.0496 63.525 47.1174 62.5096 47.0648 61.54C46.8829 58.1875 45.066 54.9628 42.2969 53.0783" stroke="#25341D" stroke-miterlimit="0"/>
<path d="M109.017 75.6782C109.564 78.0481 108.441 80.493 107.081 82.4418C105.72 84.3906 104.058 86.1678 103.259 88.4521" stroke="#25341D" stroke-miterlimit="0"/>
<path d="M52.1296 56.0261C51.9513 54.8399 51.014 53.8977 49.9914 53.254C48.9685 52.6101 47.819 52.1756 46.825 51.489C45.0797 50.2832 43.9528 48.4062 42.8792 46.5876L40.3304 42.2696" stroke="#25341D" stroke-miterlimit="0"/>
<path d="M65.8953 60.884C66.3422 60.4999 66.7407 60.0455 67.0701 59.5287C67.4041 59.0214 67.6775 58.4591 67.8823 57.8584C68.0893 57.2609 68.1813 56.6278 68.3027 56.0107C68.4213 55.3869 68.4888 54.7521 68.554 54.0702L68.6061 54.0609C68.8308 54.7017 68.8807 55.419 68.8229 56.1138C68.7685 56.8158 68.5266 57.4699 68.263 58.0792C67.9971 58.6879 67.6618 59.2477 67.2672 59.742C66.8686 60.2241 66.4179 60.6394 65.9221 60.9392L65.8953 60.884Z" fill="#231F20"/>
<path d="M59.9526 57.0088C59.6328 56.6467 59.3509 56.2302 59.0942 55.7878C58.8403 55.3387 58.624 54.8581 58.4486 54.3536C58.2717 53.8503 58.0808 53.3311 58.0449 52.771C58.0061 52.2162 58.0318 51.6477 58.1974 51.1131L58.255 51.1141C58.4078 51.6477 58.5035 52.1489 58.6124 52.6462C58.7243 53.1382 58.7591 53.6542 58.8802 54.1518C59.0028 54.6499 59.157 55.135 59.3413 55.6023C59.523 56.0765 59.7473 56.5259 59.9956 56.9607L59.9526 57.0088Z" fill="#231F20"/>
<path d="M63.3665 56.9872C63.4868 56.4188 63.568 55.8407 63.595 55.2595C63.6256 54.6826 63.6135 54.103 63.5588 53.5293C63.5033 52.9568 63.3651 52.4144 63.2733 51.8601C63.1773 51.3029 63.0556 50.7554 62.9454 50.1613L62.985 50.1305C63.3169 50.5601 63.5474 51.1054 63.7107 51.679C63.8781 52.2554 63.9066 52.8819 63.9237 53.4887C63.9424 54.0959 63.9082 54.704 63.8218 55.3006C63.7319 55.8922 63.5996 56.4701 63.4092 57.0088L63.3665 56.9872Z" fill="#231F20"/>
<path d="M56.0422 58.9739C55.5553 58.8423 55.0978 58.5912 54.6924 58.2709C54.2863 57.9418 53.9422 57.5418 53.6765 57.09C53.4092 56.6413 53.1611 56.1461 53.1231 55.6046C53.081 55.0715 53.1642 54.5167 53.4397 54.0608L53.4969 54.0746C53.5413 54.594 53.5959 55.0591 53.7036 55.5159C53.8147 55.9654 53.8905 56.4324 54.0909 56.8672C54.293 57.3027 54.5629 57.7028 54.8903 58.0526C55.2179 58.4086 55.6172 58.7011 56.0626 58.9185L56.0422 58.9739Z" fill="#231F20"/>
<path d="M56.0285 63.887C55.6774 63.7801 55.3432 63.6259 55.0172 63.4525C54.6928 63.2722 54.3893 63.0615 54.1113 62.8237C53.8329 62.5869 53.5168 62.357 53.3534 62.0282C53.1868 61.7063 53.0768 61.3512 53.1237 60.9657L53.192 60.9391C53.5188 61.173 53.749 61.4141 53.9753 61.6562C54.2046 61.8918 54.3344 62.1943 54.5468 62.4515C54.7604 62.7089 54.9929 62.9524 55.2425 63.1802C55.4915 63.4154 55.7704 63.6241 56.0626 63.8261L56.0285 63.887Z" fill="#231F20"/>
<path d="M60.9789 63.8617C61.0675 63.5369 61.1451 63.2149 61.1854 62.8895C61.2321 62.5656 61.2567 62.2425 61.2611 61.9221C61.2649 61.5995 61.1775 61.284 61.2132 60.9682C61.2248 60.8094 61.242 60.6492 61.2731 60.4839C61.2992 60.319 61.3338 60.1508 61.3995 59.9698L61.4705 59.9565C61.6085 60.1016 61.7034 60.2613 61.7788 60.426C61.8542 60.5907 61.9042 60.7617 61.9371 60.9346C62.0105 61.2825 61.9059 61.6337 61.8382 61.9728C61.7713 62.3123 61.6705 62.6456 61.5372 62.9688C61.3978 63.2881 61.2427 63.599 61.0458 63.887L60.9789 63.8617Z" fill="#231F20"/>
<path d="M57.98 61.9216C57.7726 61.773 57.5995 61.5644 57.4511 61.3316C57.3061 61.0906 57.2008 60.8234 57.1401 60.5421C57.0782 60.2629 56.9917 59.9495 57.0912 59.6585C57.1824 59.3739 57.3516 59.1038 57.6363 58.9738L57.6962 59.0108C57.7477 59.3346 57.7587 59.5638 57.7664 59.7921C57.7827 60.0138 57.6866 60.2277 57.6846 60.4652C57.6827 60.6975 57.7074 60.9363 57.7625 61.1731C57.8128 61.4135 57.9071 61.6435 58.0292 61.8692L57.98 61.9216Z" fill="#231F20"/>
<path d="M64.912 67.7585C65.14 67.4808 65.3466 67.1918 65.5133 66.878C65.6825 66.5727 65.8258 66.2509 65.9416 65.9166C66.0566 65.583 66.078 65.2273 66.2 64.9078C66.3175 64.5817 66.4327 64.2536 66.6244 63.8869L66.6925 63.8879C66.876 64.2684 66.9034 64.686 66.8612 65.0855C66.8236 65.4923 66.6128 65.8429 66.4309 66.1807C66.2499 66.5198 66.0313 66.8325 65.7801 67.1116C65.5267 67.3833 65.255 67.6289 64.9544 67.8174L64.912 67.7585Z" fill="#231F20"/>
<path d="M74.7446 85.5042C80.7051 87.4744 84.4833 93.5652 85.8124 99.7629C87.5578 107.902 85.8649 116.448 84.0188 124.39C82.0585 132.822 79.4876 141.078 77.5473 149.516C75.6101 157.939 74.2998 166.66 75.06 175.345C75.5289 180.703 77.204 184.634 79.8665 199.954C80.1239 201.435 80.3746 202.917 80.6188 204.4" stroke="#25341D" stroke-miterlimit="0"/>
<path d="M84.5771 201.452C85.2164 203.751 85.879 206.042 86.5437 208.331" stroke="#25341D" stroke-miterlimit="0"/>
<path d="M84.8343 78.626C81.4552 85.3089 87.2004 92.5752 88.9949 98.803C90.9853 105.712 90.7568 113.075 89.565 120.11C88.3299 127.401 86.0069 134.414 83.8275 141.446C81.6213 148.563 79.5346 155.793 78.8943 163.267C78.2445 170.856 79.1154 178.488 80.7158 185.9C80.9164 186.829 81.1278 187.755 81.3498 188.678" stroke="#25341D" stroke-miterlimit="0"/>
<path d="M131.774 123.826C136.726 124.575 140.74 125.711 143.613 126.675C143.613 126.675 154.04 130.173 162.462 137.769C163.537 138.739 164.904 140.316 165.636 142.663C166.219 144.536 166.054 146.73 164.82 148.255C162.674 150.906 158.55 150.524 155.474 151.999C150.471 154.398 149.092 161.198 144.424 164.197C143.389 164.861 142.215 165.32 141.29 166.131C138.738 168.366 138.888 172.394 137.119 175.288C135.874 177.325 133.585 179.112 133.908 181.478C134.101 182.89 135.208 183.972 135.959 185.184C137.632 187.885 137.54 191.304 137.067 194.445C136.397 198.885 135.082 203.203 133.164 207.262C137.387 208.085 140.59 202.749 144.89 202.612C146.878 202.549 148.728 203.628 150.704 203.856C155.959 204.461 160.089 199.149 165.303 198.255C167.559 197.869 170.298 198.162 171.689 196.345C172.33 195.508 172.496 194.406 172.994 193.478C174.697 190.308 179.302 190.322 182.115 188.078C186.373 184.682 185.236 177.409 189.149 173.622C190.205 172.6 191.57 171.907 192.49 170.762C193.92 168.985 193.996 166.41 193.261 164.251C192.654 162.469 191.756 161.104 189.691 158.452C188.452 156.863 187.889 156.414 186.908 154.891C186.115 153.659 185.45 152.349 184.923 150.982" stroke="#25341D" stroke-miterlimit="0"/>
<path d="M151.439 130.704C156.923 131.899 160.388 134.037 162.508 135.718C166.631 138.986 167.745 142.066 171.8 142.889C174.008 143.338 176.28 142.729 178.449 142.126C180.803 141.471 183.282 140.743 184.938 138.978C186.036 137.809 186.663 136.291 187.636 135.019C189.241 132.923 191.817 131.572 194.487 131.428C194.898 131.406 195.342 131.421 195.672 131.663C195.982 131.891 196.125 132.272 196.253 132.631C197.185 135.258 198.127 138.083 197.385 140.767C197.028 142.059 196.292 143.253 196.147 144.583C195.829 147.502 198.401 150.417 197.354 153.167C196.627 155.076 194.269 155.712 193.466 155.95C189.974 156.985 187.031 155.052 186.614 154.768" stroke="#25341D" stroke-miterlimit="0"/>
<path d="M132.326 123.826C131.723 124.174 131.154 124.574 130.625 125.022C127.921 127.316 127.763 129.643 125.722 132.054C124.416 133.596 123.356 134.028 121.605 135.142C116.16 138.606 111.216 143.673 110.303 149.987C109.779 153.608 110.629 157.269 111.474 160.831L114.174 172.211C114.722 174.523 115.274 176.846 116.188 179.044C118.787 185.299 122.111 187.847 125.917 192.729C128.33 195.824 131.379 200.539 133.74 207.348" stroke="#25341D" stroke-miterlimit="0"/>
<path d="M135.707 124.267C136.461 121.148 139.591 118.698 142.955 118.594C144.831 118.536 146.674 119.129 148.551 119.114C150.329 119.099 152.046 118.54 153.795 118.233C157.624 117.563 161.093 118.048 166.545 119.266C178.274 121.887 193.364 129.98 194.702 130.704" stroke="#25341D" stroke-miterlimit="0"/>
<path d="M137.673 173.275C138.217 174.636 139.461 177.144 142.145 179.018C143.182 179.742 144.703 180.805 146.654 180.817C148.129 180.826 150.262 180.703 153.05 177.06C156.019 173.181 158.643 168.883 162.675 166.076C164.292 164.949 166.163 164.034 167.241 162.4C167.816 161.528 168.133 160.492 168.826 159.709C170.235 158.117 172.79 157.981 174.319 156.498C175.587 155.269 175.942 153.303 177.314 152.186C179.388 150.499 182.564 151.561 185.128 150.755C188.413 149.723 188.715 147.464 191.403 147.41C193.078 147.376 194.366 148.13 194.922 148.516C197.459 150.278 197.635 153.301 197.652 153.725" stroke="#25341D" stroke-miterlimit="0"/>
<path d="M137.673 188.789C137.956 189.769 138.968 192.79 141.988 194.752C142.755 195.249 145.395 197.254 148.113 196.272C149.666 195.711 150.825 194.372 152.344 193.725C154.923 192.628 157.887 193.727 160.679 193.471C164.051 193.162 166.887 190.926 169.504 188.783C172.146 186.62 174.81 184.435 176.928 181.759C178.502 179.771 179.78 177.507 181.724 175.877C185.617 172.613 186.816 173.152 188.104 170.951C189.323 168.868 189.077 163.548 186.328 158.302C185.403 156.538 183.747 153.92 180.842 151.339" stroke="#25341D" stroke-miterlimit="0"/>
<path d="M113.878 141.513C111.561 144.058 111.784 147.927 113.034 151.069C114.283 154.211 116.392 157.003 117.589 160.164C119.684 165.699 119.002 172.324 122.924 176.887" stroke="#25341D" stroke-miterlimit="0"/>
<path d="M155.372 174.922C155.427 175.153 155.485 175.384 155.547 175.613C156.372 178.64 158.017 181.47 160.288 183.766" stroke="#25341D" stroke-miterlimit="0"/>
<path d="M174.054 157.234C175.873 158.263 176.873 160.094 177.629 161.878C178.741 164.504 179.52 167.231 179.953 170.008" stroke="#25341D" stroke-miterlimit="0"/>
<path d="M183.886 139.548C185.445 140.387 186.92 141.368 188.316 142.443C191.576 144.954 194.397 147.958 196.669 151.339" stroke="#25341D" stroke-miterlimit="0"/>
<path d="M148.534 160.182C148.298 161.735 149.002 163.359 150.395 164.475C151.447 165.319 152.915 165.943 153.405 167.061" stroke="#25341D" stroke-miterlimit="0"/>
<path d="M136.69 176.887C137.589 181.239 140.105 185.189 143.573 187.696" stroke="#25341D" stroke-miterlimit="0"/>
<path d="M142.59 195.557C144.617 198.239 147.461 200.015 150.456 200.47" stroke="#25341D" stroke-miterlimit="0"/>
<path d="M186.836 141.513C190.019 142.308 193.019 143.64 195.686 145.444" stroke="#25341D" stroke-miterlimit="0"/>
<path d="M123.908 132.937C118.677 127.513 110.986 121.17 103.039 124.992C95.5942 128.572 93.4202 137.951 91.4803 145.248C89.2332 153.699 87.6878 162.328 86.6448 171.01C85.5939 179.756 85.0489 188.558 84.7874 197.362C84.5263 206.153 84.5478 214.949 84.6415 223.743C84.6532 224.829 84.6656 225.914 84.6792 227" stroke="#25341D" stroke-miterlimit="0"/>
<path d="M126.857 129.318C117.636 120.253 106.669 115.584 99.0892 119.109C93.3591 121.773 90.5095 128.172 87.5349 139.363C85.2889 147.813 83.7441 156.44 82.7015 165.121C81.6511 173.867 81.1063 182.667 80.8449 191.47C80.545 201.568 80.6589 213.695 80.6991 217.848C80.7123 219.216 80.7265 220.346 80.7365 221.104" stroke="#25341D" stroke-miterlimit="0"/>
<path d="M80.6442 226.018C78.3123 212.437 72.0183 199.822 64.7885 188.039C57.5589 176.255 49.3208 165.076 42.5533 153.028C32.2053 134.605 25.4083 114.249 22.6318 93.3654" stroke="#25341D" stroke-miterlimit="0"/>
<path d="M74.6901 207.348C73.4497 202.034 73.3608 196.387 74.9785 191.139C75.4459 189.622 76.097 188.177 76.711 186.713" stroke="#25341D" stroke-miterlimit="0"/>
<path d="M49.6976 165.096C48.5504 161.817 49.5022 158.155 50.6829 154.891C51.8635 151.626 53.297 148.298 53.0934 144.806C52.9214 141.851 51.5911 139.137 50.6872 136.337C49.7832 133.536 49.3479 130.257 50.8374 127.757" stroke="#25341D" stroke-miterlimit="0"/>
<path d="M33.9691 134.635C32.7209 131.421 34.3986 127.957 34.4304 124.572C34.4552 121.938 33.4771 119.382 32.8874 116.796C32.2977 114.209 32.1375 111.382 33.6585 109.087" stroke="#25341D" stroke-miterlimit="0"/>
<path d="M77.6944 214.226C76.8486 211.22 73.5834 208.935 70.1834 208.969C67.3406 208.998 64.7677 210.442 62.0072 211.063C56.9401 212.202 51.2111 210.253 48.1965 206.365" stroke="#25341D" stroke-miterlimit="0"/>
<path d="M61.9621 183.766C60.1801 181.52 57.3261 178.677 53.1331 177.321C48.3453 175.772 45.4435 177.335 40.2646 176.151C37.4716 175.513 33.6496 173.992 29.5145 170.009" stroke="#25341D" stroke-miterlimit="0"/>
<path d="M39.3473 145.444C38.5051 142.946 36.5449 140.803 34.0515 139.655C32.2487 138.826 30.2085 138.502 28.467 137.563C25.7336 136.088 24.115 133.329 22.6318 130.705" stroke="#25341D" stroke-miterlimit="0"/>
<path d="M27.5481 117.93C27.2213 116.723 26.5756 115.017 25.1764 113.533C23.6388 111.902 22.3243 111.739 20.9483 110.61C19.636 109.533 18.1558 107.484 17.7155 103.191" stroke="#25341D" stroke-miterlimit="0"/>
<path d="M84.6323 195.019C85.9814 194.192 89.3437 194.362 88.3189 196.878C87.9106 197.88 86.875 198.04 86.1985 198.743C85.4747 199.494 85.092 200.543 84.5771 201.453" stroke="#25341D" stroke-miterlimit="0"/>
<path d="M79.4141 195.557C77.5764 196.286 76.6097 198.655 79.6609 198.497" stroke="#25341D" stroke-miterlimit="0"/>
<path d="M86.0539 184.286C86.8993 183.47 87.795 183.684 88.5543 184.437C89.3186 185.195 89.6658 185.934 89.4104 186.976C88.9798 188.734 87.3029 190.032 85.5604 190.644" stroke="#25341D" stroke-miterlimit="0"/>
<path d="M86.6832 171.004C87.8222 170.864 88.6948 171.912 88.4766 172.75C87.604 175.894 87.1677 179.038 85.5604 181.8" stroke="#25341D" stroke-miterlimit="0"/>
<path d="M82.6107 162.148C81.6098 163.523 81.2227 166.366 82.1691 168.043" stroke="#25341D" stroke-miterlimit="0"/>
<path d="M80.6442 152.471C81.5785 151.967 82.5774 151.582 83.6087 151.339C83.8364 152.351 84.2088 153.321 84.5772 154.287" stroke="#25341D" stroke-miterlimit="0"/>
<path d="M29.4417 99.261C29.3814 99.9162 29.1682 100.342 28.7419 100.768C28.1023 101.832 28.5287 103.109 28.955 104.174C28.955 104.387 28.955 104.599 28.7419 104.812C24.4783 108.218 27.4628 113.753 29.3814 117.585C29.3814 117.797 29.8077 118.436 30.6605 117.585C30.8736 117.372 30.8736 116.946 30.8736 116.52C29.8077 113.54 28.1023 110.986 27.8891 107.792L28.1023 107.58M28.1023 107.58C28.3155 107.58 28.3155 107.792 28.5287 107.792M28.1023 107.58C27.8891 107.792 28.1023 108.005 28.3155 108.005L28.5287 107.792M28.1023 107.58H28.5287C29.3814 108.644 28.955 110.773 30.4473 111.411C31.7263 110.773 30.4473 109.07 30.4473 108.005C30.4473 106.941 31.3 106.302 32.1527 105.451C33.0054 104.387 32.3659 103.109 32.5791 101.832C32.7922 101.406 33.0054 100.555 33.6449 100.555C35.7767 100.981 35.5635 103.535 35.9899 105.451C36.2031 107.154 37.4821 108.218 38.548 109.495C39.1876 110.56 39.1876 112.05 37.9085 112.901C36.4162 113.753 34.924 114.391 34.7108 116.094C34.7108 116.52 34.924 116.946 35.6401 117.189M28.5287 107.792H28.1023C28.1648 107.664 28.2292 107.537 28.2948 107.41C28.5287 107.367 28.5287 107.58 28.5287 107.792ZM35.6401 117.189C34.9922 117.192 35.7119 116.332 35.6401 117.189ZM35.6401 117.189C35.069 116.238 37.2798 116.551 37.6478 116.544C39.1581 116.514 39.5171 114.914 40.1189 113.832C40.9599 114.511 41.948 115.65 41.3059 116.778C40.79 117.683 39.5847 117.846 39.0313 118.713C38.3796 119.735 39.343 120.744 39.121 121.803C38.8733 122.986 37.6382 122.784 36.7473 123.057C35.5384 123.426 35.6347 124.653 35.975 125.642M35.975 125.642C35.6691 125.21 36.2625 125.163 35.975 125.642ZM35.975 125.642C36.6345 124.521 37.3404 124.091 37.878 123.91C38.5273 123.691 38.9298 123.835 39.5225 123.545C40.2769 123.176 40.6738 122.429 40.893 121.842C41.5967 122.181 42.4014 122.678 42.3658 123.267C42.356 123.427 42.2961 123.593 42.172 123.758C41.1061 125.248 40.0403 126.738 40.2534 128.654C39.4007 129.931 37.6953 129.718 36.4162 130.357C36.8426 130.995 35.1372 130.995 36.4162 131.847C37.269 132.273 38.3348 131.634 39.1876 131.634C39.4007 131.634 39.6139 131.847 39.6139 132.06C39.8271 133.337 38.548 134.188 37.9085 135.04C35.5635 138.659 39.6139 141 41.3193 143.768C42.3852 145.471 42.3852 147.599 43.2379 149.302C43.6643 150.154 44.3038 151.005 45.1565 151.431C45.7961 151.644 46.6488 151.005 46.8619 150.579C47.0751 150.154 47.0751 149.515 46.8619 148.877C45.7961 145.896 44.7302 143.129 43.4511 140.362C43.2379 139.723 43.2379 139.084 43.6643 138.446C44.0906 138.233 44.7302 138.02 44.7302 138.446C44.9433 141.213 45.7961 144.832 48.7805 145.258C49.8464 145.471 49.6332 143.98 49.2069 143.129C48.3542 141.852 46.8619 141 46.8619 139.297C47.0751 137.169 46.6488 135.253 44.7302 133.976C43.6643 132.911 44.3038 131.421 43.8775 130.144C43.8775 129.931 43.4511 129.931 43.4511 129.718C43.2379 128.867 43.8775 128.015 44.7302 128.228C46.4356 128.867 45.7961 130.782 45.7961 132.273C45.7961 132.911 46.2224 133.763 47.0751 133.55C47.5015 133.337 47.7147 132.698 47.7147 132.273C46.6488 130.144 46.4356 127.589 47.7147 125.248C47.7147 125.035 47.7147 124.609 47.5015 124.396C45.3697 122.268 45.7961 119.5 47.7147 117.372C48.141 116.733 47.9278 115.882 47.8006 115.104M47.8006 115.104C48.0574 115.618 48.5663 115.251 47.8006 115.104ZM47.8006 115.104C48.9937 115.456 49.4201 116.733 49.6332 118.01C49.8464 119.5 49.8464 120.778 50.6991 122.055C53.4704 123.332 56.4549 126.312 54.5363 129.505C53.4704 131.208 51.765 132.273 51.765 134.401C51.9782 135.466 52.1003 136.982 53.825 136.509C52.6719 134.776 54.5214 132.837 55.4489 131.47C55.9844 130.682 56.4803 129.825 57.1695 129.157C57.4609 128.874 57.999 128.306 58.4176 128.525C58.7649 128.706 58.8114 129.319 58.8195 129.665C58.8636 131.516 56.4385 133.141 57.2445 134.943C57.6419 135.832 58.3929 136.641 58.2399 137.687C58.0908 138.705 57.2729 139.662 56.6749 140.459C55.5067 142.016 55.7998 145.992 56.0286 146.109C56.2656 144.629 56.5747 143.292 58.0386 142.609C59.3548 141.996 60.5134 141.15 60.6761 139.596M60.6761 139.596C60.6019 140.239 61.6475 140.354 60.6761 139.596ZM60.6761 139.596C62.4239 140.787 62.6371 143.342 61.7844 145.258C60.9316 146.748 59.4394 147.174 58.1603 148.238C57.9472 148.451 57.734 148.877 57.734 149.302C57.9472 151.431 57.0945 153.134 55.389 154.411C53.8968 155.901 54.3865 158.825 54.5058 159.05C54.6459 159.314 54.8772 159.576 54.9906 159.685C55.6327 157.772 57.274 156.719 58.9216 155.744C60.2921 154.837 60.9316 153.56 61.7844 152.282C61.9975 152.07 62.6371 152.07 62.8502 152.282C63.703 152.921 63.703 154.198 63.2766 155.263C63.0634 155.476 62.8502 155.901 62.6371 156.327C61.358 157.817 60.5053 159.52 59.6526 161.436C59.4394 161.862 59.0131 162.287 58.3735 162.5C56.4549 162.926 54.11 164.203 54.3232 166.545C54.5363 168.248 55.389 169.738 56.0286 171.228C57.0945 172.931 58.3735 174.634 59.6526 176.124C61.5712 178.253 63.2766 180.169 65.4084 182.084C66.6874 183.574 67.7533 185.065 69.0324 186.768C69.6719 187.619 70.5246 187.832 71.3773 187.619C71.8037 187.406 72.0169 186.98 72.0169 186.555C71.5905 184.426 71.1642 182.084 72.8696 180.381C73.2959 178.04 70.951 177.188 69.6719 175.698C68.8192 174.421 69.2456 172.931 69.4587 171.441C69.4587 171.228 69.2456 171.015 69.2456 170.802C68.3929 169.525 65.6216 167.396 67.9665 166.758C70.3115 165.906 69.8851 169.312 70.5246 171.015C70.7378 172.079 71.3773 172.505 72.4432 172.292C73.0828 172.079 73.5091 171.654 73.2959 171.015C72.8696 169.738 71.8037 168.674 72.0169 167.183C72.2301 166.332 73.2959 165.693 73.5091 164.842C73.7223 163.352 72.0169 162.5 71.1642 161.223C70.951 160.584 71.1642 159.733 71.8037 159.307C72.081 159.405 72.462 159.58 72.8133 159.91C73.6157 160.664 73.663 161.661 74.258 161.755C74.3669 161.772 74.5292 161.765 74.7445 161.637" stroke="#25341D" stroke-miterlimit="0"/>
<path d="M77.6943 227C75.8381 225.262 76.2714 222.277 75.4048 219.932C74.5383 218.226 72.5885 217.586 70.8554 218.226C69.1222 218.652 66.5226 220.571 65.2227 218.226C65.8726 217.8 66.5226 217.373 67.3891 217.16C68.9056 216.734 68.9056 214.601 67.8224 214.175C64.7894 212.683 62.8397 216.307 60.6732 218.013C59.1568 218.013 57.8569 217.373 56.3404 218.439C55.6905 218.652 54.8239 218.866 54.174 218.652C53.9574 218.439 53.5241 218.226 53.7407 217.8C53.9574 217.373 54.3907 217.373 54.8239 217.16C55.6905 216.307 57.207 215.667 57.4236 214.388C57.4236 213.535 56.5571 213.535 55.9071 213.322C53.5241 212.896 51.5743 214.601 49.1913 215.241C47.4581 215.667 46.3749 214.388 45.2917 213.109C45.0751 212.683 44.6418 212.043 44.2085 211.616C42.0421 207.992 40.309 204.794 37.9259 201.382C37.0594 200.103 35.9762 199.25 34.9731 198.352M34.9731 198.352C35.2647 198.452 35.5643 198.564 35.7896 198.779C35.4727 198.747 35.1943 198.569 34.9731 198.352ZM34.9731 198.352C35.7595 198.824 36.6261 198.611 37.4927 198.611C40.309 198.184 43.342 197.545 45.5084 199.464C47.2415 201.382 48.5414 204.367 51.3577 204.581C52.0076 204.581 52.8742 204.367 52.8742 203.301C52.6575 202.448 52.0076 202.022 51.3577 201.596C50.2745 201.169 48.9746 200.53 49.4079 199.25C49.6246 198.824 50.2745 198.397 51.141 198.611C52.6575 199.037 52.8742 200.53 53.9574 201.596C54.8239 202.448 56.1238 202.448 57.4236 202.448C58.2902 202.662 59.3734 202.875 59.8067 203.941C60.24 205.22 59.8067 206.713 60.8899 207.566C61.5398 207.992 62.623 207.992 63.2729 207.139C63.7062 206.286 63.4896 205.22 63.0563 204.367C61.9731 202.875 59.8067 201.809 60.1377 199.707M60.1377 199.707C60.0961 200.215 60.7599 200.071 60.1377 199.707ZM60.1377 199.707C61.5147 201.686 64.2116 200.885 66.234 200.874C68.6872 200.861 69.817 202.808 70.7059 204.772C71.1844 205.83 71.7878 207.331 73.2233 207.219M73.2233 207.219C73.0957 206.932 72.9626 206.643 72.7635 206.396C72.8138 206.714 72.9713 207.013 73.2233 207.219ZM73.2233 207.219C70.6387 201.596 68.039 196.479 64.3561 191.362C63.7062 190.509 62.623 189.869 61.5398 190.296C60.6732 190.722 59.8067 190.935 58.9401 191.148H58.0736C55.6905 190.296 53.3075 190.082 50.7078 190.509C50.2745 190.509 49.6246 190.082 49.6246 189.656C49.8412 189.229 50.2745 188.59 50.7078 188.377C51.3577 188.163 51.791 187.737 52.2242 187.311C53.7407 186.031 55.6905 185.818 57.6403 186.458C58.0736 186.671 58.7235 186.458 58.9401 186.245C59.3734 185.178 58.2902 184.112 57.4236 183.899C56.1238 183.473 54.3907 183.046 53.0908 184.112C52.0076 185.178 51.141 187.097 49.4079 186.671C47.6748 186.031 45.9417 186.458 44.2085 187.097C43.5586 187.097 42.692 187.524 42.0421 186.884C41.6088 186.245 42.2588 185.605 42.9087 185.178C45.5084 183.686 48.1081 182.833 50.9244 181.98M50.9244 181.98C50.3351 182.161 50.4636 180.799 50.9244 181.98ZM50.9244 181.98C49.1913 179.209 46.3749 181.767 43.9919 182.194C42.692 182.407 41.3922 181.341 40.0924 181.341C39.0092 181.341 37.9259 182.407 36.8427 182.62C36.1928 182.62 35.5429 182.833 34.893 182.194C34.6763 181.767 34.4597 181.341 34.893 180.914C35.7595 180.061 37.0594 180.061 38.3202 180.44M38.3202 180.44C37.7368 180.283 38.3178 179.547 38.3202 180.44ZM38.3202 180.44C37.3475 177.451 33.4439 178.992 31.1986 178.839C29.4341 178.719 28.3093 177.396 27.418 176.03C26.1758 174.127 25.0538 172.156 23.8685 170.22C22.7585 168.406 21.2335 166.506 21.2446 164.284M21.2446 164.284C21.2247 165.821 21.9508 164.569 21.2446 164.284ZM21.2446 164.284C22.5444 166.629 25.5774 165.776 27.7438 165.137C27.9605 165.137 28.3937 165.137 28.6104 165.35C29.6936 166.203 29.9102 167.482 31.2101 168.122C32.2933 168.548 33.3765 168.548 34.2431 169.188C35.1096 170.041 35.3263 171.32 35.7595 172.386C35.9762 173.026 36.8427 172.812 37.4927 172.812C37.4927 172.173 38.1426 171.746 37.9259 171.107C37.4927 169.614 35.9762 168.975 35.1096 167.909C34.4597 167.056 33.8098 165.99 34.0264 164.924C34.0264 164.284 34.6763 163.431 35.5429 163.858C36.6261 164.71 37.0594 165.99 37.9259 167.056C39.6591 168.761 40.5256 170.893 42.0421 173.026C42.4754 173.878 44.4252 174.518 44.8585 173.239C45.725 171.32 43.5586 170.893 42.2588 169.827C41.6088 168.975 42.2588 167.909 43.342 167.695C43.7753 167.482 44.4252 167.695 44.8585 168.122C45.9417 169.401 46.3749 170.68 47.0249 172.173C47.6748 173.239 48.5414 173.878 49.8412 173.665C50.4911 173.452 51.3577 173.452 51.141 172.386C50.9244 170.893 50.0578 169.401 48.758 168.335C46.8082 166.203 45.0751 164.071 43.342 161.512C41.6088 158.74 41.1756 155.756 40.0924 152.984C39.6591 152.131 38.7925 151.705 37.9259 151.278C36.8427 150.852 35.3263 151.491 34.2431 150.852C34.0264 150.639 32.9432 149.999 34.2431 149.572C34.4597 149.359 35.1096 149.786 35.5429 149.572C36.4095 149.146 36.8427 148.293 36.4095 147.44C34.6763 144.882 31.6434 147.44 29.6936 148.506C29.0437 148.933 28.1771 149.146 27.3105 149.146C26.0107 149.146 24.7108 148.293 23.8443 147.227C23.6276 146.801 23.411 146.161 22.6614 145.854M22.6614 145.854C23.0405 146.417 23.1097 145.501 22.6614 145.854ZM22.6614 145.854C23.0873 145.677 23.2344 145.487 23.6898 145.61C24.0893 145.718 24.4585 145.991 24.8371 146.153C25.7765 146.554 26.4232 146.259 27.3662 146.054C28.7081 145.762 31.7138 145.654 31.7023 143.728C31.6897 141.571 28.5151 142.445 27.3851 142.845C26.6004 143.123 25.7938 143.484 25.1023 142.825C24.5527 142.302 24.3837 141.606 23.6276 141.257C22.3215 140.654 18.8219 141.742 18.4898 139.726C18.2203 138.092 21.786 139.07 22.6348 139.12C23.2442 139.157 24.9682 139.184 24.9572 138.366C24.9483 137.706 24.0815 137.319 23.5362 137.192C22.1532 136.869 20.3882 137.026 19.8304 135.411C19.4937 134.436 19.669 133.376 19.404 132.386C19.1159 131.311 18.3583 130.579 18.3392 129.407C18.3095 127.593 20.0847 125.181 18.3037 123.812M18.3037 123.812C18.61 124.258 19.1397 123.421 18.3037 123.812ZM18.3037 123.812C19.5858 123.27 20.3811 124.886 20.7684 125.803C21.0225 126.404 21.1937 127.036 21.5371 127.597C21.9974 128.349 22.6506 128.963 23.1393 129.695C23.7847 130.662 24.2875 133.246 25.8718 133.175C26.884 133.13 26.3883 131.466 26.2466 130.889C26.0484 130.083 25.8313 129.277 25.5176 128.507C25.0939 127.467 24.2583 126.636 24.2776 125.48C25.4147 125.519 26.2583 126.671 26.8558 127.492C28.1771 129.318 30.1269 131.663 28.827 134.008C28.3937 134.861 28.827 135.714 29.6936 136.353C30.1269 136.567 30.9934 136.993 31.2101 136.353C31.86 135.287 31.2101 134.008 31.2101 132.942C30.5602 128.891 28.3937 125.693 27.0939 121.855C26.6606 120.789 26.0107 119.723 24.9275 119.723C23.6276 119.51 22.5444 120.15 21.2446 119.723C19.7281 119.083 18.2116 118.231 16.6951 117.378M16.6951 117.378C16.8663 117.133 18.1113 118.266 16.6951 117.378ZM16.6951 117.378C16.8663 117.133 17.6416 116.252 17.771 116.987C17.8832 117.622 17.0457 117.586 16.6951 117.378ZM16.6951 117.378C17.9116 115.628 20.0736 118.373 21.581 117.778C22.1166 117.566 22.4467 116.948 22.3471 116.393C22.1935 115.54 21.4478 115.507 20.7359 115.511C19.9157 115.515 19.5312 115.12 18.9107 114.656C18.2293 114.147 17.4902 113.718 16.7081 113.378C15.4679 112.839 13.8194 112.519 13.4693 111.007M13.4693 111.007C13.5103 111.615 14.0467 110.874 13.4693 111.007ZM13.4693 111.007C14.5898 111.028 16.2408 112.111 17.1284 110.982C16.1843 110.25 16.7454 108.973 16.4466 108.001C16.0816 106.813 14.9256 107.057 13.9598 106.784C11.4169 106.067 13.8452 101.941 13.8437 100.362C13.8424 99.0876 14.0694 97.9536 13.5508 97.8054C13.0389 97.6591 13.8142 96.7854 13.978 96.6031C14.1431 97.5907 14.3797 98.671 15.0374 99.4671C15.6295 100.183 16.5155 100.344 17.2701 100.822C18.685 101.719 18.5171 103.622 18.8598 105.043M18.8598 105.043C18.4432 104.321 19.1352 104.571 18.8598 105.043ZM18.8598 105.043C19.1373 104.566 19.9153 103.571 20.2727 104.555C20.5186 105.232 19.9755 106.016 20.2922 106.681C20.6748 107.484 21.5104 107.144 21.8115 106.51C22.1928 105.709 22.1894 104.671 21.9571 103.837C21.4207 101.911 19.4391 100.856 18.7645 99.0062C18.3581 97.8917 18.8247 97.0866 19.2543 96.0735C19.7372 94.9356 19.4567 93.7864 19.6098 92.6024C19.9146 90.2447 22.6814 87.7773 22.3592 87.4611C22.0854 87.1924 22.9996 86.6033 23.1744 86.4869C22.9227 87.1845 22.9268 87.9406 23.1354 88.6482" stroke="#25341D" stroke-miterlimit="0"/>
</svg>
