<svg width="224" height="54" viewBox="0 0 224 54" fill="none" xmlns="http://www.w3.org/2000/svg">
<path d="M60.7949 28.3173L61.7738 25.5192H69.9645L70.9656 28.3173H60.7949ZM57.2458 31.7334L64.345 15.8048H67.9845L75.1064 31.7334H71.2385L65.4138 17.6686H66.8697L61.0228 31.7334H57.2458Z" fill="white"/>
<path d="M83.1377 29.0046C83.7294 29.0046 84.2564 28.8662 84.7187 28.5943C85.1814 28.3175 85.5532 27.9319 85.834 27.4227C86.1143 26.9135 86.2547 26.3104 86.2547 25.6133C86.2547 24.9014 86.1143 24.2933 85.834 23.794C85.5532 23.2898 85.1814 22.9042 84.7187 22.6323C84.2564 22.3604 83.7294 22.2219 83.1377 22.2219C82.5459 22.2219 82.0155 22.3604 81.5458 22.6323C81.0752 22.9042 80.7034 23.2898 80.4305 23.794C80.1576 24.2933 80.0212 24.9014 80.0212 25.6133C80.0212 26.3104 80.1576 26.9135 80.4305 27.4227C80.7034 27.9319 81.0752 28.3175 81.5458 28.5943C82.0155 28.8662 82.5459 29.0046 83.1377 29.0046ZM83.7517 31.9165C82.6754 31.9165 81.7505 31.6891 80.9768 31.2343C80.2031 30.7745 79.6113 30.0824 79.202 29.148C78.7922 28.2186 78.5875 27.0371 78.5875 25.6133C78.5875 24.1697 78.8035 22.9882 79.2361 22.0637C79.6682 21.1393 80.2713 20.4471 81.045 19.9923C81.8187 19.5375 82.7209 19.3101 83.7517 19.3101C84.9051 19.3101 85.9398 19.5671 86.8573 20.0813C87.7754 20.6004 88.5036 21.3271 89.0419 22.2664C89.5798 23.2057 89.8492 24.323 89.8492 25.6133C89.8492 26.8838 89.5798 27.9962 89.0419 28.9355C88.5036 29.8748 87.7754 30.6064 86.8573 31.1304C85.9398 31.6545 84.9051 31.9165 83.7517 31.9165ZM76.5171 31.7336V14.8509H80.0667V21.9698L79.8388 25.5886L79.9075 29.2321V31.7336H76.5171Z" fill="white"/>
<path d="M92.2156 31.7334V14.8507H95.7652V31.7334H92.2156Z" fill="white"/>
<path d="M105.139 31.9165C103.743 31.9165 102.518 31.6396 101.465 31.0958C100.41 30.552 99.5946 29.8055 99.0187 28.8563C98.4423 27.9071 98.1545 26.8245 98.1545 25.6133C98.1545 24.3823 98.4388 23.2947 99.0073 22.3455C99.5763 21.4012 100.353 20.6548 101.34 20.1159C102.325 19.577 103.44 19.3101 104.685 19.3101C105.883 19.3101 106.963 19.5622 107.927 20.0714C108.889 20.5806 109.652 21.3073 110.214 22.2565C110.775 23.2057 111.056 24.3378 111.056 25.6578C111.056 25.7962 111.048 25.9495 111.033 26.1225C111.017 26.3005 111.002 26.4636 110.987 26.6119H101.044V24.5405H109.122L107.756 25.1585C107.756 24.5207 107.627 23.9671 107.37 23.4974C107.111 23.0278 106.755 22.6569 106.3 22.3949C105.845 22.128 105.314 21.9945 104.707 21.9945C104.1 21.9945 103.565 22.128 103.103 22.3949C102.64 22.6569 102.28 23.0277 102.022 23.5073C101.764 23.9868 101.635 24.5504 101.635 25.203V25.7468C101.635 26.4142 101.784 27.0024 102.079 27.5116C102.375 28.0208 102.792 28.4065 103.331 28.6734C103.869 28.9404 104.503 29.0689 105.23 29.0689C105.883 29.0689 106.455 28.975 106.948 28.7773C107.441 28.5795 107.893 28.2829 108.302 27.8874L110.191 29.9341C109.629 30.5718 108.923 31.0612 108.075 31.4023C107.225 31.7435 106.246 31.9165 105.139 31.9165Z" fill="white"/>
<path d="M113.671 31.7334V15.8048H117.357V28.7276H125.344V31.7334H113.671Z" fill="white"/>
<path d="M127.163 31.7334V19.4928H130.712V31.7334H127.163ZM128.937 17.7823C128.284 17.7823 127.754 17.5945 127.345 17.2187C126.935 16.8381 126.73 16.3684 126.73 15.8048C126.73 15.2462 126.935 14.7765 127.345 14.3959C127.754 14.0152 128.284 13.8273 128.937 13.8273C129.589 13.8273 130.121 14.0053 130.53 14.3612C130.94 14.7172 131.144 15.177 131.144 15.7406C131.144 16.3288 130.943 16.8183 130.542 17.2039C130.139 17.5895 129.604 17.7823 128.937 17.7823Z" fill="white"/>
<path d="M141.452 19.3099C142.422 19.3099 143.291 19.5027 144.057 19.8883C144.823 20.2739 145.426 20.8672 145.866 21.6631C146.305 22.459 146.526 23.4824 146.526 24.7233V31.7334H142.977V25.272C142.977 24.2832 142.76 23.5565 142.328 23.0869C141.895 22.6172 141.285 22.3799 140.496 22.3799C139.934 22.3799 139.431 22.4986 138.984 22.7359C138.535 22.9682 138.187 23.3291 137.937 23.8136C137.686 24.2981 137.561 24.921 137.561 25.6823V31.7334H134.012V19.4928H137.402V22.8793L136.765 21.8559C137.204 21.0402 137.834 20.4074 138.653 19.9674C139.473 19.5274 140.405 19.3099 141.452 19.3099Z" fill="white"/>
<path d="M158.857 31.7334L154.716 26.592L156.946 23.8383L163.157 31.7334H158.857ZM152.668 29.2319L152.76 24.9062L158.471 19.4928H162.701L157.219 25.0643L155.376 26.5672L152.668 29.2319ZM149.733 31.7334V14.8507H153.282V31.7334H149.733Z" fill="white"/>
<path d="M179.061 32.0059C177.833 32.0059 176.69 31.8032 175.637 31.4027C174.582 31.0023 173.669 30.4288 172.895 29.6872C172.122 28.9408 171.518 28.0707 171.086 27.0671C170.654 26.0685 170.438 24.9661 170.438 23.7697C170.438 22.5733 170.654 21.4709 171.086 20.4722C171.518 19.4687 172.125 18.5986 172.907 17.8521C173.687 17.1105 174.601 16.537 175.648 16.1366C176.695 15.7362 177.839 15.5335 179.084 15.5335C180.464 15.5335 181.712 15.7708 182.827 16.2503C183.94 16.7298 184.878 17.4269 185.636 18.3563L183.271 20.5365C182.724 19.9185 182.117 19.4489 181.45 19.1374C180.782 18.8309 180.055 18.6727 179.266 18.6727C178.522 18.6727 177.839 18.7963 177.218 19.0386C176.596 19.2808 176.058 19.6268 175.603 20.0817C175.148 20.5365 174.795 21.0754 174.544 21.6983C174.294 22.3212 174.169 23.0133 174.169 23.7697C174.169 24.5261 174.294 25.2182 174.544 25.8411C174.795 26.464 175.148 27.0028 175.603 27.4577C176.058 27.9125 176.596 28.2585 177.218 28.5008C177.839 28.7479 178.522 28.8666 179.266 28.8666C180.055 28.8666 180.782 28.7133 181.45 28.4019C182.117 28.0904 182.724 27.6159 183.271 26.9781L185.636 29.1632C184.878 30.0877 183.94 30.7946 182.827 31.2791C181.712 31.7636 180.456 32.0059 179.061 32.0059Z" fill="white"/>
<path d="M195.283 31.7336V29.3458L195.056 28.8217V24.5405C195.056 23.7841 194.824 23.1958 194.362 22.7657C193.899 22.3455 193.19 22.1329 192.234 22.1329C191.582 22.1329 190.941 22.2318 190.312 22.4394C189.681 22.6421 189.147 22.919 188.708 23.27L187.434 20.7882C188.1 20.3186 188.905 19.9528 189.845 19.6957C190.785 19.4386 191.74 19.3101 192.712 19.3101C194.578 19.3101 196.026 19.7501 197.058 20.6301C198.089 21.51 198.606 22.8794 198.606 24.7481V31.7336H195.283ZM191.552 31.9165C190.596 31.9165 189.777 31.7533 189.094 31.4271C188.412 31.1008 187.888 30.6558 187.524 30.0923C187.16 29.5336 186.979 28.9058 186.979 28.2038C186.979 27.477 187.157 26.8393 187.513 26.2955C187.869 25.7468 188.434 25.3216 189.208 25.0102C189.982 24.6987 190.99 24.5405 192.234 24.5405H195.489V26.6119H192.621C191.786 26.6119 191.214 26.7503 190.903 27.0222C190.591 27.2942 190.437 27.6353 190.437 28.0456C190.437 28.5004 190.615 28.8613 190.972 29.1282C191.327 29.3952 191.817 29.5237 192.439 29.5237C193.031 29.5237 193.561 29.3853 194.032 29.1035C194.502 28.8267 194.843 28.4114 195.056 27.8627L195.602 29.504C195.344 30.29 194.874 30.8932 194.191 31.2985C193.509 31.7089 192.628 31.9165 191.552 31.9165Z" fill="white"/>
<path d="M201.813 31.7334V19.4928H205.204V22.9484L204.726 21.9498C205.09 21.0847 205.674 20.4272 206.478 19.9822C207.281 19.5324 208.26 19.3099 209.413 19.3099V22.5876C209.261 22.5727 209.125 22.5579 209.004 22.553C208.882 22.5431 208.754 22.5381 208.617 22.5381C207.645 22.5381 206.86 22.8199 206.262 23.3687C205.663 23.9224 205.363 24.7875 205.363 25.9542V31.7334H201.813Z" fill="white"/>
<path d="M217.489 31.9165C216.094 31.9165 214.869 31.6396 213.815 31.0958C212.76 30.552 211.944 29.8055 211.369 28.8563C210.792 27.9071 210.504 26.8245 210.504 25.6133C210.504 24.3823 210.789 23.2947 211.358 22.3455C211.926 21.4012 212.703 20.6548 213.69 20.1159C214.675 19.577 215.79 19.3101 217.035 19.3101C218.232 19.3101 219.313 19.5622 220.277 20.0714C221.239 20.5806 222.001 21.3073 222.564 22.2565C223.125 23.2057 223.405 24.3378 223.405 25.6578C223.405 25.7962 223.398 25.9495 223.383 26.1225C223.367 26.3005 223.352 26.4636 223.337 26.6119H213.394V24.5405H221.471L220.106 25.1585C220.106 24.5207 219.977 23.9671 219.719 23.4974C219.461 23.0278 219.105 22.6569 218.65 22.3949C218.195 22.128 217.664 21.9945 217.057 21.9945C216.45 21.9945 215.915 22.128 215.453 22.3949C214.99 22.6569 214.629 23.0277 214.372 23.5073C214.114 23.9868 213.986 24.5504 213.986 25.203V25.7468C213.986 26.4142 214.133 27.0024 214.429 27.5116C214.725 28.0208 215.141 28.4065 215.68 28.6734C216.219 28.9404 216.852 29.0689 217.581 29.0689C218.232 29.0689 218.805 28.975 219.299 28.7773C219.791 28.5795 220.243 28.2829 220.652 27.8874L222.541 29.9341C221.979 30.5718 221.274 31.0612 220.425 31.4023C219.575 31.7435 218.597 31.9165 217.489 31.9165Z" fill="white"/>
<path d="M92.0389 39.9156C92.4314 39.9156 92.7804 39.9947 93.0839 40.1529C93.388 40.3061 93.6278 40.5484 93.8023 40.8697C93.9773 41.191 94.0648 41.6063 94.0648 42.1106V44.9482H92.6281V42.3281C92.6281 41.9326 92.5451 41.636 92.379 41.4432C92.2139 41.2553 91.9795 41.1614 91.6789 41.1614C91.4698 41.1614 91.283 41.2059 91.1169 41.3047C90.9507 41.3987 90.8227 41.5421 90.7303 41.7299C90.6383 41.9227 90.5923 42.165 90.5923 42.4566V44.9482H89.1557V42.3281C89.1557 41.9326 89.0741 41.636 88.911 41.4432C88.7483 41.2553 88.5165 41.1614 88.2159 41.1614C88.0068 41.1614 87.8199 41.2059 87.6543 41.3047C87.4882 41.3987 87.3592 41.5421 87.2672 41.7299C87.1752 41.9227 87.1283 42.165 87.1283 42.4566V44.9482H85.6921V39.9897H87.065V41.3443L86.8064 40.9488C86.978 40.6127 87.2227 40.3556 87.5391 40.1776C87.8555 40.0045 88.2159 39.9156 88.6213 39.9156C89.0751 39.9156 89.4731 40.0293 89.8132 40.2616C90.1548 40.494 90.3798 40.845 90.49 41.3146L89.9838 41.1762C90.1499 40.7906 90.4149 40.4841 90.7817 40.2567C91.1465 40.0293 91.5652 39.9156 92.0389 39.9156Z" fill="#7FAE7A"/>
<path d="M99.3148 44.9479V43.9789L99.2229 43.7663V42.0361C99.2229 41.7295 99.1294 41.4873 98.9421 41.3142C98.7542 41.1462 98.4675 41.0572 98.0804 41.0572C97.8169 41.0572 97.5573 41.1017 97.3027 41.1808C97.0477 41.2648 96.8306 41.3785 96.6531 41.517L96.1375 40.5134C96.4074 40.3255 96.7327 40.1772 97.1134 40.0734C97.4936 39.9696 97.8817 39.9152 98.2742 39.9152C99.0296 39.9152 99.6154 40.0932 100.034 40.4491C100.451 40.805 100.66 41.3637 100.66 42.1151V44.9479H99.3148ZM97.804 45.0171C97.4174 45.0171 97.0862 44.9528 96.8099 44.8193C96.5335 44.6908 96.3204 44.5079 96.1736 44.2805C96.0263 44.0531 95.9531 43.801 95.9531 43.5192C95.9531 43.2225 96.0248 42.9655 96.1697 42.743C96.314 42.5255 96.5424 42.3475 96.8553 42.2239C97.1683 42.1003 97.5766 42.0361 98.0804 42.0361H99.3979V42.8715H98.2376C97.8999 42.8715 97.6676 42.9309 97.5415 43.0396C97.4165 43.1484 97.3527 43.2868 97.3527 43.4549C97.3527 43.6378 97.4254 43.7861 97.5697 43.8899C97.7131 43.9987 97.9113 44.0531 98.1634 44.0531C98.4027 44.0531 98.6178 43.9937 98.8086 43.88C98.9989 43.7663 99.1364 43.6032 99.2229 43.3807L99.4439 44.0432C99.3391 44.3596 99.1487 44.6018 98.8724 44.7699C98.596 44.938 98.2401 45.0171 97.804 45.0171Z" fill="#7FAE7A"/>
<path d="M106.575 44.9482L104.898 42.862L105.801 41.7497L108.315 44.9482H106.575ZM104.068 43.9348L104.106 42.1847L106.418 39.9897H108.131L105.911 42.249L105.165 42.8571L104.068 43.9348ZM102.881 44.9482V38.1111H104.317V44.9482H102.881Z" fill="#7FAE7A"/>
<path d="M109.881 44.9482V39.9897H111.318V44.9482H109.881ZM110.6 39.2976C110.334 39.2976 110.121 39.2235 109.955 39.0702C109.789 38.917 109.706 38.7241 109.706 38.4967C109.706 38.2693 109.789 38.0815 109.955 37.9282C110.121 37.7749 110.334 37.6958 110.6 37.6958C110.864 37.6958 111.078 37.77 111.244 37.9134C111.41 38.0567 111.493 38.2446 111.493 38.472C111.493 38.7093 111.411 38.907 111.248 39.0652C111.085 39.2234 110.869 39.2976 110.6 39.2976Z" fill="#7FAE7A"/>
<path d="M116.587 39.9156C116.98 39.9156 117.331 39.9947 117.642 40.1529C117.952 40.3061 118.196 40.5484 118.373 40.8697C118.552 41.191 118.641 41.6063 118.641 42.1106V44.9482H117.204V42.3281C117.204 41.9326 117.116 41.636 116.941 41.4432C116.767 41.2553 116.519 41.1614 116.201 41.1614C115.973 41.1614 115.768 41.2059 115.587 41.3047C115.406 41.3987 115.265 41.5421 115.164 41.7398C115.063 41.9376 115.012 42.1897 115.012 42.4962V44.9482H113.574V39.9897H114.947V41.3641L114.69 40.9488C114.867 40.6176 115.122 40.3605 115.454 40.1826C115.785 40.0046 116.162 39.9156 116.587 39.9156Z" fill="#7FAE7A"/>
<path d="M123.292 43.5294C123.544 43.5294 123.768 43.4751 123.965 43.3762C124.162 43.2724 124.316 43.1339 124.426 42.9461C124.536 42.7632 124.592 42.5506 124.592 42.3133C124.592 42.0661 124.536 41.8535 124.426 41.6706C124.316 41.4877 124.162 41.3493 123.965 41.2455C123.768 41.1466 123.544 41.0972 123.292 41.0972C123.042 41.0972 122.817 41.1466 122.62 41.2455C122.424 41.3493 122.269 41.4877 122.155 41.6706C122.041 41.8535 121.985 42.0661 121.985 42.3133C121.985 42.5506 122.041 42.7632 122.155 42.9461C122.269 43.1339 122.424 43.2724 122.62 43.3762C122.817 43.4751 123.042 43.5294 123.292 43.5294ZM123.229 46.8071C122.761 46.8071 122.312 46.7527 121.878 46.639C121.446 46.5204 121.086 46.3523 120.797 46.1249L121.368 45.0917C121.576 45.2647 121.842 45.4031 122.164 45.502C122.487 45.6058 122.805 45.6552 123.118 45.6552C123.627 45.6552 123.998 45.5415 124.228 45.3141C124.458 45.0867 124.574 44.7505 124.574 44.3007V43.5541L124.666 42.3133L124.647 41.0576V39.9898H126.01V44.1177C126.01 45.0373 125.771 45.7146 125.292 46.1546C124.813 46.5896 124.125 46.8071 123.229 46.8071ZM123.007 44.7061C122.547 44.7061 122.132 44.6072 121.759 44.4045C121.387 44.2067 121.09 43.9299 120.866 43.569C120.642 43.2081 120.53 42.7879 120.53 42.3133C120.53 41.8288 120.642 41.4036 120.866 41.0428C121.09 40.6868 121.387 40.41 121.759 40.2122C122.132 40.0145 122.547 39.9156 123.007 39.9156C123.425 39.9156 123.793 39.9996 124.113 40.1677C124.431 40.3358 124.681 40.5978 124.859 40.9538C125.037 41.3048 125.125 41.7596 125.125 42.3133C125.125 42.8571 125.037 43.307 124.859 43.658C124.681 44.0139 124.431 44.2759 124.113 44.449C123.793 44.622 123.425 44.7061 123.007 44.7061Z" fill="#7FAE7A"/>
<path d="M131.796 44.9482V38.1111H133.233V44.9482H131.796Z" fill="#7FAE7A"/>
<path d="M135.489 44.9482V39.9897H136.926V44.9482H135.489ZM136.209 39.2976C135.944 39.2976 135.73 39.2235 135.564 39.0702C135.398 38.917 135.315 38.7241 135.315 38.4967C135.315 38.2693 135.398 38.0815 135.564 37.9282C135.73 37.7749 135.944 37.6958 136.209 37.6958C136.473 37.6958 136.688 37.77 136.853 37.9134C137.019 38.0567 137.102 38.2446 137.102 38.472C137.102 38.7093 137.02 38.907 136.857 39.0652C136.694 39.2234 136.478 39.2976 136.209 39.2976Z" fill="#7FAE7A"/>
<path d="M140.527 44.9482L138.446 39.9897H139.929L141.66 44.2561H140.923L142.719 39.9897H144.102L142.011 44.9482H140.527Z" fill="#7FAE7A"/>
<path d="M147.935 45.0171C147.37 45.0171 146.874 44.9083 146.447 44.6859C146.02 44.4683 145.69 44.1618 145.457 43.7812C145.224 43.3956 145.106 42.9605 145.106 42.4661C145.106 41.9717 145.222 41.5269 145.453 41.1462C145.682 40.7606 145.997 40.459 146.397 40.2415C146.796 40.0239 147.247 39.9152 147.75 39.9152C148.235 39.9152 148.673 40.019 149.063 40.2266C149.452 40.4293 149.762 40.726 149.988 41.1116C150.216 41.4922 150.33 41.952 150.33 42.4859C150.33 42.5403 150.326 42.6045 150.321 42.6738C150.315 42.743 150.308 42.8122 150.302 42.8715H146.276V42.0361H149.547L148.994 42.2832C148.994 42.0262 148.942 41.7987 148.837 41.6109C148.733 41.423 148.589 41.2698 148.404 41.1659C148.22 41.0572 148.005 41.0028 147.76 41.0028C147.514 41.0028 147.298 41.0572 147.11 41.1659C146.922 41.2698 146.776 41.423 146.673 41.6158C146.568 41.8086 146.516 42.036 146.516 42.303V42.5254C146.516 42.7924 146.577 43.0297 146.696 43.2374C146.815 43.445 146.984 43.5982 147.203 43.707C147.421 43.8158 147.677 43.8701 147.971 43.8701C148.235 43.8701 148.467 43.8306 148.667 43.7466C148.867 43.6675 149.05 43.5488 149.215 43.3906L149.979 44.2162C149.753 44.4733 149.467 44.6759 149.122 44.8144C148.779 44.9478 148.383 45.0171 147.935 45.0171Z" fill="#7FAE7A"/>
<path d="M153.876 45.0171C153.451 45.0171 153.044 44.9677 152.655 44.8688C152.265 44.765 151.956 44.6364 151.729 44.4832L152.208 43.4549C152.435 43.5933 152.704 43.7119 153.014 43.8009C153.324 43.8899 153.63 43.9344 153.93 43.9344C154.263 43.9344 154.497 43.8899 154.636 43.8108C154.773 43.7317 154.843 43.6229 154.843 43.4796C154.843 43.3659 154.788 43.2769 154.681 43.2176C154.575 43.1582 154.431 43.1137 154.253 43.0841C154.075 43.0544 153.88 43.0248 153.668 42.9902C153.456 42.9605 153.242 42.921 153.028 42.8666C152.813 42.8171 152.616 42.738 152.437 42.6342C152.26 42.5304 152.117 42.3871 152.01 42.2091C151.902 42.0311 151.849 41.7988 151.849 41.517C151.849 41.2055 151.94 40.9287 152.121 40.6914C152.301 40.4491 152.564 40.2613 152.908 40.1228C153.252 39.9844 153.663 39.9152 154.142 39.9152C154.48 39.9152 154.825 39.9547 155.174 40.024C155.524 40.0981 155.815 40.2069 156.049 40.3502L155.57 41.3687C155.331 41.2302 155.09 41.1313 154.847 41.0819C154.604 41.0275 154.37 41.0028 154.142 41.0028C153.823 41.0028 153.59 41.0473 153.442 41.1313C153.295 41.2203 153.222 41.3291 153.222 41.4626C153.222 41.5861 153.275 41.6801 153.382 41.7394C153.49 41.7988 153.632 41.8482 153.811 41.8877C153.988 41.9223 154.184 41.9569 154.396 41.9816C154.607 42.0113 154.821 42.0558 155.036 42.1102C155.251 42.1646 155.446 42.2436 155.621 42.3425C155.796 42.4463 155.939 42.5848 156.049 42.7578C156.161 42.9308 156.215 43.1632 156.215 43.445C156.215 43.7515 156.123 44.0234 155.939 44.2607C155.754 44.498 155.489 44.6809 155.142 44.8193C154.795 44.9528 154.373 45.0171 153.876 45.0171Z" fill="#7FAE7A"/>
<path d="M164.23 43.8405C164.47 43.8405 164.682 43.7861 164.87 43.6724C165.058 43.5636 165.208 43.4055 165.322 43.1978C165.435 42.9951 165.492 42.7479 165.492 42.4661C165.492 42.1794 165.435 41.9322 165.322 41.7295C165.208 41.5268 165.058 41.3686 164.87 41.2599C164.682 41.1511 164.47 41.0968 164.23 41.0968C163.991 41.0968 163.776 41.1511 163.584 41.2599C163.395 41.3686 163.245 41.5268 163.134 41.7295C163.023 41.9322 162.968 42.1794 162.968 42.4661C162.968 42.7479 163.023 42.9951 163.134 43.1978C163.245 43.4055 163.395 43.5636 163.584 43.6724C163.776 43.7861 163.991 43.8405 164.23 43.8405ZM164.479 45.0171C164.042 45.0171 163.667 44.9281 163.355 44.7452C163.042 44.5573 162.802 44.2755 162.636 43.8998C162.471 43.5241 162.388 43.0445 162.388 42.4661C162.388 41.8828 162.476 41.4032 162.651 41.0324C162.825 40.6567 163.069 40.3749 163.382 40.192C163.696 40.0091 164.061 39.9152 164.479 39.9152C164.945 39.9152 165.364 40.019 165.736 40.2266C166.108 40.4392 166.403 40.7309 166.62 41.1165C166.838 41.4922 166.948 41.947 166.948 42.4661C166.948 42.9852 166.838 43.4301 166.62 43.8108C166.403 44.1915 166.108 44.4881 165.736 44.7007C165.364 44.9133 164.945 45.0171 164.479 45.0171ZM161.549 44.9479V38.1107H162.986V40.9929L162.894 42.4563L162.921 43.9344V44.9479H161.549Z" fill="#7FAE7A"/>
<path d="M171.285 45.0171C170.72 45.0171 170.224 44.9083 169.798 44.6859C169.37 44.4683 169.041 44.1618 168.808 43.7812C168.574 43.3956 168.457 42.9605 168.457 42.4661C168.457 41.9717 168.572 41.5269 168.803 41.1462C169.033 40.7606 169.348 40.459 169.747 40.2415C170.147 40.0239 170.597 39.9152 171.101 39.9152C171.586 39.9152 172.024 40.019 172.414 40.2266C172.803 40.4293 173.113 40.726 173.339 41.1116C173.567 41.4922 173.68 41.952 173.68 42.4859C173.68 42.5403 173.677 42.6045 173.671 42.6738C173.665 42.743 173.659 42.8122 173.653 42.8715H169.626V42.0361H172.897L172.344 42.2832C172.344 42.0262 172.293 41.7987 172.188 41.6109C172.084 41.423 171.94 41.2698 171.756 41.1659C171.571 41.0572 171.356 41.0028 171.11 41.0028C170.864 41.0028 170.648 41.0572 170.461 41.1659C170.273 41.2698 170.127 41.423 170.024 41.6158C169.919 41.8086 169.867 42.036 169.867 42.303V42.5254C169.867 42.7924 169.927 43.0297 170.047 43.2374C170.166 43.445 170.334 43.5982 170.553 43.707C170.771 43.8158 171.027 43.8701 171.322 43.8701C171.586 43.8701 171.818 43.8306 172.018 43.7466C172.217 43.6675 172.4 43.5488 172.565 43.3906L173.33 44.2162C173.103 44.4733 172.818 44.6759 172.473 44.8144C172.129 44.9478 171.734 45.0171 171.285 45.0171Z" fill="#7FAE7A"/>
<path d="M177.586 45.0171C177.003 45.0171 176.548 44.8688 176.223 44.5722C175.898 44.2755 175.735 43.8306 175.735 43.2423V38.8918H177.172V43.2225C177.172 43.4302 177.227 43.5933 177.338 43.707C177.448 43.8207 177.598 43.8751 177.789 43.8751C178.016 43.8751 178.209 43.8158 178.37 43.6922L178.757 44.7056C178.609 44.8095 178.433 44.8886 178.227 44.9429C178.02 44.9924 177.808 45.0171 177.586 45.0171ZM174.971 41.2055V40.0981H178.407V41.2055H174.971Z" fill="#7FAE7A"/>
<path d="M182.404 45.0171C181.82 45.0171 181.366 44.8688 181.041 44.5722C180.716 44.2755 180.553 43.8306 180.553 43.2423V38.8918H181.99V43.2225C181.99 43.4302 182.046 43.5933 182.156 43.707C182.266 43.8207 182.416 43.8751 182.607 43.8751C182.834 43.8751 183.027 43.8158 183.188 43.6922L183.575 44.7056C183.427 44.8095 183.251 44.8886 183.045 44.9429C182.839 44.9924 182.626 45.0171 182.404 45.0171ZM179.789 41.2055V40.0981H183.224V41.2055H179.789Z" fill="#7FAE7A"/>
<path d="M187.609 45.0171C187.043 45.0171 186.548 44.9083 186.121 44.6859C185.694 44.4683 185.364 44.1618 185.131 43.7812C184.898 43.3956 184.78 42.9605 184.78 42.4661C184.78 41.9717 184.895 41.5269 185.126 41.1462C185.356 40.7606 185.671 40.459 186.071 40.2415C186.47 40.0239 186.92 39.9152 187.425 39.9152C187.909 39.9152 188.347 40.019 188.737 40.2266C189.126 40.4293 189.436 40.726 189.662 41.1116C189.89 41.4922 190.004 41.952 190.004 42.4859C190.004 42.5403 190 42.6045 189.994 42.6738C189.988 42.743 189.982 42.8122 189.976 42.8715H185.95V42.0361H189.221L188.668 42.2832C188.668 42.0262 188.616 41.7987 188.511 41.6109C188.407 41.423 188.263 41.2698 188.079 41.1659C187.894 41.0572 187.679 41.0028 187.434 41.0028C187.187 41.0028 186.972 41.0572 186.784 41.1659C186.596 41.2698 186.45 41.423 186.347 41.6158C186.242 41.8086 186.19 42.036 186.19 42.303V42.5254C186.19 42.7924 186.251 43.0297 186.37 43.2374C186.489 43.445 186.657 43.5982 186.876 43.707C187.094 43.8158 187.35 43.8701 187.645 43.8701C187.909 43.8701 188.141 43.8306 188.341 43.7466C188.54 43.6675 188.724 43.5488 188.888 43.3906L189.653 44.2162C189.427 44.4733 189.141 44.6759 188.796 44.8144C188.453 44.9478 188.057 45.0171 187.609 45.0171Z" fill="#7FAE7A"/>
<path d="M191.884 44.9482V39.9897H193.255V41.3888L193.062 40.9834C193.209 40.6373 193.446 40.3704 193.772 40.1875C194.097 40.0095 194.493 39.9156 194.96 39.9156V41.2405C194.898 41.2355 194.843 41.2306 194.794 41.2306C194.744 41.2256 194.693 41.2257 194.638 41.2257C194.244 41.2257 193.926 41.3344 193.684 41.5618C193.442 41.7843 193.32 42.1353 193.32 42.605V44.9482H191.884Z" fill="#7FAE7A"/>
<path d="M44.537 19.6315V34.0078C44.2809 38.9465 42.1372 43.7814 38.1765 47.3458C34.7628 50.3961 30.5573 52.0176 26.3052 52.2154C25.9906 52.2401 25.6762 52.25 25.3615 52.25H25.1401C24.814 52.25 24.511 52.2401 24.1964 52.2154C19.9443 52.0176 15.7388 50.3961 12.3256 47.3458C8.36442 43.7814 6.22108 38.9465 5.9646 34.0078V19.6315L25.245 6.84217L44.537 19.6315Z" fill="#7FAE7A"/>
<path d="M46.283 32.0396C46.2035 30.339 45.9333 28.6977 45.4787 27.1602L45.4297 26.9971L45.3659 26.8636L45.3548 26.8685C44.9446 25.9341 43.874 24.7625 42.5004 24.7625C42.1976 24.7625 41.8797 24.8119 41.5716 24.9404C41.4459 24.7378 41.3131 24.5746 41.1852 24.4362C40.6731 23.8974 40.0088 23.6007 39.3136 23.6007C38.5315 23.6007 37.8154 23.9715 37.3477 24.629C37.0213 25.0888 36.7595 25.6623 36.5376 26.3049C36.1695 26.0924 35.7642 25.9638 35.342 25.9638C34.5889 25.9638 33.8989 26.3247 33.4433 26.9575C32.8198 27.8276 32.4471 29.0734 32.1889 30.6356C31.9786 30.5713 31.7633 30.5268 31.5412 30.5268C30.7988 30.5268 30.1212 30.8828 29.6879 31.4958C28.5947 33.0234 28.3146 35.6386 28.0395 39.1585L27.9871 39.7962C27.0963 40.1176 26.1805 40.4587 25.2459 40.8394C24.3141 40.4637 23.4016 40.1176 22.5143 39.7962L22.4619 39.1585C22.1866 35.6386 21.9066 33.0234 20.8184 31.5057C20.3798 30.8828 19.7026 30.5268 18.9602 30.5268C18.738 30.5268 18.5223 30.5713 18.3118 30.6356C18.0532 29.0734 17.6789 27.8276 17.0523 26.9476C16.6023 26.3247 15.9123 25.9638 15.1594 25.9638C14.7369 25.9638 14.3316 26.0924 13.9632 26.3049C13.7414 25.6623 13.4788 25.0838 13.1516 24.6241C12.6858 23.9715 11.9698 23.6007 11.1875 23.6007C10.4924 23.6007 9.82795 23.8974 9.31617 24.4362C9.18833 24.5746 9.05549 24.7378 8.92977 24.9404C8.62173 24.8119 8.3041 24.7625 8.00165 24.7625C6.62151 24.7625 5.55046 25.9391 5.143 26.8784L5.13589 26.8735L5.06692 27.0119L5.02307 27.1602C4.56851 28.6977 4.29834 30.339 4.21704 32.1187L4.21917 34.0962C4.51115 39.7122 6.97469 44.8784 11.161 48.6504C14.7429 51.8539 19.3436 53.7375 24.0706 53.9599C24.072 53.9599 24.0731 53.9599 24.0745 53.9599C24.0772 53.9599 24.0803 53.9599 24.0831 53.9599C24.1351 53.9599 24.189 53.96 24.2411 53.9649C24.5383 53.9847 24.8297 53.9995 25.1406 53.9995H25.2567H25.3612C25.7185 53.9995 26.0742 53.9846 26.387 53.9599C26.3891 53.9599 26.3912 53.9599 26.3934 53.9599C26.399 53.9599 26.4044 53.9599 26.4096 53.9599C26.4221 53.9599 26.4349 53.955 26.4475 53.955C31.1971 53.7177 35.7744 51.8391 39.3451 48.6455C43.5271 44.8784 45.9909 39.7122 46.2848 34.0072L46.283 32.0396Z" fill="#7FAE7A"/>
<path d="M10.0471 27.8132C10.1182 29.237 10.2553 32.2082 10.5297 34.8926C10.5616 35.0261 10.5809 35.1595 10.6062 35.2881C10.6406 35.0162 10.6941 34.764 10.7432 34.5366C10.8538 34.0917 11.1777 33.7457 11.6237 33.6072C12.0631 33.4688 12.5402 33.5726 12.8751 33.8692C12.991 33.9731 13.0833 34.0917 13.1522 34.235C13.2334 34.3784 13.3218 34.5416 13.4359 34.7245C13.1856 31.4666 12.9166 27.3089 11.7298 25.6429C11.2193 24.9261 9.91915 25.46 10.0471 27.8132Z" fill="white"/>
<path d="M14.1586 29.8747C14.2278 31.1452 14.3479 33.8099 14.5937 36.1927C14.8863 36.4992 15.2289 36.8304 15.6342 37.1963C15.9756 37.5028 16.3611 37.834 16.8029 38.185C16.9624 38.3037 17.1409 38.4272 17.3247 38.5459C16.9497 35.7033 16.9943 29.8747 15.6354 27.9714C15.1848 27.3435 14.0464 27.8132 14.1586 29.8747Z" fill="white"/>
<path d="M18.0583 34.2353C18.1126 35.2339 18.2016 37.2065 18.3791 39.1197C19.0835 39.4657 19.9029 39.7821 20.7843 40.1084C20.5686 37.4833 20.3859 33.904 19.3917 32.5149C18.9871 31.9414 17.9567 32.3665 18.0583 34.2353Z" fill="white"/>
<path d="M34.1804 50.0006C31.7222 51.3058 29.0312 52.0522 26.3052 52.2154C25.9557 52.2401 25.6061 52.25 25.2566 52.25H25.1401C24.814 52.25 24.511 52.2401 24.1964 52.2154C19.9443 52.0176 15.7388 50.3961 12.3256 47.3458C8.36442 43.7814 6.22108 38.9465 5.9646 34.0078V32.1193C6.0345 30.6164 6.2676 29.1135 6.69844 27.6601C6.71021 27.6353 6.72183 27.6106 6.73339 27.5859L6.71021 27.67C6.93173 26.9482 8.93546 24.7927 9.01679 29.2519C9.11022 33.6914 10.2517 39.609 12.9196 42.0116C15.5874 44.4093 18.6046 44.1077 18.6046 44.1077C18.6046 44.1077 16.0884 43.2228 13.9564 41.3096C11.1488 38.7933 11.242 36.1731 11.5797 34.7394C11.6846 34.3588 12.2089 34.2846 12.3953 34.6356C12.9312 35.6738 13.9097 36.9789 16.2632 38.8625C18.1734 40.3802 21.6917 41.2058 25.245 42.7235C28.6235 44.1423 32.0252 46.1791 34.1804 50.0006Z" fill="white"/>
<path d="M46.1665 32.0446C46.0879 30.3538 45.8189 28.7175 45.3666 27.1948L45.3178 27.0317L45.2581 26.9081L45.2442 26.913C44.869 26.0825 43.8524 24.8812 42.5003 24.8812C42.182 24.8812 41.8466 24.9405 41.5244 25.0937C41.3879 24.8614 41.2417 24.6686 41.1004 24.5153C40.6106 24.0012 39.9764 23.7144 39.3135 23.7144C38.5696 23.7144 37.8881 24.0704 37.4428 24.6933C37.0996 25.1778 36.8241 25.7858 36.5971 26.473C36.2173 26.2209 35.788 26.0825 35.3419 26.0825C34.627 26.0825 33.971 26.4236 33.5382 27.0218C32.9085 27.9067 32.5385 29.1822 32.283 30.7889C32.0445 30.6999 31.7966 30.6455 31.5411 30.6455C30.8368 30.6455 30.1945 30.9817 29.7822 31.565C28.7066 33.0679 28.4294 35.6634 28.1552 39.1684L28.0971 39.8803C26.9688 40.2857 25.8081 40.7109 24.6104 41.2151C21.667 42.4609 17.4583 44.6411 14.8984 49.2041L14.0823 50.6576L15.5567 51.4387C18.1823 52.8377 21.1365 53.6683 24.0904 53.8413C24.4749 53.866 24.8595 53.8809 25.2566 53.8809H25.3611C25.7154 53.8809 26.0688 53.866 26.3811 53.8462C31.1263 53.6238 35.7009 51.7452 39.2669 48.5565C43.4256 44.8141 45.8759 39.6776 46.168 34.0072L46.1665 32.0446Z" fill="#7FAE7A"/>
<path d="M40.4537 27.8132C40.3827 29.237 40.2458 32.2082 39.9711 34.8926C39.9395 35.0261 39.9202 35.1595 39.8947 35.2881C39.8605 35.0162 39.8068 34.764 39.758 34.5366C39.6473 34.0917 39.3235 33.7457 38.8771 33.6072C38.438 33.4688 37.9606 33.5726 37.626 33.8692C37.5101 33.9731 37.4178 34.0917 37.3487 34.235C37.2678 34.3784 37.1791 34.5416 37.0652 34.7245C37.3155 31.4666 37.5845 27.3089 38.7714 25.6429C39.2815 24.9261 40.582 25.46 40.4537 27.8132Z" fill="white"/>
<path d="M36.3426 29.8747C36.2736 31.1452 36.1534 33.8099 35.9077 36.1927C35.6151 36.4992 35.2725 36.8304 34.867 37.1963C34.5258 37.5028 34.1401 37.834 33.6985 38.185C33.539 38.3037 33.3606 38.4272 33.1765 38.5459C33.5517 35.7033 33.5071 29.8747 34.8661 27.9714C35.3166 27.3435 36.455 27.8132 36.3426 29.8747Z" fill="white"/>
<path d="M32.4432 34.2353C32.3888 35.2339 32.2998 37.2065 32.1225 39.1197C31.418 39.4657 30.5985 39.7821 29.717 40.1084C29.933 37.4833 30.1153 33.904 31.1096 32.5149C31.5144 31.9414 32.5448 32.3665 32.4432 34.2353Z" fill="white"/>
<path d="M44.537 32.1193V34.0078C44.2809 38.9465 42.1372 43.7814 38.1765 47.3458C34.7628 50.3961 30.5573 52.0176 26.3052 52.2154C25.9906 52.2401 25.6762 52.25 25.3615 52.25H25.2566C24.8955 52.25 24.546 52.2401 24.1964 52.2154C21.4704 52.0522 18.7794 51.3058 16.3213 50.0006C18.4648 46.1791 21.8781 44.1423 25.245 42.7235C28.8099 41.2058 32.3282 40.3802 34.2387 38.8625C36.592 36.9789 37.5705 35.6738 38.1064 34.6356C38.2927 34.2846 38.817 34.3588 38.9219 34.7394C39.2598 36.1731 39.3529 38.7933 36.5452 41.3096C34.4132 43.2228 31.897 44.1077 31.897 44.1077C31.897 44.1077 34.9144 44.4093 37.5822 42.0116C40.2499 39.609 41.3918 33.6914 41.4848 29.2519C41.5666 24.7927 43.5699 26.9482 43.7914 27.67L43.7446 27.5167C43.7682 27.576 43.7798 27.6106 43.8032 27.6601C44.234 29.1135 44.4673 30.6164 44.537 32.1193Z" fill="white"/>
<path d="M50.5018 16.7293V20.9216L25.2567 4.19214L0 20.9463V16.7392L25.2567 -0.000146866L50.5018 16.7293Z" fill="#7FAE7A"/>
<path d="M24.2656 20.689H20.0725V16.4967H24.2656V20.689Z" fill="white"/>
<path d="M30.4292 20.689H26.2361V16.4967H30.4292V20.689Z" fill="white"/>
<path d="M24.2656 26.854H20.0725V22.6618H24.2656V26.854Z" fill="white"/>
<path d="M30.4292 26.854H26.2361V22.6618H30.4292V26.854Z" fill="white"/>
</svg>
