<svg width="159" height="39" viewBox="0 0 159 39" fill="none" xmlns="http://www.w3.org/2000/svg">
<path d="M43.2684 20.1538L43.9651 18.1624H49.7945L50.507 20.1538H43.2684ZM40.7425 22.5851L45.7951 11.2485H48.3854L53.4541 22.5851H50.7012L46.5558 12.575H47.5919L43.4306 22.5851H40.7425Z" fill="#5A295B"/>
<path d="M59.1699 20.6429C59.591 20.6429 59.9661 20.5444 60.2951 20.3509C60.6244 20.1539 60.889 19.8794 61.0889 19.517C61.2883 19.1546 61.3883 18.7254 61.3883 18.2293C61.3883 17.7226 61.2883 17.2898 61.0889 16.9345C60.889 16.5756 60.6244 16.3012 60.2951 16.1076C59.9661 15.9141 59.591 15.8156 59.1699 15.8156C58.7487 15.8156 58.3712 15.9141 58.0369 16.1076C57.702 16.3012 57.4374 16.5756 57.2432 16.9345C57.0489 17.2898 56.9518 17.7226 56.9518 18.2293C56.9518 18.7254 57.0489 19.1546 57.2432 19.517C57.4374 19.8794 57.702 20.1539 58.0369 20.3509C58.3712 20.5444 58.7487 20.6429 59.1699 20.6429ZM59.6069 22.7153C58.8409 22.7153 58.1826 22.5535 57.6319 22.2298C57.0813 21.9026 56.6601 21.41 56.3688 20.745C56.0771 20.0835 55.9315 19.2426 55.9315 18.2293C55.9315 17.2019 56.0852 16.361 56.3931 15.703C56.7006 15.0451 57.1299 14.5525 57.6805 14.2288C58.2311 13.9051 58.8733 13.7432 59.6069 13.7432C60.4277 13.7432 61.1641 13.9262 61.8172 14.2921C62.4706 14.6615 62.9888 15.1787 63.372 15.8473C63.7548 16.5158 63.9466 17.311 63.9466 18.2293C63.9466 19.1335 63.7548 19.9252 63.372 20.5937C62.9888 21.2622 62.4706 21.7829 61.8172 22.1559C61.1641 22.5288 60.4277 22.7153 59.6069 22.7153ZM54.4579 22.5851V10.5695H56.9842V15.6361L56.822 18.2117L56.8709 20.8048V22.5851H54.4579Z" fill="#5A295B"/>
<path d="M65.6308 22.5851V10.5695H68.1571V22.5851H65.6308Z" fill="#5A295B"/>
<path d="M74.8288 22.7153C73.8352 22.7153 72.9633 22.5183 72.2135 22.1312C71.4631 21.7442 70.8825 21.2129 70.4726 20.5374C70.0624 19.8618 69.8576 19.0913 69.8576 18.2293C69.8576 17.3532 70.0599 16.5791 70.4645 15.9035C70.8695 15.2315 71.4226 14.7002 72.1245 14.3167C72.8258 13.9332 73.6192 13.7432 74.5051 13.7432C75.3577 13.7432 76.1268 13.9226 76.8126 14.285C77.4976 14.6474 78.0401 15.1647 78.4402 15.8402C78.8395 16.5158 79.0394 17.3215 79.0394 18.2609C79.0394 18.3594 79.0338 18.4685 79.0232 18.5917C79.0119 18.7183 79.0014 18.8345 78.9908 18.94H71.9141V17.4658H77.663L76.6912 17.9056C76.6912 17.4517 76.599 17.0576 76.416 16.7234C76.232 16.3891 75.9787 16.1252 75.655 15.9387C75.3309 15.7487 74.9527 15.6537 74.5213 15.6537C74.0889 15.6537 73.7086 15.7487 73.3796 15.9387C73.0499 16.1252 72.7934 16.3891 72.6104 16.7304C72.4264 17.0717 72.3349 17.4728 72.3349 17.9372V18.3243C72.3349 18.7993 72.4405 19.2179 72.6509 19.5803C72.8613 19.9428 73.1579 20.2172 73.5414 20.4072C73.9246 20.5972 74.3757 20.6887 74.8936 20.6887C75.3577 20.6887 75.7651 20.6218 76.1162 20.4811C76.467 20.3404 76.7883 20.1293 77.08 19.8478L78.424 21.3044C78.024 21.7583 77.5219 22.1066 76.9181 22.3494C76.3129 22.5922 75.6166 22.7153 74.8288 22.7153Z" fill="#5A295B"/>
<path d="M80.9007 22.5851V11.2485H83.5244V20.4459H89.2085V22.5851H80.9007Z" fill="#5A295B"/>
<path d="M90.5029 22.5851V13.8733H93.0292V22.5851H90.5029ZM91.7661 12.6559C91.3013 12.6559 90.9241 12.5223 90.6328 12.2548C90.3411 11.9839 90.1951 11.6497 90.1951 11.2485C90.1951 10.851 90.3411 10.5167 90.6328 10.2458C90.9241 9.97486 91.3013 9.84115 91.7661 9.84115C92.2302 9.84115 92.6084 9.96781 92.8997 10.2211C93.1911 10.4745 93.3367 10.8017 93.3367 11.2028C93.3367 11.6215 93.1935 11.9698 92.9078 12.2443C92.6211 12.5187 92.2407 12.6559 91.7661 12.6559Z" fill="#5A295B"/>
<path d="M100.673 13.7432C101.363 13.7432 101.981 13.8804 102.527 14.1548C103.072 14.4293 103.501 14.8515 103.814 15.4179C104.127 15.9844 104.284 16.7128 104.284 17.5959V22.5851H101.758V17.9864C101.758 17.2827 101.604 16.7655 101.296 16.4313C100.988 16.097 100.554 15.9281 99.9926 15.9281C99.5926 15.9281 99.234 16.0126 98.916 16.1815C98.5965 16.3468 98.3488 16.6037 98.1708 16.9485C97.9927 17.2933 97.9037 17.7366 97.9037 18.2785V22.5851H95.3774V13.8733H97.7901V16.2835L97.3369 15.5552C97.6493 14.9746 98.0979 14.5243 98.6809 14.2111C99.2639 13.898 99.9279 13.7432 100.673 13.7432Z" fill="#5A295B"/>
<path d="M113.06 22.5851L110.113 18.9259L111.7 16.9661L116.12 22.5851H113.06ZM108.655 20.8047L108.721 17.7261L112.785 13.8733H115.796L111.894 17.8386L110.583 18.9083L108.655 20.8047ZM106.567 22.5851V10.5695H109.092V22.5851H106.567Z" fill="#5A295B"/>
<path d="M127.44 22.7786C126.565 22.7786 125.752 22.6344 125.002 22.3494C124.252 22.0644 123.602 21.6562 123.051 21.1284C122.501 20.5972 122.071 19.9779 121.764 19.2637C121.456 18.5529 121.302 17.7683 121.302 16.9169C121.302 16.0654 121.456 15.2808 121.764 14.57C122.071 13.8558 122.503 13.2365 123.059 12.7052C123.615 12.1775 124.266 11.7693 125.011 11.4843C125.756 11.1993 126.57 11.0551 127.456 11.0551C128.438 11.0551 129.326 11.2239 130.12 11.5652C130.912 11.9065 131.58 12.4027 132.119 13.0641L130.436 14.6158C130.047 14.176 129.615 13.8417 129.14 13.62C128.665 13.4019 128.147 13.2893 127.585 13.2893C127.056 13.2893 126.57 13.3773 126.128 13.5497C125.685 13.7221 125.302 13.9684 124.978 14.2921C124.654 14.6158 124.403 14.9993 124.225 15.4426C124.047 15.8859 123.958 16.3785 123.958 16.9169C123.958 17.4552 124.047 17.9478 124.225 18.3911C124.403 18.8344 124.654 19.2179 124.978 19.5416C125.302 19.8653 125.685 20.1116 126.128 20.284C126.57 20.4599 127.056 20.5444 127.585 20.5444C128.147 20.5444 128.665 20.4353 129.14 20.2136C129.615 19.992 130.047 19.6542 130.436 19.2003L132.119 20.7555C131.58 21.4135 130.912 21.9166 130.12 22.2614C129.326 22.6062 128.432 22.7786 127.44 22.7786Z" fill="#5A295B"/>
<path d="M138.985 22.5851V20.8857L138.823 20.5127V17.4658C138.823 16.9274 138.658 16.5087 138.329 16.2026C138 15.9035 137.495 15.7523 136.815 15.7523C136.351 15.7523 135.895 15.8226 135.447 15.9704C134.998 16.1147 134.618 16.3117 134.305 16.5615L133.399 14.7952C133.873 14.461 134.445 14.2006 135.115 14.0176C135.784 13.8347 136.463 13.7432 137.155 13.7432C138.483 13.7432 139.514 14.0564 140.248 14.6827C140.982 15.3089 141.35 16.2836 141.35 17.6135V22.5851H138.985ZM136.329 22.7153C135.649 22.7153 135.066 22.5992 134.58 22.367C134.094 22.1348 133.722 21.8181 133.463 21.417C133.204 21.0194 133.074 20.5726 133.074 20.0729C133.074 19.5557 133.201 19.1018 133.455 18.7148C133.708 18.3243 134.111 18.0217 134.661 17.8C135.212 17.5783 135.929 17.4658 136.815 17.4658H139.131V18.94H137.09C136.496 18.94 136.089 19.0385 135.868 19.232C135.646 19.4256 135.536 19.6683 135.536 19.9604C135.536 20.2841 135.662 20.5409 135.916 20.7309C136.17 20.9209 136.518 21.0124 136.961 21.0124C137.382 21.0124 137.759 20.9139 138.094 20.7133C138.429 20.5163 138.672 20.2207 138.823 19.8302L139.212 20.9983C139.028 21.5578 138.693 21.987 138.208 22.2755C137.722 22.5676 137.095 22.7153 136.329 22.7153Z" fill="#5A295B"/>
<path d="M143.633 22.5851V13.8733H146.046V16.3327L145.706 15.622C145.965 15.0063 146.38 14.5383 146.953 14.2217C147.524 13.9015 148.22 13.7432 149.041 13.7432V16.0759C148.933 16.0653 148.836 16.0548 148.75 16.0513C148.663 16.0442 148.572 16.0407 148.475 16.0407C147.783 16.0407 147.224 16.2413 146.799 16.6318C146.372 17.0259 146.159 17.6416 146.159 18.472V22.5851H143.633Z" fill="#5A295B"/>
<path d="M154.789 22.7153C153.796 22.7153 152.924 22.5183 152.174 22.1312C151.424 21.7442 150.843 21.2129 150.434 20.5374C150.023 19.8618 149.818 19.0913 149.818 18.2293C149.818 17.3532 150.02 16.5791 150.425 15.9035C150.83 15.2315 151.383 14.7002 152.085 14.3167C152.786 13.9332 153.58 13.7432 154.466 13.7432C155.318 13.7432 156.087 13.9226 156.773 14.285C157.458 14.6474 158.001 15.1647 158.401 15.8402C158.8 16.5158 159 17.3215 159 18.2609C159 18.3594 158.994 18.4685 158.984 18.5917C158.973 18.7183 158.962 18.8345 158.951 18.94H151.875V17.4658H157.624L156.652 17.9056C156.652 17.4517 156.56 17.0576 156.377 16.7234C156.193 16.3891 155.939 16.1252 155.616 15.9387C155.292 15.7487 154.914 15.6537 154.482 15.6537C154.049 15.6537 153.669 15.7487 153.34 15.9387C153.011 16.1252 152.754 16.3891 152.571 16.7304C152.387 17.0717 152.296 17.4728 152.296 17.9372V18.3243C152.296 18.7993 152.401 19.2179 152.612 19.5803C152.822 19.9428 153.118 20.2172 153.502 20.4072C153.885 20.5972 154.336 20.6887 154.855 20.6887C155.318 20.6887 155.726 20.6218 156.077 20.4811C156.428 20.3404 156.749 20.1293 157.041 19.8478L158.385 21.3044C157.985 21.7583 157.483 22.1066 156.879 22.3494C156.274 22.5922 155.578 22.7153 154.789 22.7153Z" fill="#5A295B"/>
<path d="M65.5049 28.4082C65.7843 28.4082 66.0327 28.4645 66.2487 28.5771C66.4651 28.6861 66.6357 28.8585 66.7599 29.0872C66.8845 29.3159 66.9468 29.6115 66.9468 29.9704V31.99H65.9243V30.1252C65.9243 29.8437 65.8652 29.6326 65.747 29.4954C65.6295 29.3617 65.4627 29.2949 65.2488 29.2949C65.0999 29.2949 64.9669 29.3265 64.8487 29.3969C64.7305 29.4637 64.6394 29.5658 64.5736 29.6995C64.5081 29.8367 64.4754 30.0091 64.4754 30.2167V31.99H63.4529V30.1252C63.4529 29.8437 63.3949 29.6326 63.2788 29.4954C63.163 29.3617 62.998 29.2949 62.7841 29.2949C62.6352 29.2949 62.5022 29.3265 62.3844 29.3969C62.2661 29.4637 62.1743 29.5658 62.1089 29.6995C62.0434 29.8367 62.01 30.0091 62.01 30.2167V31.99H60.9879V28.461H61.965V29.425L61.781 29.1436C61.903 28.9043 62.0772 28.7213 62.3024 28.5947C62.5276 28.4715 62.7841 28.4082 63.0726 28.4082C63.3956 28.4082 63.6788 28.4891 63.9209 28.6545C64.164 28.8198 64.3241 29.0697 64.4026 29.4039L64.0423 29.3054C64.1605 29.031 64.3491 28.8128 64.6102 28.651C64.8698 28.4891 65.1678 28.4082 65.5049 28.4082Z" fill="#7FAE7A"/>
<path d="M70.6834 31.99V31.3004L70.6179 31.1491V29.9176C70.6179 29.6995 70.5514 29.527 70.4181 29.4039C70.2844 29.2843 70.0803 29.2209 69.8048 29.2209C69.6173 29.2209 69.4326 29.2526 69.2514 29.3089C69.0698 29.3687 68.9153 29.4497 68.789 29.5482L68.4221 28.8339C68.6142 28.7002 68.8457 28.5947 69.1166 28.5208C69.3872 28.4469 69.6634 28.4082 69.9427 28.4082C70.4804 28.4082 70.8973 28.5348 71.1953 28.7882C71.4923 29.0415 71.6408 29.4391 71.6408 29.9739V31.99H70.6834ZM69.6081 32.0392C69.333 32.0392 69.0973 31.9935 68.9006 31.8985C68.7039 31.807 68.5522 31.6768 68.4477 31.515C68.3429 31.3531 68.2908 31.1737 68.2908 30.9732C68.2908 30.762 68.3418 30.5791 68.4449 30.4207C68.5477 30.2659 68.7102 30.1393 68.9329 30.0513C69.1557 29.9633 69.4463 29.9176 69.8048 29.9176H70.7425V30.5122H69.9167C69.6764 30.5122 69.511 30.5544 69.4213 30.6319C69.3323 30.7093 69.2869 30.8078 69.2869 30.9274C69.2869 31.0576 69.3386 31.1632 69.4414 31.237C69.5434 31.3144 69.6845 31.3531 69.8639 31.3531C70.0342 31.3531 70.1873 31.3109 70.3231 31.23C70.4586 31.1491 70.5564 31.0329 70.6179 30.8746L70.7752 31.3461C70.7006 31.5713 70.5652 31.7437 70.3685 31.8633C70.1718 31.9829 69.9185 32.0392 69.6081 32.0392Z" fill="#7FAE7A"/>
<path d="M75.8503 31.99L74.6568 30.5052L75.2996 29.7135L77.0888 31.99H75.8503ZM74.0664 31.2687L74.0931 30.0232L75.7384 28.461H76.9579L75.3781 30.0689L74.8468 30.5017L74.0664 31.2687ZM73.2213 31.99V27.1239H74.2437V31.99H73.2213Z" fill="#7FAE7A"/>
<path d="M78.203 31.99V28.461H79.2259V31.99H78.203ZM78.715 27.9684C78.526 27.9684 78.374 27.9156 78.2558 27.8065C78.1376 27.6975 78.0785 27.5602 78.0785 27.3984C78.0785 27.2365 78.1376 27.1028 78.2558 26.9938C78.374 26.8847 78.526 26.8284 78.715 26.8284C78.9029 26.8284 79.0556 26.8812 79.1731 26.9832C79.2913 27.0852 79.3504 27.2189 79.3504 27.3808C79.3504 27.5497 79.2924 27.6904 79.1766 27.803C79.0605 27.9156 78.9067 27.9684 78.715 27.9684Z" fill="#7FAE7A"/>
<path d="M82.9762 28.4082C83.2556 28.4082 83.5058 28.4645 83.7271 28.5771C83.9473 28.6861 84.1211 28.8585 84.2475 29.0872C84.3748 29.3159 84.4378 29.6115 84.4378 29.9704V31.99H83.4153V30.1252C83.4153 29.8437 83.3527 29.6326 83.2282 29.4954C83.1043 29.3617 82.9277 29.2949 82.7011 29.2949C82.5392 29.2949 82.3936 29.3265 82.2644 29.3969C82.1357 29.4637 82.0354 29.5658 81.9633 29.7065C81.8915 29.8473 81.8549 30.0267 81.8549 30.2448V31.99H80.8321V28.461H81.8088V29.4391L81.6258 29.1436C81.7518 28.9078 81.9334 28.7249 82.1698 28.5982C82.4055 28.4715 82.674 28.4082 82.9762 28.4082Z" fill="#7FAE7A"/>
<path d="M87.7483 30.9801C87.9274 30.9801 88.0871 30.9415 88.2272 30.8711C88.3672 30.7972 88.4766 30.6987 88.5551 30.565C88.6336 30.4348 88.6733 30.2835 88.6733 30.1146C88.6733 29.9387 88.6336 29.7874 88.5551 29.6572C88.4766 29.527 88.3672 29.4285 88.2272 29.3546C88.0871 29.2843 87.9274 29.2491 87.7483 29.2491C87.5699 29.2491 87.4098 29.2843 87.2702 29.3546C87.1301 29.4285 87.02 29.527 86.9391 29.6572C86.8578 29.7874 86.8177 29.9387 86.8177 30.1146C86.8177 30.2835 86.8578 30.4348 86.9391 30.565C87.02 30.6987 87.1301 30.7972 87.2702 30.8711C87.4098 30.9415 87.5699 30.9801 87.7483 30.9801ZM87.7033 33.3129C87.3704 33.3129 87.0506 33.2742 86.742 33.1933C86.4345 33.1088 86.178 32.9892 85.9722 32.8273L86.3786 32.092C86.5271 32.2152 86.7164 32.3137 86.9454 32.384C87.1752 32.4579 87.4014 32.4931 87.6241 32.4931C87.9865 32.4931 88.2508 32.4122 88.4144 32.2503C88.578 32.0885 88.6603 31.8492 88.6603 31.5291V30.9977L88.7261 30.1146L88.7124 29.2209V28.4609H89.6828V31.3989C89.6828 32.0533 89.5121 32.5353 89.1712 32.8485C88.8306 33.1581 88.3412 33.3129 87.7033 33.3129ZM87.5453 31.8176C87.2177 31.8176 86.9222 31.7472 86.6572 31.6029C86.3923 31.4622 86.1808 31.2652 86.0215 31.0083C85.8621 30.7515 85.7822 30.4524 85.7822 30.1146C85.7822 29.7698 85.8621 29.4672 86.0215 29.2104C86.1808 28.957 86.3923 28.76 86.6572 28.6193C86.9222 28.4785 87.2177 28.4082 87.5453 28.4082C87.8426 28.4082 88.1047 28.468 88.3327 28.5876C88.559 28.7072 88.7363 28.8937 88.8633 29.147C88.99 29.3968 89.053 29.7205 89.053 30.1146C89.053 30.5017 88.99 30.8218 88.8633 31.0717C88.7363 31.325 88.559 31.5115 88.3327 31.6346C88.1047 31.7578 87.8426 31.8176 87.5453 31.8176Z" fill="#7FAE7A"/>
<path d="M93.8005 31.99V27.1239H94.823V31.99H93.8005Z" fill="#7FAE7A"/>
<path d="M96.4291 31.99V28.461H97.4519V31.99H96.4291ZM96.941 27.9684C96.7524 27.9684 96.6004 27.9156 96.4822 27.8065C96.364 27.6975 96.3049 27.5602 96.3049 27.3984C96.3049 27.2365 96.364 27.1028 96.4822 26.9938C96.6004 26.8847 96.7524 26.8284 96.941 26.8284C97.1293 26.8284 97.282 26.8812 97.3995 26.9832C97.5177 27.0852 97.5768 27.2189 97.5768 27.3808C97.5768 27.5497 97.5184 27.6904 97.4027 27.803C97.2869 27.9156 97.1328 27.9684 96.941 27.9684Z" fill="#7FAE7A"/>
<path d="M100.015 31.99L98.5332 28.461H99.5891L100.821 31.4974H100.296L101.575 28.461H102.559L101.071 31.99H100.015Z" fill="#7FAE7A"/>
<path d="M105.287 32.0392C104.884 32.0392 104.532 31.9618 104.228 31.8035C103.924 31.6487 103.689 31.4305 103.523 31.1596C103.357 30.8852 103.274 30.5755 103.274 30.2237C103.274 29.8718 103.356 29.5552 103.52 29.2843C103.683 29.0098 103.908 28.7952 104.192 28.6404C104.476 28.4856 104.797 28.4082 105.155 28.4082C105.5 28.4082 105.812 28.4821 106.09 28.6298C106.367 28.7741 106.587 28.9852 106.748 29.2596C106.91 29.5306 106.991 29.8578 106.991 30.2378C106.991 30.2765 106.989 30.3222 106.985 30.3715C106.981 30.4207 106.976 30.47 106.972 30.5122H104.106V29.9176H106.434L106.041 30.0935C106.041 29.9106 106.003 29.7487 105.929 29.615C105.855 29.4813 105.752 29.3722 105.621 29.2983C105.49 29.2209 105.337 29.1822 105.162 29.1822C104.987 29.1822 104.833 29.2209 104.7 29.2983C104.566 29.3722 104.462 29.4813 104.389 29.6185C104.314 29.7558 104.277 29.9176 104.277 30.1076V30.2659C104.277 30.4559 104.32 30.6248 104.405 30.7726C104.49 30.9204 104.61 31.0294 104.765 31.1068C104.921 31.1843 105.103 31.223 105.313 31.223C105.5 31.223 105.666 31.1948 105.808 31.135C105.95 31.0787 106.08 30.9942 106.198 30.8817L106.742 31.4692C106.581 31.6522 106.377 31.7965 106.132 31.895C105.888 31.99 105.606 32.0392 105.287 32.0392Z" fill="#7FAE7A"/>
<path d="M109.515 32.0392C109.213 32.0392 108.923 32.0041 108.646 31.9337C108.368 31.8598 108.149 31.7683 107.987 31.6593L108.328 30.9274C108.49 31.0259 108.681 31.1103 108.901 31.1737C109.122 31.237 109.34 31.2687 109.554 31.2687C109.79 31.2687 109.957 31.237 110.056 31.1807C110.154 31.1244 110.203 31.047 110.203 30.945C110.203 30.8641 110.164 30.8007 110.088 30.7585C110.012 30.7163 109.91 30.6846 109.784 30.6635C109.657 30.6424 109.518 30.6213 109.367 30.5967C109.216 30.5756 109.064 30.5474 108.912 30.5087C108.759 30.4735 108.619 30.4172 108.491 30.3433C108.365 30.2694 108.263 30.1674 108.187 30.0408C108.11 29.9141 108.072 29.7487 108.072 29.5482C108.072 29.3265 108.137 29.1295 108.266 28.9606C108.394 28.7882 108.581 28.6545 108.826 28.556C109.071 28.4574 109.363 28.4082 109.704 28.4082C109.945 28.4082 110.19 28.4363 110.439 28.4856C110.688 28.5384 110.895 28.6158 111.061 28.7178L110.721 29.4426C110.551 29.3441 110.379 29.2737 110.206 29.2385C110.033 29.1998 109.867 29.1822 109.704 29.1822C109.477 29.1822 109.312 29.2139 109.207 29.2737C109.101 29.337 109.049 29.4144 109.049 29.5094C109.049 29.5974 109.088 29.6643 109.164 29.7065C109.24 29.7487 109.342 29.7839 109.469 29.8121C109.595 29.8367 109.734 29.8613 109.885 29.8789C110.035 29.9 110.188 29.9317 110.341 29.9704C110.494 30.0091 110.632 30.0654 110.757 30.1357C110.882 30.2096 110.983 30.3081 111.061 30.4313C111.141 30.5544 111.18 30.7198 111.18 30.9204C111.18 31.1385 111.114 31.332 110.983 31.5009C110.851 31.6698 110.663 31.8 110.416 31.8985C110.169 31.9935 109.869 32.0392 109.515 32.0392Z" fill="#7FAE7A"/>
<path d="M116.884 31.2019C117.055 31.2019 117.206 31.1631 117.34 31.0822C117.474 31.0048 117.58 30.8922 117.661 30.7445C117.742 30.6002 117.782 30.4242 117.782 30.2237C117.782 30.0196 117.742 29.8437 117.661 29.6995C117.58 29.5552 117.474 29.4426 117.34 29.3652C117.206 29.2878 117.055 29.2491 116.884 29.2491C116.714 29.2491 116.561 29.2878 116.425 29.3652C116.29 29.4426 116.183 29.5552 116.104 29.6995C116.025 29.8437 115.986 30.0196 115.986 30.2237C115.986 30.4242 116.025 30.6002 116.104 30.7445C116.183 30.8922 116.29 31.0048 116.425 31.0822C116.561 31.1631 116.714 31.2019 116.884 31.2019ZM117.061 32.0392C116.75 32.0392 116.484 31.9759 116.261 31.8457C116.039 31.712 115.868 31.5115 115.749 31.244C115.632 30.9766 115.573 30.6354 115.573 30.2237C115.573 29.8085 115.635 29.4672 115.76 29.2033C115.884 28.9359 116.058 28.7354 116.281 28.6052C116.504 28.475 116.764 28.4082 117.061 28.4082C117.393 28.4082 117.691 28.4821 117.956 28.6298C118.221 28.7811 118.431 28.9887 118.585 29.2632C118.741 29.5306 118.818 29.8543 118.818 30.2237C118.818 30.5931 118.741 30.9098 118.585 31.1807C118.431 31.4516 118.221 31.6628 117.956 31.814C117.691 31.9653 117.393 32.0392 117.061 32.0392ZM114.976 31.99V27.1239H115.999V29.1752L115.933 30.2167L115.953 31.2687V31.99H114.976Z" fill="#7FAE7A"/>
<path d="M121.905 32.0392C121.503 32.0392 121.15 31.9618 120.847 31.8035C120.543 31.6487 120.308 31.4305 120.142 31.1596C119.976 30.8852 119.893 30.5755 119.893 30.2237C119.893 29.8718 119.974 29.5552 120.139 29.2843C120.302 29.0098 120.527 28.7952 120.811 28.6404C121.095 28.4856 121.416 28.4082 121.774 28.4082C122.119 28.4082 122.431 28.4821 122.709 28.6298C122.986 28.7741 123.206 28.9852 123.367 29.2596C123.529 29.5306 123.61 29.8578 123.61 30.2378C123.61 30.2765 123.608 30.3222 123.604 30.3715C123.6 30.4207 123.595 30.47 123.591 30.5122H120.725V29.9176H123.053L122.659 30.0935C122.659 29.9106 122.622 29.7487 122.548 29.615C122.474 29.4813 122.371 29.3722 122.24 29.2983C122.109 29.2209 121.956 29.1822 121.781 29.1822C121.606 29.1822 121.452 29.2209 121.319 29.2983C121.185 29.3722 121.081 29.4813 121.008 29.6185C120.933 29.7558 120.896 29.9176 120.896 30.1076V30.2659C120.896 30.4559 120.939 30.6248 121.024 30.7726C121.109 30.9204 121.229 31.0294 121.384 31.1068C121.539 31.1843 121.722 31.223 121.932 31.223C122.119 31.223 122.285 31.1948 122.427 31.135C122.569 31.0787 122.699 30.9942 122.816 30.8817L123.361 31.4692C123.199 31.6522 122.996 31.7965 122.751 31.895C122.506 31.99 122.225 32.0392 121.905 32.0392Z" fill="#7FAE7A"/>
<path d="M126.39 32.0392C125.974 32.0392 125.651 31.9337 125.42 31.7226C125.188 31.5115 125.072 31.1948 125.072 30.7761V27.6798H126.095V30.762C126.095 30.9098 126.135 31.0259 126.213 31.1068C126.291 31.1878 126.398 31.2265 126.534 31.2265C126.696 31.2265 126.833 31.1843 126.948 31.0963L127.223 31.8176C127.118 31.8915 126.992 31.9478 126.846 31.9865C126.699 32.0217 126.548 32.0392 126.39 32.0392ZM124.528 29.3265V28.5384H126.974V29.3265H124.528Z" fill="#7FAE7A"/>
<path d="M129.819 32.0392C129.403 32.0392 129.08 31.9337 128.849 31.7226C128.617 31.5115 128.501 31.1948 128.501 30.7761V27.6798H129.524V30.762C129.524 30.9098 129.564 31.0259 129.643 31.1068C129.721 31.1878 129.828 31.2265 129.963 31.2265C130.125 31.2265 130.262 31.1843 130.377 31.0963L130.652 31.8176C130.547 31.8915 130.422 31.9478 130.275 31.9865C130.128 32.0217 129.977 32.0392 129.819 32.0392ZM127.958 29.3265V28.5384H130.403V29.3265H127.958Z" fill="#7FAE7A"/>
<path d="M133.523 32.0392C133.12 32.0392 132.768 31.9618 132.464 31.8035C132.16 31.6487 131.926 31.4305 131.76 31.1596C131.594 30.8852 131.51 30.5755 131.51 30.2237C131.51 29.8718 131.592 29.5552 131.756 29.2843C131.92 29.0098 132.144 28.7952 132.428 28.6404C132.712 28.4856 133.033 28.4082 133.392 28.4082C133.737 28.4082 134.049 28.4821 134.326 28.6298C134.603 28.7741 134.823 28.9852 134.985 29.2596C135.146 29.5306 135.228 29.8578 135.228 30.2378C135.228 30.2765 135.225 30.3222 135.221 30.3715C135.217 30.4207 135.212 30.47 135.208 30.5122H132.343V29.9176H134.67L134.277 30.0935C134.277 29.9106 134.24 29.7487 134.165 29.615C134.092 29.4813 133.988 29.3722 133.858 29.2983C133.726 29.2209 133.573 29.1822 133.398 29.1822C133.223 29.1822 133.07 29.2209 132.936 29.2983C132.802 29.3722 132.699 29.4813 132.625 29.6185C132.55 29.7558 132.514 29.9176 132.514 30.1076V30.2659C132.514 30.4559 132.556 30.6248 132.641 30.7726C132.726 30.9204 132.846 31.0294 133.002 31.1068C133.157 31.1843 133.339 31.223 133.549 31.223C133.737 31.223 133.902 31.1948 134.044 31.135C134.186 31.0787 134.317 30.9942 134.434 30.8817L134.978 31.4692C134.817 31.6522 134.614 31.7965 134.368 31.895C134.124 31.99 133.842 32.0392 133.523 32.0392Z" fill="#7FAE7A"/>
<path d="M136.565 31.99V28.461H137.542V29.4567L137.404 29.1682C137.509 28.9219 137.678 28.7319 137.909 28.6017C138.141 28.475 138.423 28.4082 138.755 28.4082V29.3511C138.711 29.3476 138.672 29.3441 138.637 29.3441C138.602 29.3406 138.565 29.3406 138.526 29.3406C138.245 29.3406 138.019 29.418 137.847 29.5798C137.674 29.7382 137.588 29.988 137.588 30.3223V31.99H136.565Z" fill="#7FAE7A"/>
<path d="M31.6975 13.9719V24.2036C31.5152 27.7186 29.9895 31.1596 27.1706 33.6965C24.7411 35.8674 21.748 37.0214 18.7217 37.1622C18.4978 37.1798 18.2741 37.1868 18.0501 37.1868H17.8925C17.6604 37.1868 17.4448 37.1798 17.2209 37.1622C14.1946 37.0214 11.2015 35.8674 8.77227 33.6965C5.95309 31.1596 4.42766 27.7186 4.24512 24.2036V13.9719L17.9672 4.86959L31.6975 13.9719Z" fill="#7FAE7A"/>
<path d="M32.9401 22.8033C32.8835 21.5929 32.6912 20.4248 32.3677 19.3305L32.3327 19.2144L32.2874 19.1194L32.2794 19.1229C31.9875 18.4579 31.2256 17.6241 30.2479 17.6241C30.0324 17.6241 29.8062 17.6592 29.587 17.7507C29.4975 17.6065 29.4029 17.4904 29.312 17.3919C28.9475 17.0083 28.4747 16.7972 27.9799 16.7972C27.4232 16.7972 26.9136 17.0611 26.5807 17.5291C26.3485 17.8563 26.1621 18.2644 26.0042 18.7218C25.7422 18.5705 25.4537 18.479 25.1533 18.479C24.6173 18.479 24.1262 18.7359 23.802 19.1863C23.3582 19.8055 23.0929 20.6922 22.9091 21.804C22.7595 21.7583 22.6062 21.7266 22.4482 21.7266C21.9199 21.7266 21.4376 21.9799 21.1292 22.4162C20.3511 23.5034 20.1518 25.3647 19.956 27.8699L19.9187 28.3237C19.2847 28.5524 18.633 28.7952 17.9678 29.0662C17.3046 28.7987 16.6552 28.5524 16.0237 28.3237L15.9864 27.8699C15.7904 25.3647 15.5911 23.5034 14.8166 22.4233C14.5045 21.9799 14.0225 21.7266 13.4942 21.7266C13.336 21.7266 13.1825 21.7583 13.0327 21.804C12.8487 20.6922 12.5823 19.8055 12.1363 19.1792C11.8161 18.7359 11.325 18.479 10.7891 18.479C10.4884 18.479 10.1999 18.5705 9.93779 18.7218C9.77988 18.2644 9.59297 17.8528 9.36012 17.5255C9.02861 17.0611 8.51899 16.7972 7.96223 16.7972C7.46757 16.7972 6.99465 17.0083 6.63042 17.3919C6.53943 17.4904 6.44489 17.6065 6.35541 17.7507C6.13618 17.6592 5.91011 17.6241 5.69485 17.6241C4.7126 17.6241 3.95032 18.4614 3.66033 19.13L3.65526 19.1265L3.60618 19.225L3.57497 19.3305C3.25146 20.4248 3.05917 21.5929 3.00131 22.8595L3.00283 24.2669C3.21063 28.2639 4.96396 31.9407 7.94341 34.6253C10.4926 36.9053 13.767 38.2458 17.1313 38.4042C17.1323 38.4042 17.1331 38.4042 17.1341 38.4042C17.136 38.4042 17.1382 38.4042 17.1402 38.4042C17.1772 38.4042 17.2155 38.4042 17.2527 38.4077C17.4642 38.4218 17.6716 38.4323 17.8929 38.4323H17.9755H18.0498C18.3041 38.4323 18.5572 38.4218 18.7799 38.4042C18.7814 38.4042 18.7829 38.4042 18.7844 38.4042C18.7884 38.4042 18.7923 38.4042 18.796 38.4042C18.8049 38.4042 18.814 38.4007 18.8229 38.4007C22.2033 38.2318 25.461 36.8947 28.0023 34.6218C30.9787 31.9407 32.7322 28.2639 32.9413 24.2036L32.9401 22.8033Z" fill="#7FAE7A"/>
<path d="M7.15071 19.795C7.20131 20.8083 7.29888 22.9229 7.49419 24.8335C7.51688 24.9284 7.5306 25.0234 7.54862 25.1149C7.57307 24.9214 7.61114 24.742 7.64608 24.5801C7.72482 24.2635 7.95532 24.0172 8.27279 23.9186C8.58548 23.8201 8.92508 23.894 9.16342 24.1051C9.24586 24.179 9.31155 24.2634 9.36063 24.3655C9.41837 24.4675 9.48132 24.5836 9.56252 24.7138C9.38442 22.3951 9.19294 19.4361 8.34826 18.2504C7.98498 17.7402 7.05962 18.1202 7.15071 19.795Z" fill="white"/>
<path d="M10.0768 21.2622C10.1261 22.1665 10.2116 24.0629 10.3865 25.7588C10.5947 25.977 10.8386 26.2127 11.127 26.4731C11.37 26.6912 11.6444 26.927 11.9588 27.1768C12.0723 27.2612 12.1994 27.3492 12.3302 27.4336C12.0633 25.4105 12.095 21.2622 11.1279 19.9076C10.8072 19.4608 9.997 19.795 10.0768 21.2622Z" fill="white"/>
<path d="M12.8522 24.3655C12.8908 25.0762 12.9542 26.4801 13.0805 27.8417C13.5819 28.088 14.1651 28.3132 14.7923 28.5454C14.6388 26.6771 14.5088 24.1297 13.8012 23.141C13.5133 22.7329 12.7799 23.0355 12.8522 24.3655Z" fill="white"/>
<path d="M24.3266 35.5859C22.5771 36.5148 20.6618 37.0461 18.7217 37.1622C18.473 37.1798 18.2242 37.1868 17.9754 37.1868H17.8925C17.6604 37.1868 17.4448 37.1798 17.2209 37.1622C14.1946 37.0214 11.2015 35.8674 8.77227 33.6965C5.95309 31.1596 4.42766 27.7186 4.24512 24.2036V22.8596C4.29487 21.7899 4.46076 20.7203 4.7674 19.6859C4.77577 19.6683 4.78404 19.6507 4.79228 19.6331L4.77577 19.6929C4.93344 19.1792 6.35951 17.6452 6.41739 20.8188C6.48389 23.9784 7.2963 28.1901 9.19505 29.9C11.0938 31.6065 13.2412 31.3919 13.2412 31.3919C13.2412 31.3919 11.4503 30.7621 9.93298 29.4004C7.93473 27.6095 8.00109 25.7447 8.24147 24.7243C8.3161 24.4534 8.68927 24.4007 8.82188 24.6505C9.20328 25.3894 9.8997 26.3182 11.5747 27.6588C12.9342 28.7389 15.4383 29.3265 17.9672 30.4067C20.3717 31.4165 22.7927 32.8661 24.3266 35.5859Z" fill="white"/>
<path d="M32.8572 22.8068C32.8013 21.6034 32.6098 20.4388 32.2879 19.3551L32.2532 19.239L32.2107 19.1511L32.2008 19.1546C31.9338 18.5635 31.2103 17.7085 30.2479 17.7085C30.0214 17.7085 29.7827 17.7507 29.5534 17.8598C29.4563 17.6944 29.3522 17.5572 29.2516 17.4481C28.9031 17.0822 28.4517 16.8781 27.9799 16.8781C27.4505 16.8781 26.9654 17.1314 26.6485 17.5748C26.4042 17.9196 26.2081 18.3524 26.0466 18.8414C25.7763 18.662 25.4708 18.5635 25.1533 18.5635C24.6445 18.5635 24.1776 18.8063 23.8696 19.232C23.4214 19.8618 23.1581 20.7696 22.9762 21.9131C22.8065 21.8497 22.63 21.811 22.4482 21.811C21.9469 21.811 21.4898 22.0503 21.1964 22.4655C20.4308 23.5351 20.2336 25.3823 20.0384 27.8769L19.9971 28.3835C19.194 28.6721 18.368 28.9746 17.5156 29.3335C15.4207 30.2202 12.4253 31.7719 10.6034 35.0194L10.0226 36.0538L11.072 36.6097C12.9406 37.6055 15.0432 38.1966 17.1454 38.3197C17.4191 38.3373 17.6928 38.3479 17.9755 38.3479H18.0498C18.302 38.3479 18.5535 38.3373 18.7758 38.3232C22.1529 38.1649 25.4088 36.8279 27.9467 34.5585C30.9065 31.895 32.6504 28.2393 32.8583 24.2036L32.8572 22.8068Z" fill="#7FAE7A"/>
<path d="M28.7914 19.795C28.7408 20.8083 28.6434 22.9229 28.4479 24.8335C28.4254 24.9284 28.4117 25.0234 28.3935 25.1149C28.3692 24.9214 28.331 24.742 28.2962 24.5801C28.2174 24.2635 27.987 24.0172 27.6693 23.9186C27.3568 23.8201 27.017 23.894 26.7789 24.1051C26.6964 24.179 26.6307 24.2634 26.5815 24.3655C26.5239 24.4675 26.4608 24.5836 26.3797 24.7138C26.5579 22.3951 26.7493 19.4361 27.594 18.2504C27.9571 17.7402 28.8827 18.1202 28.7914 19.795Z" fill="white"/>
<path d="M25.8653 21.2622C25.8162 22.1665 25.7306 24.0629 25.5558 25.7588C25.3476 25.977 25.1037 26.2127 24.8151 26.4731C24.5723 26.6912 24.2978 26.927 23.9835 27.1768C23.87 27.2612 23.743 27.3492 23.612 27.4336C23.879 25.4105 23.8473 21.2622 24.8145 19.9076C25.1351 19.4608 25.9453 19.795 25.8653 21.2622Z" fill="white"/>
<path d="M23.0902 24.3655C23.0514 25.0762 22.9881 26.4801 22.8619 27.8417C22.3605 28.088 21.7772 28.3132 21.1499 28.5454C21.3036 26.6771 21.4333 24.1297 22.141 23.141C22.4291 22.7329 23.1625 23.0355 23.0902 24.3655Z" fill="white"/>
<path d="M31.6975 22.8596V24.2036C31.5152 27.7186 29.9895 31.1596 27.1706 33.6965C24.7411 35.8674 21.748 37.0214 18.7217 37.1622C18.4978 37.1798 18.2741 37.1868 18.0501 37.1868H17.9754C17.7184 37.1868 17.4696 37.1798 17.2209 37.1622C15.2808 37.0461 13.3655 36.5148 11.6161 35.5859C13.1416 32.8661 15.5709 31.4165 17.9672 30.4067C20.5043 29.3265 23.0084 28.7389 24.368 27.6588C26.0429 26.3182 26.7393 25.3894 27.1207 24.6505C27.2533 24.4007 27.6265 24.4534 27.7011 24.7243C27.9417 25.7447 28.0079 27.6095 26.0096 29.4004C24.4923 30.7621 22.7014 31.3919 22.7014 31.3919C22.7014 31.3919 24.8489 31.6065 26.7477 29.9C28.6463 28.1901 29.459 23.9784 29.5252 20.8188C29.5834 17.6452 31.0092 19.1792 31.1668 19.6929L31.1335 19.5839C31.1503 19.6261 31.1586 19.6507 31.1752 19.6859C31.4818 20.7203 31.6479 21.7899 31.6975 22.8596Z" fill="white"/>
<path d="M35.9426 11.9065V14.8902L17.9754 2.98368L0 14.9078V11.9136L17.9754 -1.71661e-05L35.9426 11.9065Z" fill="#7FAE7A"/>
<path d="M17.2701 14.7248H14.2858V11.7412H17.2701V14.7248Z" fill="white"/>
<path d="M21.6568 14.7248H18.6725V11.7412H21.6568V14.7248Z" fill="white"/>
<path d="M17.2701 19.1124H14.2858V16.1287H17.2701V19.1124Z" fill="white"/>
<path d="M21.6568 19.1124H18.6725V16.1287H21.6568V19.1124Z" fill="white"/>
</svg>
