<svg width="70" height="81" viewBox="0 0 70 81" fill="none" xmlns="http://www.w3.org/2000/svg">
<path opacity="0.1" d="M63.2566 48.739C62.0072 55.8148 60.2742 62.8217 58.5262 69.8105C55.2418 68.8476 51.8917 67.9922 48.5335 67.1349C48.9286 66.2293 49.1795 65.4751 49.1618 65.1497C48.3829 50.9313 47.6485 36.6801 48.2188 22.4617C48.6665 24.264 48.9047 26.1187 49.1472 27.325C50.0382 31.7163 50.5754 36.1707 51.0709 40.6172C52.0605 49.5062 52.9294 58.4143 55.8165 66.9438C56.2603 68.2563 58.2026 65.4868 58.363 65.2523C59.4151 63.7164 60.437 61.7719 60.575 59.8768C61.2446 50.6445 62.369 41.4774 63.9257 32.3759C64.6233 37.7776 64.2101 43.3347 63.2566 48.739ZM6.03568 39.6034C5.79713 38.8903 5.6947 38.1138 5.55098 37.375C5.67275 37.3323 5.79972 37.2978 5.92149 37.2551C7.07709 37.3976 8.6203 36.7867 9.87045 36.8346C10.9703 36.8857 12.0826 37.0557 13.1608 37.2819C14.6068 37.586 16.0344 38.0054 17.4508 38.5011C17.1921 39.0226 17.0172 39.4219 16.9778 39.5276C15.5455 43.3764 14.4302 47.3007 13.6177 51.2979C13.5101 51.1933 13.4019 51.1006 13.2907 50.9867C10.0665 47.7769 7.47869 43.944 6.03568 39.6034ZM40.7354 49.0345C41.8126 47.6013 42.829 45.0655 43.2284 43.4286C43.2708 47.0099 43.368 50.5908 43.5047 54.178C42.5816 52.4642 41.661 50.7524 40.7354 49.0345ZM34.3189 62.368C34.6291 59.9808 34.9379 57.5933 35.247 55.2045C37.008 58.4764 38.7684 61.7474 40.5291 65.0171C38.3966 64.4181 36.2809 63.7807 34.199 63.0758C34.2479 62.8407 34.2885 62.6052 34.3189 62.368ZM32.1021 48.901C31.8512 50.8241 31.6002 52.7471 31.3554 54.6778C30.2589 51.9963 29.1633 49.3141 28.0684 46.6315C27.5208 45.2961 26.9925 43.9715 26.4308 42.6681C28.6599 43.9045 30.8541 45.232 33.0103 46.5376C32.4987 47.6694 32.14 48.6234 32.1021 48.901ZM17.0418 54.2886C17.0793 54.0573 17.1172 53.8372 17.134 53.6075C17.4176 50.4533 17.9242 47.3652 18.6431 44.3266C20.9504 47.7266 22.321 51.7096 23.877 55.5173C24.4222 56.8543 24.9718 58.1999 25.5222 59.5451C22.544 58.0812 19.6965 56.3614 17.0418 54.2886ZM40.9559 26.4499C40.353 21.4031 39.4144 15.9699 39.9154 10.8794C40.2353 7.65608 44.1539 8.16561 47.5239 9.34627C45.8144 10.7542 44.43 15.0684 44.3039 16.2896C43.4495 24.5326 43.1689 32.7917 43.211 41.0649C42.3129 36.217 41.5429 31.3454 40.9559 26.4499ZM60.5948 21.3143C61.0837 22.272 61.5098 23.2464 61.894 24.236C60.177 32.0582 58.784 39.9399 57.7068 47.8735C56.7869 42.5564 56.2514 37.1555 55.6417 31.7787C55.1373 27.338 54.5619 22.8847 53.6049 18.5122C53.1908 16.6079 52.7919 13.3798 51.5402 11.1771C51.6263 11.2262 51.7092 11.2774 51.7888 11.3306C55.6065 13.7487 58.5513 17.3087 60.5948 21.3143ZM59.7603 6.03953C56.374 2.73664 50.6788 -0.795157 45.728 0.49174C40.7317 1.78449 37.5213 7.88028 36.0751 12.4181C34.3881 17.7312 35.1622 23.3726 35.686 28.827C35.9874 31.9556 36.3657 35.0701 36.796 38.1745C33.4989 36.3021 30.1895 34.4375 26.8219 32.6904C22.4401 30.4229 17.6709 28.4705 12.6546 28.5771C7.35025 28.6936 4.02694 32.0137 1.91191 36.6418C-0.157683 41.1719 0.335305 45.4701 2.40192 49.9451C11.8762 70.4674 36.9337 72.6715 56.3351 78.6738C56.3093 78.7847 56.2813 78.8958 56.2542 79.0064C55.8265 80.7881 56.7035 80.7858 57.8255 79.8326C58.0045 79.6798 58.1777 79.5053 58.3448 79.3174C59.1435 79.5815 59.9352 79.8525 60.7094 80.1357C62.684 80.8557 66.4021 72.4294 64.9783 71.9096C63.8791 71.5077 62.7657 71.1285 61.6428 70.767C64.5171 59.2867 67.932 47.628 68.9131 35.8429C69.7974 25.2132 67.6947 13.7753 59.7603 6.03953Z" fill="#5A295B"/>
</svg>
