<svg width="60" height="103" viewBox="0 0 60 103" fill="none" xmlns="http://www.w3.org/2000/svg">
<path id="BG_Vactor" opacity="0.1" d="M24.0207 53.1716C17.3934 46.8796 11.4338 39.7722 8.28247 31.0459C6.84742 26.658 6.01198 21.4824 8.3149 17.217C9.34782 15.3028 10.3288 14.9211 12.4342 15.463C14.3013 15.9436 15.8506 17.0786 17.1364 18.4962C22.3526 24.2438 22.153 32.7856 26.8953 38.8411C28.022 40.2797 33.4726 36.4622 33.8061 35.1486C36.3073 25.3033 39.843 15.7096 44.5528 6.71568C44.9228 6.00938 45.361 5.32407 45.7419 4.62029C45.9689 4.67985 46.1917 4.74108 46.2449 4.78889C47.9554 6.34576 49.3291 7.2475 50.4176 9.46452C52.5064 13.7207 53.0377 19.0448 52.9471 23.7246C52.6485 39.0005 45.396 52.3269 38.4336 65.5586C33.6614 61.3964 28.5991 57.5193 24.0207 53.1716ZM42.1505 83.9038C43.4859 88.55 43.767 93.864 41.215 98.1278C41.1834 98.179 41.1152 98.2528 41.0421 98.3308C41.0055 98.3316 40.9714 98.3333 40.929 98.3333C39.1279 98.3517 37.405 98.5606 35.7095 97.7075C31.0005 95.3387 34.0148 88.2766 35.2355 84.5228C36.1261 81.7807 37.1738 79.1049 38.3196 76.4709C39.9877 78.5907 41.3032 80.9536 42.1505 83.9038ZM41.2774 98.3165C41.3597 98.1639 41.7189 98.2712 41.2774 98.3165V98.3165ZM45.5257 4.56242C45.3727 4.67566 45.2421 4.67649 45.1814 4.43071C45.1906 4.4651 45.3402 4.51208 45.5257 4.56242ZM58.2896 32.0441C60.2836 23.7833 61.1834 13.3483 57.3084 5.45156C55.6919 2.15581 52.7891 -0.640007 48.92 0.128357C44.448 1.01584 40.7203 4.3443 38.5766 8.25743C35.223 14.3792 32.4457 20.8281 30.1756 27.4481C27.311 19.6026 24.8497 10.222 15.7499 10.8226C10.9336 11.1397 5.71313 14.4522 2.81317 18.2571C-0.930294 23.1685 -0.432373 29.484 1.3915 35.0597C6.94487 50.4387 20.7162 60.3336 32.523 70.6411C33.3022 71.3214 34.0489 71.9899 34.7657 72.6635C33.9749 74.2455 33.2066 75.8301 32.474 77.4213C30.4534 81.8075 28.6614 86.3146 27.3767 90.9785C26.3564 94.681 24.863 99.5672 28.9849 101.87C34.3241 104.85 42.0258 101.419 46.0005 97.575C52.9471 90.8593 50.4383 77.4398 44.2459 71.0186C43.5034 70.2493 42.7409 69.5003 41.9676 68.7621C43.7761 65.1761 45.6803 61.6371 47.5396 58.0888C51.906 49.7576 56.0661 41.2494 58.2896 32.0441Z" fill="#5A295B"/>
</svg>
