<svg width="145" height="103" viewBox="0 0 145 103" fill="none" xmlns="http://www.w3.org/2000/svg">
<path id="BG_Vactor" d="M133.126 43.8844C130.141 49.394 125.702 54.0742 120.517 57.5565C112.782 62.746 103.797 65.3262 94.6084 66.849C82.6478 53.1915 72.7324 37.5387 73.1298 18.9303C73.188 16.4375 73.4013 13.9368 74.041 11.5215C74.1961 10.9521 75.7177 6.79765 76.7936 5.14381C77.3461 5.0924 77.8986 5.1118 78.4607 5.20492C79.682 5.39019 80.8742 5.9072 81.8919 6.60947C83.559 7.7657 84.8384 9.50005 85.8658 11.2257C88.6088 15.8613 89.6556 21.2409 90.935 26.4061C92.6506 33.3057 94.3564 40.2062 96.0623 47.1058C96.4888 48.8159 103.351 44.1638 103.865 43.3296C108.12 36.3641 112.956 29.7632 118.481 23.7512C120.623 21.4193 123.434 17.2717 126.846 17.2319C130.335 17.1911 133.398 19.7665 135.084 22.6503C138.845 29.1114 136.461 37.7405 133.126 43.8844ZM77.598 4.48809C77.4236 4.58703 77.2395 4.68694 77.0553 4.78587C77.2685 4.53077 77.4623 4.40952 77.598 4.48809ZM135.995 12.3839C127.951 10.3769 119.683 17.4812 114.527 22.7492C110.242 27.1219 106.288 31.8022 102.673 36.7307C101.558 32.2018 100.434 27.6729 99.3093 23.144C98.1074 18.2727 97.1576 13.2268 94.9865 8.66489C93.4066 5.33588 91.0513 1.94477 87.4651 0.585808C83.5396 -0.899254 79.1392 0.67408 75.708 2.68488C56.5653 13.9126 66.4905 42.7389 75.6983 57.2752C78.1312 61.1261 80.8547 64.7636 83.7528 68.2652C81.8046 68.4592 79.8564 68.6435 77.9276 68.8278C63.2435 70.1858 48.4818 71.2237 34.4858 76.1999C20.9647 81.0014 7.59874 89.2849 0.222736 101.943C-0.756207 103.622 1.76386 102.865 2.51988 102.593C4.20638 101.992 6.82334 100.673 7.7829 99.0236C15.5563 85.6959 29.5523 79.8275 44.1396 77.0823C58.31 74.4247 72.8197 74.2792 87.0386 72.087C91.7395 77.3927 96.7796 82.4079 101.791 87.3934C103.458 89.0424 110.659 83.5719 109.826 82.7474C105.755 78.7026 101.529 74.4732 97.4677 70.0306C97.8457 69.9336 98.2237 69.856 98.6017 69.759C112.336 66.1701 126.148 59.0697 135.559 48.2329C140.144 42.9513 143.769 36.4252 144.787 29.4237C145.766 22.6794 143.468 14.2492 135.995 12.3839Z" fill="#EAD7C1"/>
</svg>
