<svg width="53" height="65" viewBox="0 0 53 65" fill="none" xmlns="http://www.w3.org/2000/svg">
<path id="path74" opacity="0.1" d="M24.3848 39.9405C18.4836 38.9576 12.6521 37.2891 7.7696 33.7175C5.39624 31.8668 3.06544 29.3705 2.77981 26.2193C2.65132 24.8054 3.04936 24.2401 4.39653 23.7636C5.59125 23.341 6.84915 23.3889 8.06536 23.6862C12.9981 24.8904 15.982 29.5874 20.7671 31.1315C21.9039 31.4983 23.5012 27.4387 23.2078 26.6056C21.0101 20.3613 19.469 13.8749 18.7869 7.28392C18.7334 6.76627 18.7248 6.23503 18.6782 5.71479C18.8238 5.66403 18.9678 5.61568 19.0142 5.62211C20.513 5.83948 21.5905 5.82534 22.9883 6.62752C25.6713 8.16783 27.8897 10.8557 29.5347 13.4223C34.903 21.801 35.7639 31.6672 36.7491 41.376C32.6332 40.8677 28.4619 40.6199 24.3848 39.9405ZM45.4239 49.948C47.8363 51.9749 49.9142 54.7489 50.0631 57.9902C50.0643 58.0295 50.0538 58.0943 50.042 58.1633C50.0223 58.1772 50.0043 58.1905 49.9811 58.206C49.0032 58.8746 48.137 59.6177 46.9012 59.7758C43.4693 60.2153 42.5599 55.2901 41.8679 52.8116C41.3618 51.0015 40.9656 49.1699 40.6382 47.325C42.3176 47.8626 43.8924 48.6608 45.4239 49.948ZM50.1655 58.0696C50.1552 57.9568 50.3905 57.8836 50.1655 58.0696V58.0696ZM18.539 5.76251C18.4964 5.87976 18.4253 5.92795 18.3031 5.81709C18.3206 5.83237 18.4194 5.80307 18.539 5.76251ZM35.4678 15.9725C33.5665 10.7714 30.2798 4.79342 25.3021 1.93542C23.225 0.742351 20.6258 0.290288 18.7889 2.121C16.6657 4.23663 15.8331 7.40156 16.0782 10.3038C16.4617 14.844 17.2787 19.3507 18.4349 23.7645C14.028 20.5648 9.28573 16.3866 4.52878 20.0391C2.01073 21.9718 0.356399 25.674 0.148901 28.7942C-0.119065 32.8217 2.44001 36.0585 5.45602 38.41C14.0606 44.7048 25.1718 45.0259 35.3585 46.2886C36.0307 46.372 36.681 46.4608 37.3167 46.5634C37.4573 47.709 37.6111 48.8477 37.7868 49.977C38.2705 53.0903 38.9229 56.1854 39.9095 59.18C40.6924 61.5574 41.6454 64.7486 44.7324 64.4879C48.7303 64.149 51.6978 59.4752 52.4789 55.9411C53.8445 49.7656 47.6138 43.4182 41.9035 42.2064C41.2191 42.0615 40.531 41.9348 39.841 41.818C39.5311 39.2154 39.2906 36.6033 39.0221 34.0026C38.3923 27.8959 37.5856 21.7688 35.4678 15.9725Z" fill="#5A295B"/>
</svg>
