<svg width="31" height="37" viewBox="0 0 31 37" fill="none" xmlns="http://www.w3.org/2000/svg">
<g id="BG_Vactor">
<path id="path68" d="M23.6984 15.4883C23.3919 16.3899 23.0377 17.2741 22.6426 18.1398C19.7066 24.5549 14.5228 29.6154 8.71222 33.5086C5.78651 26.0652 2.81993 18.2856 2.88465 10.1786C2.89827 8.3945 3.01748 6.56157 3.4296 4.82048C3.61011 4.06464 3.84853 3.29856 4.23 2.61817C4.68299 1.80941 4.92482 1.68959 5.85465 1.86097C9.74765 2.57618 10.5821 6.98729 10.3811 10.2937C10.1053 14.8157 9.01536 19.3016 7.40775 23.5253C7.23404 23.9841 8.43633 23.5239 8.48402 23.5031C9.02897 23.2706 9.85323 22.8691 10.1564 22.327C12.4111 18.3225 15.3368 14.4815 18.9505 11.6056C19.877 10.8662 20.8817 10.31 22.1147 10.492C23.1024 10.6381 24.131 11.2376 24.349 12.2812C24.5601 13.3023 24.022 14.5385 23.6984 15.4883ZM26.9034 9.99835C25.9464 8.45527 23.7257 8.50341 22.21 8.9438C20.2277 9.52041 18.409 10.704 16.8389 12.0252C15.0609 13.5205 13.4192 15.1755 11.924 16.9552C12.6733 14.1162 13.1604 11.1983 13.249 8.29379C13.3614 4.75084 12.016 0.174828 7.75855 0.00481415C4.1244 -0.140617 1.28725 3.06778 0.551567 6.35947C-0.439565 10.7907 0.0338424 15.6177 0.956856 20.0158C2.06039 25.2579 3.97796 30.2824 5.93298 35.2555C5.80355 35.3313 5.67752 35.4074 5.5515 35.4818C5.3199 35.6156 4.13463 36.2896 4.35942 36.6801C4.5774 37.0621 5.82059 36.3449 5.99088 36.2455C6.21908 36.1117 6.44726 35.9734 6.67886 35.8369C7.41795 35.6549 8.67135 34.9708 8.93361 34.4392C14.6284 30.7662 19.8872 26.2055 23.4975 20.4436C24.5057 18.8356 25.381 17.1348 26.0758 15.3688C26.6514 13.9097 27.8435 11.5087 26.9034 9.99835Z" fill="#7FAE7A"/>
<path id="path70" d="M23.5999 0.987924C23.0746 1.24474 22.251 1.66782 22.0273 2.27027C21.6647 3.23865 21.3665 4.2246 21.1292 5.23257C21.0072 5.75033 22.2578 5.19056 22.3798 5.13101C22.8407 4.90621 23.8168 4.43321 23.9557 3.84866C24.1896 2.84103 24.4878 1.85509 24.8504 0.886707C25.0368 0.389261 23.688 0.945925 23.5999 0.987924Z" fill="#7FAE7A"/>
<path id="path72" d="M30.9809 3.15084C30.8939 2.99751 30.5225 3.09371 30.4221 3.12044C29.7596 3.30283 28.9231 3.71972 28.4614 4.25086C28.2238 4.52778 27.9729 4.79769 27.7152 5.05825C27.6015 5.17349 27.4843 5.2874 27.3672 5.39964C27.2936 5.46912 27.2167 5.53727 27.1431 5.60609C27.1264 5.62145 27.1029 5.64183 27.0695 5.67089C26.8988 5.81854 26.1727 6.53273 26.8653 6.46859C27.5412 6.40646 28.3409 5.94314 28.8395 5.50921C29.512 4.9283 30.1477 4.319 30.7299 3.64924C30.7968 3.5704 31.0746 3.30851 30.9809 3.15084Z" fill="#7FAE7A"/>
</g>
</svg>
