<svg width="48" height="48" viewBox="0 0 48 48" fill="none" xmlns="http://www.w3.org/2000/svg">
<g clip-path="url(#clip0_170_5900)">
<path d="M10 22H2V44H10V22Z" fill="#417A3B"/>
<path d="M32 6.5C33.3 4.98 35.32 4 37.4 4C41.1 4 44 6.9 44 10.6C44 15.14 38.18 20.4 32 26C25.82 20.38 20 15.12 20 10.6C20 6.9 22.9 4 26.6 4C28.68 4 30.7 4.98 32 6.5Z" fill="#417A3B"/>
<path d="M40 34H26L21.82 32.54L22.48 30.66L26 32H31.64C32.94 32 34 30.94 34 29.64C34 28.66 33.38 27.78 32.46 27.42L17.94 22H14V40.04L28 44L44.02 38C44 35.8 42.22 34 40 34Z" fill="#417A3B"/>
</g>
<defs>
<clipPath id="clip0_170_5900">
<rect width="48" height="48" fill="white"/>
</clipPath>
</defs>
</svg>
