<svg width="40" height="40" viewBox="0 0 40 40" fill="none" xmlns="http://www.w3.org/2000/svg">
<path d="M30.118 21.9283L28.1601 22.6905C27.8776 24.1228 26.6095 25.2068 25.0919 25.2068H19.5072C19.1393 25.2068 18.8503 24.9178 18.8503 24.5498C18.8503 24.1885 19.1393 23.8928 19.5072 23.8928H25.1181C26.4256 23.8797 27.0892 22.224 26.1891 21.2779C26.1759 21.2582 26.1562 21.2385 26.1365 21.2188C25.67 20.7654 25.0656 20.5158 24.4217 20.5158H24.3757L22.0499 20.5552C20.795 20.5814 19.4876 20.1478 18.2721 19.3134C14.3892 16.6591 8.39061 19.4317 8.14094 19.55L3.96235 21.4421C3.72585 21.5473 3.57471 21.7838 3.57471 22.04V28.6693C3.57471 28.8993 3.69952 29.1161 3.90322 29.2343C4.10032 29.3526 4.35655 29.3526 4.55369 29.2343L9.13305 26.6129C10.4996 27.5326 15.4863 30.6666 20.0591 30.6666C20.6111 30.6666 21.1629 30.6206 21.6951 30.5155C27.122 29.4774 35.6632 23.8534 36.0246 23.6169C36.2874 23.4395 36.3925 23.0978 36.2677 22.8088C35.5121 21.0611 32.0628 21.1268 30.118 21.9283Z" fill="#417A3B"/>
<path d="M30.7027 9.33337C29.1391 9.33337 27.6542 9.97729 26.5833 11.0876C25.5123 9.97729 24.0209 9.33337 22.4638 9.33337C19.3101 9.33337 16.7412 11.8958 16.7412 15.0494C16.7412 15.7919 16.8529 16.5474 17.0763 17.2964C17.7793 17.5132 18.4297 17.8285 19.0145 18.2293C19.9803 18.8929 20.9921 19.2411 21.9448 19.2411L24.4217 19.2017C25.4072 19.2017 26.3402 19.5828 27.0498 20.2792C27.0958 20.3186 27.1417 20.3646 27.1943 20.4303C27.4571 20.726 27.6542 21.0677 27.7725 21.429L29.645 20.7063C30.6042 20.3055 31.8459 20.0756 33.0351 20.0756C33.6264 20.0756 34.1717 20.1281 34.6645 20.2398C35.834 18.5118 36.4253 16.7708 36.4253 15.0494C36.4253 11.8958 33.8564 9.33337 30.7027 9.33337Z" fill="#417A3B"/>
</svg>
