<svg width="24" height="24" viewBox="0 0 24 24" fill="none" xmlns="http://www.w3.org/2000/svg">
<path fill-rule="evenodd" clip-rule="evenodd" d="M12.0455 4.00007C9.23749 3.98878 6.62845 5.4457 5.1684 7.84034C3.70835 10.235 3.61034 13.2179 4.91005 15.703L5.07031 16.0153C5.20167 16.2612 5.22915 16.5492 5.14663 16.8153C4.91794 17.4228 4.72679 18.0436 4.57427 18.6744C4.57427 18.9944 4.66585 19.1772 5.00926 19.1696C5.61752 19.0353 6.21654 18.8623 6.80265 18.6515C7.05509 18.582 7.3235 18.5981 7.5658 18.6973C7.78711 18.8039 8.23736 19.0782 8.25263 19.0782C11.1932 20.6244 14.7846 20.1978 17.2798 18.006C19.775 15.8142 20.6559 12.312 19.4941 9.20329C18.3323 6.09454 15.3689 4.02449 12.0455 4.00007Z" stroke="white" stroke-width="1.4" stroke-linecap="round" stroke-linejoin="round"/>
<path d="M8 13C8.55228 13 9 12.5523 9 12C9 11.4477 8.55228 11 8 11C7.44772 11 7 11.4477 7 12C7 12.5523 7.44772 13 8 13Z" fill="white"/>
<path d="M12 13C12.5523 13 13 12.5523 13 12C13 11.4477 12.5523 11 12 11C11.4477 11 11 11.4477 11 12C11 12.5523 11.4477 13 12 13Z" fill="white"/>
<path d="M16 13C16.5523 13 17 12.5523 17 12C17 11.4477 16.5523 11 16 11C15.4477 11 15 11.4477 15 12C15 12.5523 15.4477 13 16 13Z" fill="white"/>
</svg>
