<svg width="24" height="24" viewBox="0 0 24 24" fill="none" xmlns="http://www.w3.org/2000/svg">
<path fill-rule="evenodd" clip-rule="evenodd" d="M16.4391 17.6023C16.7069 17.0991 16.8842 16.5421 16.9732 15.9686C17.1403 14.8891 16.9943 13.7567 16.5296 12.8386C16.5168 12.8125 16.5002 12.7902 16.4866 12.7645C16.1649 12.1587 15.7312 11.6747 15.1798 11.3193C15.1323 11.2886 15.0795 11.2586 15.0278 11.2279C14.6929 11.0312 14.2712 10.8376 13.7576 10.6475C13.3894 10.5111 12.9765 10.3763 12.5167 10.2437C12.4315 10.2188 12.3534 10.1946 12.2723 10.17C11.2163 9.85 10.5389 9.54116 10.2496 9.2446C9.90265 8.88697 9.78648 8.35033 9.95884 7.88821C10.2696 7.05271 11.3324 6.83721 12.1471 6.8641C12.6023 6.87908 13.0643 7.0093 13.4121 7.29318C13.5577 7.41226 13.6772 7.55401 13.7757 7.70997C13.879 7.87284 13.9593 8.0507 14.0208 8.23547L15.4019 7.95697L16.5229 7.73071C16.4452 7.37039 16.3301 7.01967 16.1774 6.68816C15.9488 6.19224 15.6309 5.74203 15.2002 5.3794C15.0893 5.28606 14.9724 5.1977 14.8468 5.11665C14.401 4.8297 13.8979 4.6407 13.3766 4.51816L13.6452 2.40002H10.5118L10.7758 4.48244C10.4582 4.5512 10.1459 4.63917 9.84984 4.77093C8.10362 5.5465 7.35308 7.39728 7.57371 9.13166C7.66687 9.86575 7.93465 10.5756 8.37743 11.1772C8.6256 11.5137 8.92167 11.8195 9.27883 12.0703C9.30297 12.0872 9.32862 12.1014 9.35351 12.118C10.1787 12.673 11.1623 12.9319 12.1113 13.2181C12.9768 13.479 14.0887 13.744 14.4526 14.656C14.5786 14.9713 14.5877 15.3063 14.5171 15.6274C14.4315 16.0158 14.2279 16.3846 13.9465 16.6719C13.5433 17.0833 12.9444 17.2888 12.1505 17.2888C11.4365 17.2888 10.8406 17.0238 10.3994 16.5932C9.96978 16.1741 9.68654 15.5986 9.5847 14.9556L9.56434 14.9602L7.19995 15.5041C7.34855 16.3005 7.61067 17.086 8.03346 17.7656C8.27937 18.1608 8.57921 18.5212 8.94467 18.825C8.99861 18.87 9.05782 18.9068 9.11401 18.9487C9.59828 19.3102 10.1561 19.5656 10.7505 19.717L10.5118 21.6H13.6452L13.4136 19.7719C14.1083 19.6313 14.7744 19.3643 15.3284 18.9399C15.7949 18.5822 16.163 18.1209 16.4391 17.6023Z" fill="#231823"/>
</svg>
