<svg width="24" height="24" viewBox="0 0 24 24" fill="none" xmlns="http://www.w3.org/2000/svg">
<path d="M7.7305 4C7.5714 4 7.44256 4.12897 7.44256 4.28795V6.61375L7.44296 12.1386H4.43531C4.35924 12.1386 4.28625 12.169 4.23255 12.2233C4.17871 12.2776 4.14844 12.3512 4.14844 12.4281V17.1201L4.39634 17.0841C4.25384 17.1036 4.1479 17.227 4.14844 17.3722C4.14844 18.4418 5.01871 19.3076 6.08383 19.3076C6.15843 19.3076 6.23196 19.3031 6.30428 19.2948C6.32691 19.3006 6.34941 19.3072 6.37365 19.3072H17.917C18.9842 19.3072 19.8526 18.4388 19.8526 17.3713V4.28826C19.8526 4.12915 19.7237 4.00031 19.5647 4.00031L7.7305 4ZM8.01845 4.57603H19.2772V17.3715C19.2772 18.1296 18.6756 18.7312 17.9174 18.7311H7.45959C7.75879 18.4277 7.95876 18.0264 8.00628 17.579C8.00721 17.5705 8.00762 17.5618 8.00855 17.5532C8.01284 17.506 8.01552 17.4584 8.01646 17.4103C8.01672 17.3972 8.01873 17.3844 8.01873 17.3713V12.4287V6.61348L8.01845 4.57603ZM4.72181 12.7176H7.44245V17.3712C7.44245 18.048 6.96005 18.5985 6.32014 18.7099C6.2438 18.7229 6.16438 18.7301 6.08389 18.7301C5.32343 18.7301 4.72196 18.1277 4.72196 17.372L4.72181 12.7176Z" fill="white" stroke="white" stroke-width="0.5"/>
<path d="M9.80469 11.106C9.80469 10.946 9.93286 10.8164 10.0912 10.8164H15.0478C15.2062 10.8164 15.3343 10.946 15.3343 11.106C15.3343 11.2659 15.2062 11.3955 15.0478 11.3955H10.0912C9.93286 11.3955 9.80469 11.2659 9.80469 11.106Z" fill="white" stroke="white" stroke-width="0.3"/>
<path d="M9.80469 14.6919C9.80469 14.532 9.93286 14.4023 10.0912 14.4023H13.177C13.3353 14.4023 13.4635 14.532 13.4635 14.6919C13.4635 14.8518 13.3353 14.9814 13.177 14.9814H10.0912C9.93286 14.9814 9.80469 14.8518 9.80469 14.6919Z" fill="white" stroke="white" stroke-width="0.3"/>
<path d="M9.80469 7.52002C9.80469 7.36011 9.93286 7.23047 10.0912 7.23047H16.8893C17.0476 7.23047 17.1762 7.36011 17.1762 7.52002C17.1762 7.67993 17.0476 7.80957 16.8893 7.80957H10.0912C9.93286 7.80957 9.80469 7.67993 9.80469 7.52002Z" fill="white" stroke="white" stroke-width="0.3"/>
</svg>
