<svg width="24" height="24" viewBox="0 0 24 24" fill="none" xmlns="http://www.w3.org/2000/svg">
<g clip-path="url(#clip0_586_4586)">
<path d="M15.4586 4.1L15.4293 4.07071L14.7193 3.36071M15.4586 4.1L14.7193 3.36071M15.4586 4.1H15.5M15.4586 4.1H15.5M14.7193 3.36071C14.5578 3.19925 14.3232 3.1 14.09 3.1H9.91C9.67682 3.1 9.44217 3.19925 9.28071 3.36071L8.57071 4.07071M14.7193 3.36071L8.57071 4.07071M15.5 4.1H18C18.4948 4.1 18.9 4.50523 18.9 5C18.9 5.49477 18.4948 5.9 18 5.9H6C5.50523 5.9 5.1 5.49477 5.1 5C5.1 4.50523 5.50523 4.1 6 4.1H8.5H8.54142M15.5 4.1H8.54142M8.54142 4.1L8.57071 4.07071M8.54142 4.1L8.57071 4.07071M8 20.9C6.95523 20.9 6.1 20.0448 6.1 19V9C6.1 7.95523 6.95523 7.1 8 7.1H16C17.0448 7.1 17.9 7.95523 17.9 9V19C17.9 20.0448 17.0448 20.9 16 20.9H8ZM15 8.9H9C8.39477 8.9 7.9 9.39477 7.9 10V18C7.9 18.6052 8.39477 19.1 9 19.1H15C15.6052 19.1 16.1 18.6052 16.1 18V10C16.1 9.39477 15.6052 8.9 15 8.9Z" fill="#417A3B" stroke="white" stroke-width="0.2"/>
</g>
<defs>
<clipPath id="clip0_586_4586">
<rect width="24" height="24" fill="white"/>
</clipPath>
</defs>
</svg>
