<svg width="24" height="24" viewBox="0 0 24 24" fill="none" xmlns="http://www.w3.org/2000/svg">
<g clip-path="url(#clip0_325_187)">
<mask id="mask0_325_187" style="mask-type:alpha" maskUnits="userSpaceOnUse" x="0" y="0" width="24" height="24">
<path d="M24 0H0V24H24V0Z" fill="#D9D9D9"/>
</mask>
<g mask="url(#mask0_325_187)">
<path d="M16.1 13.3002L14.65 11.8502C14.8 11.0669 14.575 10.3336 13.975 9.65029C13.375 8.96695 12.6 8.70029 11.65 8.85029L10.2 7.40029C10.4833 7.26696 10.7707 7.16696 11.062 7.10029C11.354 7.03362 11.6667 7.00029 12 7.00029C13.25 7.00029 14.3127 7.43762 15.188 8.31229C16.0627 9.18762 16.5 10.2502 16.5 11.5002C16.5 11.8336 16.4667 12.1462 16.4 12.4382C16.3333 12.7296 16.2333 13.0169 16.1 13.3002ZM19.3 16.4502L17.85 15.0502C18.4833 14.5669 19.046 14.0376 19.538 13.4622C20.0293 12.8876 20.45 12.2336 20.8 11.5002C19.9667 9.81696 18.7707 8.47929 17.212 7.48729C15.654 6.49596 13.9167 6.00029 12 6.00029C11.5167 6.00029 11.0417 6.03362 10.575 6.10029C10.1083 6.16696 9.65 6.26696 9.2 6.40029L7.65 4.85029C8.33333 4.56696 9.03333 4.35429 9.75 4.21229C10.4667 4.07096 11.2167 4.00029 12 4.00029C14.5167 4.00029 16.7583 4.69596 18.725 6.08729C20.6917 7.47929 22.1167 9.28362 23 11.5002C22.6167 12.4836 22.1127 13.3962 21.488 14.2382C20.8627 15.0796 20.1333 15.8169 19.3 16.4502ZM19.8 22.6002L15.6 18.4502C15.0167 18.6336 14.4293 18.7713 13.838 18.8633C13.246 18.9546 12.6333 19.0002 12 19.0002C9.48333 19.0002 7.24167 18.3046 5.275 16.9132C3.30833 15.5212 1.88333 13.7169 1 11.5002C1.35 10.6169 1.79167 9.79595 2.325 9.03729C2.85833 8.27929 3.46667 7.60029 4.15 7.00029L1.4 4.20029L2.8 2.80029L21.2 21.2003L19.8 22.6002ZM5.55 8.40029C5.06667 8.83362 4.625 9.30862 4.225 9.82529C3.825 10.3419 3.48333 10.9002 3.2 11.5002C4.03333 13.1836 5.229 14.5209 6.787 15.5122C8.34567 16.5042 10.0833 17.0002 12 17.0002C12.3333 17.0002 12.6583 16.9796 12.975 16.9382C13.2917 16.8962 13.6167 16.8502 13.95 16.8002L13.05 15.8502C12.8667 15.9002 12.6917 15.9376 12.525 15.9622C12.3583 15.9876 12.1833 16.0002 12 16.0002C10.75 16.0002 9.68733 15.5629 8.812 14.6882C7.93733 13.8129 7.5 12.7502 7.5 11.5002C7.5 11.3169 7.51233 11.1419 7.537 10.9752C7.56233 10.8086 7.6 10.6336 7.65 10.4502L5.55 8.40029Z" fill="#5D565E"/>
</g>
</g>
<defs>
<clipPath id="clip0_325_187">
<rect width="24" height="24" fill="white"/>
</clipPath>
</defs>
</svg>
