<svg width="40" height="40" viewBox="0 0 40 40" fill="none" xmlns="http://www.w3.org/2000/svg">
<path d="M20 3C14.0348 3 9.2093 7.79274 9.2093 13.7174V17.7826H8.46512C6.00431 17.7826 4 19.7733 4 22.2174V25.1739C4 27.618 6.00431 29.6087 8.46512 29.6087H12.186C12.5757 29.6087 12.9302 29.2566 12.9302 28.8696V18.5217C12.9302 18.1347 12.5757 17.7826 12.186 17.7826H10.6977V13.7174C10.6977 8.58613 14.8336 4.47826 20 4.47826C25.1664 4.47826 29.3023 8.58613 29.3023 13.7174V17.7826H27.814C27.3879 17.7904 27.0789 18.1888 27.0698 18.5217V28.8696C27.0698 29.2566 27.4243 29.6087 27.814 29.6087H29.2326C29.0576 30.5434 28.5365 31.4086 27.593 32.1264C26.5029 32.9556 24.8186 33.5684 22.4884 33.6624C22.1601 32.6063 21.1657 31.8261 20 31.8261C18.5703 31.8261 17.3953 32.9931 17.3953 34.413C17.3953 35.833 18.5703 37 20 37C21.178 37 22.1826 36.2138 22.5 35.1406C25.0869 35.0433 27.0878 34.3583 28.4884 33.2928C29.7782 32.3116 30.5344 31.0006 30.7326 29.6087H31.5349C33.9957 29.6087 36 27.618 36 25.1739V22.2174C36 19.7733 33.9957 17.7826 31.5349 17.7826H30.7907V13.7174C30.7907 7.79274 25.9652 3 20 3Z" fill="#417A3B"/>
</svg>
