<svg width="24" height="25" viewBox="0 0 24 25" fill="none" xmlns="http://www.w3.org/2000/svg">
<g id="Ic_Resort Style Living" clip-path="url(#clip0_18_484)">
<g id="Group">
<g id="Group_2">
<g id="Group_3">
<path id="Vector" d="M21 10.62H14.22L16.96 7.8C14.23 5.1 9.81 5 7.08 7.7C4.35 10.41 4.35 14.78 7.08 17.49C9.81 20.2 14.23 20.2 16.96 17.49C18.32 16.15 19 14.58 19 12.6H21C21 14.58 20.12 17.15 18.36 18.89C14.85 22.37 9.15 22.37 5.64 18.89C2.14 15.42 2.11 9.78 5.62 6.31C9.13 2.84 14.76 2.84 18.27 6.31L21 3.5V10.62ZM12.5 8.5V12.75L16 14.83L15.28 16.04L11 13.5V8.5H12.5Z" fill="#417A3B"/>
</g>
</g>
</g>
</g>
<defs>
<clipPath id="clip0_18_484">
<rect width="24" height="24" fill="white" transform="translate(0 0.5)"/>
</clipPath>
</defs>
</svg>
