<svg width="40" height="40" viewBox="0 0 40 40" fill="none" xmlns="http://www.w3.org/2000/svg">
<path fill-rule="evenodd" clip-rule="evenodd" d="M16.5463 11.5622C17.5754 11.3335 18.5951 11.9824 18.8238 13.0115L20.4004 20.1065H28.4133C29.0983 20.1065 29.7308 20.4735 30.0706 21.0683L33.8883 27.7491C34.4113 28.6644 34.0933 29.8305 33.178 30.3535C32.2627 30.8765 31.0967 30.5585 30.5736 29.6432L27.3056 23.9241H18.8692C17.9745 23.9241 17.1999 23.3027 17.0058 22.4294L15.097 13.8397C14.8683 12.8106 15.5172 11.7909 16.5463 11.5622Z" fill="#417A3B"/>
<path fill-rule="evenodd" clip-rule="evenodd" d="M16.0061 16.2888C16.0061 15.2346 16.8607 14.38 17.9149 14.38H21.7326C22.7868 14.38 23.6414 15.2346 23.6414 16.2888C23.6414 17.3431 22.7868 18.1976 21.7326 18.1976H17.9149C16.8607 18.1976 16.0061 17.3431 16.0061 16.2888Z" fill="#417A3B"/>
<path d="M16.1117 10.4559C17.6735 10.4559 18.9396 9.18977 18.9396 7.62796C18.9396 6.06615 17.6735 4.80005 16.1117 4.80005C14.5498 4.80005 13.2838 6.06615 13.2838 7.62796C13.2838 9.18977 14.5498 10.4559 16.1117 10.4559Z" fill="#417A3B"/>
<path fill-rule="evenodd" clip-rule="evenodd" d="M14.0163 17.8917C13.8052 17.9757 13.599 18.0703 13.3984 18.1748C11.189 19.3256 9.6651 21.6758 9.6651 24.4019C9.6651 28.2861 12.7476 31.3836 16.4874 31.3836C19.5872 31.3836 22.2336 29.2596 23.0511 26.3145L26.7163 27.3382C25.4623 31.8558 21.3749 35.2001 16.4874 35.2001C10.5903 35.2001 5.86047 30.3372 5.86047 24.4019C5.86047 20.2186 8.20445 16.5799 11.645 14.7878C11.9589 14.6243 12.282 14.4761 12.6134 14.3442L14.0163 17.8917Z" fill="#417A3B"/>
</svg>
