<svg width="24" height="24" viewBox="0 0 24 24" fill="none" xmlns="http://www.w3.org/2000/svg">
<rect opacity="0.01" width="24" height="24" fill="white"/>
<path fill-rule="evenodd" clip-rule="evenodd" d="M8.61418 4H15.594C18.164 4 20.2473 6.0467 20.2473 8.57143V15.4286C20.2473 17.9533 18.164 20 15.594 20H8.61418C6.04426 20 3.96094 17.9533 3.96094 15.4286V8.57143C3.96094 6.0467 6.04426 4 8.61418 4ZM8.61779 5.52344H15.5976C17.3109 5.52344 18.6998 6.8879 18.6998 8.57106V15.4282C18.6998 17.1114 17.3109 18.4758 15.5976 18.4758H8.61779C6.90451 18.4758 5.51562 17.1114 5.51562 15.4282V8.57106C5.51562 6.8879 6.90451 5.52344 8.61779 5.52344ZM16.3669 12.003C16.3669 9.68864 14.4572 7.8125 12.1014 7.8125C9.77966 7.89122 7.91607 9.72204 7.83594 12.003C7.83594 14.3173 9.74565 16.1935 12.1014 16.1935C14.4572 16.1935 16.3669 14.3173 16.3669 12.003ZM12.1703 9.32813C12.874 9.32772 13.5491 9.60207 14.0468 10.0908C14.5446 10.5795 14.8242 11.2425 14.8242 11.9338C14.7816 13.4156 13.5678 14.6064 12.0594 14.6462C11.3558 14.6466 10.6808 14.3722 10.1832 13.8835C9.68553 13.3948 9.40604 12.7318 9.40625 12.0405C9.4493 10.5592 10.6624 9.36875 12.1703 9.32813ZM16.5 7.5C16.5 7.08579 16.1642 6.75 15.75 6.75C15.3358 6.75 15 7.08579 15 7.5C15 7.91421 15.3358 8.25 15.75 8.25C16.1642 8.25 16.5 7.91421 16.5 7.5Z" fill="white"/>
</svg>
