<svg width="40" height="40" viewBox="0 0 40 40" fill="none" xmlns="http://www.w3.org/2000/svg">
<path d="M12.5958 25.1873V26.6021H27.4168V25.1873C27.4168 23.7389 28.5958 22.56 30.0442 22.56H31.1221V20.7747C31.1221 19.3263 29.9431 18.1473 28.4947 18.1473H11.5179C10.0694 18.1473 8.8905 19.3263 8.8905 20.7747V22.56H9.9684C11.4168 22.5263 12.5958 23.7052 12.5958 25.1873Z" fill="#417A3B"/>
<path d="M33.1094 24.1095H30.0441C29.4715 24.1095 28.9999 24.5811 28.9999 25.1537V27.8484C28.9999 28.0169 28.8652 28.1853 28.6631 28.1853H11.3494C11.181 28.1853 11.0126 28.0506 11.0126 27.8484V25.1537C11.0126 24.5811 10.541 24.1095 9.96836 24.1095H6.9031C6.33047 24.1095 5.85889 24.5811 5.85889 25.1537V32.9011C5.85889 33.4737 6.33047 33.9453 6.9031 33.9453H8.3852V35.1916C8.3852 35.6295 8.75573 36 9.19362 36H11.6526C12.0905 36 12.461 35.6295 12.461 35.1916V33.9453H27.6189V35.1916C27.6189 35.6295 27.9894 36 28.4273 36H30.8863C31.3242 36 31.6947 35.6295 31.6947 35.1916V33.9453H33.1768C33.7494 33.9453 34.221 33.4737 34.221 32.9011V25.1537C34.1536 24.5811 33.682 24.1095 33.1094 24.1095Z" fill="#417A3B"/>
<path d="M13.1684 15.0147H26.8778C27.4841 15.0147 27.9557 14.5095 27.9557 13.9368V5.07789C27.9557 4.47158 27.4505 4 26.8778 4H13.1684C12.562 4 12.0905 4.50526 12.0905 5.07789V13.9368C12.0568 14.5095 12.562 15.0147 13.1684 15.0147ZM21.7578 6.29053C22.2968 6.29053 22.7347 6.72842 22.7347 7.26737C22.7347 7.80632 22.2968 8.24421 21.7578 8.24421C21.2189 8.24421 20.781 7.80632 20.781 7.26737C20.781 6.72842 21.2189 6.29053 21.7578 6.29053ZM15.8631 11.8484L18.5915 8.04211C18.7936 7.73895 19.2652 7.73895 19.4673 8.04211L21.0505 10.2653C21.1178 10.3663 21.2862 10.3663 21.3536 10.2653L21.7241 9.76C21.9262 9.45684 22.3978 9.45684 22.5999 9.76L24.1157 11.8821C24.3852 12.2526 24.1157 12.7579 23.6778 12.7579H16.301C15.8631 12.7242 15.5936 12.2189 15.8631 11.8484Z" fill="#417A3B"/>
</svg>
