<svg width="24" height="24" viewBox="0 0 24 24" fill="none" xmlns="http://www.w3.org/2000/svg">
<rect opacity="0.01" width="24" height="24" fill="white"/>
<path fill-rule="evenodd" clip-rule="evenodd" d="M5.45514 4H18.5605C19.3598 4 20.0078 4.648 20.0078 5.44733V18.5526C20.0078 19.352 19.3598 20 18.5604 20H5.45514C4.65581 20 4.00781 19.352 4.00781 18.5526V5.44733C4.00781 4.648 4.65581 4 5.45514 4ZM8.53443 18.2332C8.76706 18.2332 8.95562 18.0447 8.95562 17.812V10.2962C8.95562 10.0636 8.76706 9.875 8.53443 9.875H6.74151C6.50888 9.875 6.32031 10.0636 6.32031 10.2962V17.812C6.32031 18.0447 6.50888 18.2332 6.74151 18.2332H8.53443ZM7.64079 9.1722C6.7001 9.1722 5.9375 8.4096 5.9375 7.46891C5.9375 6.52822 6.7001 5.76562 7.64079 5.76562C8.58148 5.76562 9.34408 6.52822 9.34408 7.46891C9.34408 8.4096 8.58152 9.1722 7.64079 9.1722ZM17.936 18.2344C18.1499 18.2344 18.3233 18.061 18.3233 17.8471V14.2096L18.3233 14.1827C18.3234 12.5958 18.3236 9.75 15.2602 9.75C13.869 9.75 13.2156 10.2593 12.7759 10.9191V10.2634C12.7759 10.0495 12.6025 9.87612 12.3887 9.87612H10.5279C10.314 9.87612 10.1406 10.0495 10.1406 10.2634V17.8471C10.1406 18.061 10.314 18.2344 10.5279 18.2344H12.3887C12.6026 18.2344 12.7759 18.061 12.7759 17.8471V13.781C12.8242 13.2346 13.0647 12.0172 14.2504 12.0172C15.6665 12.0172 15.6384 13.5434 15.6266 14.1863C15.6257 14.2374 15.6248 14.283 15.6248 14.3217V17.8471C15.6248 18.061 15.7982 18.2344 16.0121 18.2344H17.936Z" fill="white"/>
</svg>
