<svg width="80" height="80" viewBox="0 0 80 80" fill="none" xmlns="http://www.w3.org/2000/svg">
<circle cx="40" cy="40" r="38" stroke="#F37D28" stroke-width="4"/>
<g clip-path="url(#clip0_170_5850)">
<path d="M32.4246 44.945C32.2307 44.751 32.0852 44.4601 32.0368 44.1692C31.0186 44.945 30.3883 45.8177 28.0125 46.0116C27.8671 46.0116 27.8186 46.0116 27.8186 46.0116C27.5762 46.0601 27.3822 46.3026 27.3822 46.545C27.3822 46.7874 27.6246 47.0298 27.9155 46.9813H28.1095C28.158 46.9813 28.2065 46.9813 28.2549 46.9813C28.8368 46.9813 29.1762 47.1268 29.2246 47.2723C29.2731 47.3207 29.4186 47.9026 27.7216 49.5995C25.7822 51.3935 25.6368 54.3026 25.6368 54.3995C25.6368 54.545 25.6852 54.642 25.7822 54.7389C25.8792 54.8359 26.0246 54.8844 26.1216 54.8844C30.9216 54.6904 31.9398 51.4419 33.3458 51.4419C33.8307 51.4419 33.6852 52.6541 33.6852 52.751C33.6368 53.3813 34.6065 53.4783 34.6549 52.848C34.6549 52.848 34.6549 52.751 34.6549 52.6541C34.8004 50.9086 35.4307 50.0844 36.061 49.2116C36.2065 49.0177 36.3519 48.8238 36.4489 48.6298C36.158 48.5813 35.8671 48.4359 35.6731 48.2419L32.4246 44.945ZM32.3277 42.3753C33.1034 39.6116 34.3155 36.3147 36.158 33.3086C34.6065 34.1329 32.4731 34.5207 31.2125 33.2601C31.1155 33.1632 30.9701 33.1147 30.7762 33.1147C30.5822 33.1147 30.4852 33.2116 30.4368 33.3571L25.2004 43.3935C25.1034 43.5389 25.1034 43.7813 25.2489 43.9268C25.3943 44.0723 25.5883 44.1207 25.7337 44.0723L32.3277 42.3753ZM47.3095 44.5086C44.3034 46.351 41.0549 47.5632 38.2428 48.3389L36.5458 54.9329C36.4974 55.1268 36.5458 55.3207 36.6913 55.4177C36.7883 55.5147 36.8852 55.5147 36.9822 55.5147C37.0792 55.5147 37.1277 55.5147 37.2246 55.4662L47.2125 50.2298C47.358 50.1813 47.4549 50.0359 47.4549 49.8904C47.4549 49.745 47.4065 49.5995 47.3095 49.5026C46.1458 48.2419 46.4852 46.0601 47.3095 44.5086ZM42.9943 31.7571C41.9762 32.7753 41.6852 34.0844 42.2671 34.7147C42.9943 35.442 44.4489 34.7632 45.2246 33.9874C45.9519 33.2601 46.6792 31.7571 45.9519 31.0298C45.2246 30.3026 43.7701 30.9813 42.9943 31.7571ZM55.4065 25.3086C54.9216 24.7753 54.2428 24.4844 53.5155 24.4844H53.4671C51.964 24.5329 49.7337 24.7268 47.358 25.5026C48.0368 27.4904 53.1762 32.6298 55.2125 33.3086C55.9883 30.9329 56.1822 28.7026 56.2307 27.1995C56.1822 26.4723 55.9398 25.7935 55.4065 25.3086ZM33.1034 44.2662L36.4489 47.6116C36.5458 47.7086 36.6428 47.7571 36.7883 47.7571C36.8368 47.7571 36.8852 47.7571 36.9337 47.7571C39.4549 47.1268 42.5095 46.1086 45.4186 44.5571C43.1398 44.1692 40.4246 42.2783 38.5822 40.3874C37.1277 38.8844 36.2065 37.3813 35.8186 36.0238C34.461 38.7389 33.5398 41.551 32.958 43.8298C32.9095 43.9268 32.958 44.1207 33.1034 44.2662Z" fill="#F37D28"/>
<path d="M46.4394 25.7969C42.0273 27.4454 39.0213 30.3545 36.6455 34.4272C36.4516 35.7363 37.4213 37.6757 39.2637 39.6151C41.8334 42.3302 45.0334 43.9302 46.8758 43.4938C46.9243 43.4938 46.9728 43.4938 47.0213 43.4938C50.6576 41.2151 53.2758 38.306 54.8273 34.1848C52.5485 33.506 47.1667 28.1241 46.4394 25.7969ZM45.9061 34.6696C44.694 35.8817 42.7061 36.512 41.591 35.3969C40.5728 34.3787 40.9122 32.4878 42.3182 31.0817C43.5304 29.8696 45.5182 29.1908 46.6334 30.3545C47.797 31.5181 47.0697 33.506 45.9061 34.6696Z" fill="#F37D28"/>
</g>
<defs>
<clipPath id="clip0_170_5850">
<rect width="32" height="32" fill="white" transform="translate(24.668 24)"/>
</clipPath>
</defs>
</svg>
