<svg width="40" height="40" viewBox="0 0 40 40" fill="none" xmlns="http://www.w3.org/2000/svg">
<path d="M35.9108 13.9857L20.3072 3.22597C20.1142 3.09395 19.8859 3.02332 19.6521 3.02332C19.4183 3.02332 19.1899 3.09395 18.9969 3.22597L3.39317 13.9857C3.25539 14.0807 3.15159 14.2173 3.09694 14.3755C3.04229 14.5337 3.03965 14.7052 3.0894 14.865C3.13916 15.0248 3.23871 15.1645 3.3735 15.2638C3.5083 15.363 3.67129 15.4165 3.83866 15.4165H4.80448V22.2568C4.80448 22.3682 4.84872 22.475 4.92746 22.5537C5.0062 22.6325 5.11299 22.6767 5.22435 22.6767C5.3357 22.6767 5.44249 22.6325 5.52123 22.5537C5.59997 22.475 5.64421 22.3682 5.64421 22.2568V15.4165H33.5569V22.2568C33.5569 22.3682 33.6012 22.475 33.6799 22.5537C33.7587 22.6325 33.8655 22.6767 33.9768 22.6767C34.0882 22.6767 34.195 22.6325 34.2737 22.5537C34.3524 22.475 34.3967 22.3682 34.3967 22.2568V15.4165H35.4652C35.6326 15.4165 35.7956 15.363 35.9304 15.2638C36.0652 15.1646 36.1648 15.0249 36.2145 14.865C36.2643 14.7052 36.2616 14.5337 36.207 14.3755C36.1523 14.2173 36.0486 14.0807 35.9108 13.9857ZM22.4503 10.3872C22.4503 10.4201 22.4439 10.4526 22.4313 10.4829C22.4187 10.5132 22.4003 10.5408 22.3771 10.564C22.3539 10.5872 22.3263 10.6056 22.296 10.6182C22.2657 10.6307 22.2332 10.6372 22.2004 10.6372H20.7763C20.7101 10.6372 20.6465 10.6635 20.5996 10.7104C20.5527 10.7573 20.5264 10.8208 20.5264 10.8871V12.3111C20.5264 12.3774 20.5001 12.441 20.4532 12.4878C20.4063 12.5347 20.3428 12.561 20.2765 12.561H19.0275C18.9612 12.561 18.8976 12.5347 18.8507 12.4878C18.8038 12.441 18.7775 12.3774 18.7775 12.3111V10.8871C18.7775 10.8542 18.771 10.8217 18.7585 10.7914C18.7459 10.7611 18.7275 10.7335 18.7043 10.7103C18.6811 10.6871 18.6535 10.6687 18.6232 10.6562C18.5929 10.6436 18.5604 10.6371 18.5276 10.6371H17.1035C17.0707 10.6371 17.0382 10.6307 17.0079 10.6181C16.9776 10.6055 16.95 10.5871 16.9268 10.5639C16.9036 10.5407 16.8852 10.5132 16.8726 10.4828C16.8601 10.4525 16.8536 10.42 16.8536 10.3872V9.13822C16.8536 9.1054 16.8601 9.0729 16.8726 9.04257C16.8852 9.01225 16.9036 8.98469 16.9268 8.96148C16.95 8.93827 16.9776 8.91986 17.0079 8.9073C17.0382 8.89474 17.0707 8.88828 17.1035 8.88828H18.5276C18.5604 8.88828 18.5929 8.88181 18.6232 8.86925C18.6535 8.85669 18.6811 8.83828 18.7043 8.81507C18.7275 8.79187 18.7459 8.76431 18.7585 8.73399C18.771 8.70367 18.7775 8.67116 18.7775 8.63834V7.21431C18.7775 7.18149 18.784 7.14899 18.7965 7.11866C18.8091 7.08834 18.8275 7.06078 18.8507 7.03758C18.8739 7.01437 18.9015 6.99596 18.9318 6.98339C18.9621 6.97083 18.9946 6.96437 19.0275 6.96437H20.2765C20.3428 6.96437 20.4063 6.99071 20.4532 7.03758C20.5001 7.08446 20.5264 7.14803 20.5264 7.21431V8.63834C20.5264 8.70463 20.5527 8.7682 20.5996 8.81507C20.6465 8.86194 20.71 8.88828 20.7763 8.88828H22.2004C22.2332 8.88828 22.2657 8.89474 22.296 8.9073C22.3263 8.91986 22.3539 8.93827 22.3771 8.96148C22.4003 8.98469 22.4187 9.01225 22.4313 9.04257C22.4438 9.0729 22.4503 9.1054 22.4503 9.13822L22.4503 10.3872Z" fill="#417A3B"/>
<path d="M34.6346 29.45C34.6736 29.2789 34.6559 29.0998 34.5841 28.9397C33.9921 27.6178 33.3728 25.6488 32.8451 23.8969C32.3367 22.2091 31.2258 21.7462 30.6122 21.556C30.7053 21.2978 30.7528 21.0254 30.7526 20.7509C30.7526 20.6847 30.7493 20.6193 30.7438 20.5544H31.2243C31.322 20.556 31.4168 20.5215 31.4906 20.4574C31.5644 20.3933 31.6118 20.3043 31.6239 20.2073C31.6292 20.1539 31.6232 20.0999 31.6063 20.0489C31.5895 19.9978 31.5621 19.9509 31.526 19.9111C31.4899 19.8713 31.4459 19.8395 31.3968 19.8177C31.3477 19.7959 31.2946 19.7847 31.2408 19.7847H30.7526V18.6291C30.7526 18.396 30.7067 18.1653 30.6175 17.95C30.5283 17.7347 30.3976 17.539 30.2328 17.3743C30.0681 17.2095 29.8724 17.0788 29.6571 16.9896C29.4418 16.9004 29.2111 16.8545 28.978 16.8545H27.8017C27.3311 16.8545 26.8797 17.0415 26.5469 17.3743C26.2142 17.7071 26.0272 18.1584 26.0272 18.6291V19.7847H25.5556C25.4579 19.783 25.3631 19.8176 25.2893 19.8816C25.2155 19.9457 25.168 20.0347 25.1559 20.1317C25.1507 20.1851 25.1566 20.2391 25.1735 20.2902C25.1903 20.3412 25.2177 20.3881 25.2538 20.4279C25.2899 20.4678 25.3339 20.4996 25.383 20.5214C25.4321 20.5431 25.4853 20.5544 25.539 20.5544H26.0005C25.995 20.6193 25.9917 20.6847 25.9917 20.7509C25.9916 21.0045 26.0323 21.2564 26.1121 21.497C25.536 21.6619 24.6295 22.0843 24.1462 23.1523C24.0095 23.4598 23.923 23.7872 23.89 24.1221L23.8306 24.6866C23.4143 24.0146 22.8015 23.4868 22.0752 23.1747C22.1961 22.9136 22.2683 22.6327 22.2883 22.3457C22.6213 22.1711 22.8796 21.8814 23.0149 21.5306C23.1502 21.1797 23.1534 20.7917 23.0238 20.4387C22.8942 20.0857 22.6407 19.7918 22.3106 19.6119C21.9804 19.4319 21.596 19.3781 21.2292 19.4605C21.2017 19.4659 21.1734 19.4638 21.147 19.4545C21.1207 19.4451 21.0973 19.4289 21.0794 19.4074C20.9339 19.2417 20.7548 19.1088 20.5539 19.0178C20.3529 18.9268 20.1349 18.8798 19.9144 18.8798C19.6938 18.8798 19.4758 18.9268 19.2749 19.0178C19.074 19.1088 18.8948 19.2417 18.7494 19.4074C18.7315 19.4289 18.7081 19.4451 18.6818 19.4544C18.6555 19.4638 18.6271 19.4659 18.5997 19.4605C18.3817 19.4115 18.1556 19.4103 17.937 19.4569C17.7184 19.5034 17.5125 19.5967 17.3333 19.7303C17.1541 19.8639 17.006 20.0346 16.8989 20.2308C16.7919 20.427 16.7285 20.644 16.7132 20.867C16.6921 21.1672 16.7592 21.4671 16.9062 21.7298C17.0531 21.9924 17.2736 22.2065 17.5405 22.3457C17.5582 22.602 17.6176 22.8537 17.7164 23.0909C17.0433 23.3264 15.8709 23.92 15.4978 25.2672C15.4917 25.2892 15.4855 25.3103 15.4794 25.3322L15.355 24.1594C15.322 23.8245 15.2355 23.4972 15.0988 23.1897C14.6155 22.1217 13.7091 21.6994 13.133 21.5344C13.2128 21.2938 13.2534 21.0419 13.2534 20.7884C13.2534 20.7108 13.2484 20.6345 13.2411 20.5588C13.5715 20.3818 13.8265 20.0911 13.959 19.7405C14.0915 19.3899 14.0925 19.0032 13.9618 18.6519C13.8311 18.3006 13.5775 18.0086 13.248 17.8299C12.9185 17.6512 12.5355 17.598 12.1698 17.6801C12.1424 17.6855 12.114 17.6834 12.0876 17.6741C12.0613 17.6648 12.038 17.6485 12.0201 17.6271C11.8746 17.4613 11.6954 17.3285 11.4945 17.2375C11.2936 17.1465 11.0756 17.0994 10.8551 17.0994C10.6345 17.0994 10.4165 17.1465 10.2156 17.2375C10.0147 17.3285 9.83557 17.4613 9.6901 17.6271C9.67215 17.6485 9.64878 17.6647 9.62244 17.674C9.5961 17.6833 9.56774 17.6854 9.54031 17.6801C9.32225 17.6312 9.09619 17.63 8.87763 17.6766C8.65906 17.7232 8.45315 17.8165 8.27399 17.95C8.09483 18.0836 7.94667 18.2544 7.83963 18.4505C7.7326 18.6467 7.66924 18.8637 7.65388 19.0867C7.63269 19.391 7.70197 19.6949 7.853 19.96C8.00403 20.2251 8.23007 20.4396 8.50269 20.5766C8.49647 20.6465 8.49236 20.717 8.49236 20.7884C8.49218 21.0629 8.5397 21.3353 8.63279 21.5935C8.01921 21.7836 6.90835 22.2465 6.39988 23.9344C5.87215 25.6862 5.25285 27.6553 4.66089 28.9773C4.58908 29.1373 4.57133 29.3164 4.61032 29.4875C4.386 29.5862 4.19514 29.7479 4.0609 29.953C3.92665 30.1581 3.85478 30.3977 3.854 30.6428V31.0603C3.854 31.1624 3.89455 31.2603 3.96673 31.3325C4.03891 31.4046 4.1368 31.4452 4.23888 31.4452C4.34095 31.4452 4.43884 31.4046 4.51102 31.3325C4.5832 31.2603 4.62375 31.1624 4.62375 31.0603V30.6428C4.62415 30.5132 4.67548 30.389 4.76666 30.2968C4.85784 30.2047 4.98156 30.1522 5.11116 30.1504C5.1129 30.1504 5.11461 30.1504 5.11636 30.1504C5.24692 30.1504 5.37213 30.2023 5.46443 30.2947C5.55673 30.387 5.60857 30.5122 5.60855 30.6428V36.8882C5.60855 36.9903 5.64909 37.0882 5.72127 37.1604C5.79345 37.2326 5.89134 37.2731 5.99342 37.2731C6.09549 37.2731 6.19339 37.2326 6.26556 37.1604C6.33774 37.0882 6.37829 36.9903 6.37829 36.8882V30.6926C6.44902 30.713 6.52224 30.7236 6.59588 30.7241C6.68554 30.724 6.77457 30.709 6.85935 30.6798C6.96179 30.6452 7.05618 30.5902 7.13688 30.5182C7.21758 30.4462 7.28293 30.3586 7.32903 30.2608C7.5049 29.8908 7.77107 29.2943 8.03859 28.5587C8.03972 28.5558 8.06113 28.4992 8.0975 28.4014L7.50277 36.5014C7.49552 36.6 7.50869 36.6991 7.54146 36.7924C7.57423 36.8857 7.62589 36.9713 7.69321 37.0437C7.76053 37.1162 7.84207 37.174 7.93273 37.2135C8.0234 37.253 8.12123 37.2734 8.22014 37.2734H9.86015C10.0433 37.2731 10.2195 37.2031 10.3529 37.0776C10.4863 36.9521 10.5668 36.7804 10.5781 36.5976L10.6143 31.6812C10.627 31.3404 10.796 31.291 10.866 31.2857H10.9274C10.9994 31.2912 11.1772 31.3421 11.1804 31.711L11.2185 36.5976C11.2298 36.7804 11.3103 36.9521 11.4437 37.0776C11.5771 37.2031 11.7533 37.2731 11.9365 37.2734H13.5786C13.6771 37.2734 13.7746 37.2532 13.865 37.2139C13.9554 37.1747 14.0368 37.1173 14.104 37.0453C14.1713 36.9733 14.2231 36.8883 14.2562 36.7955C14.2892 36.7026 14.3029 36.604 14.2962 36.5057L13.8204 29.4525C13.8285 29.4998 13.841 29.5462 13.8576 29.5913C13.8992 29.7023 13.9657 29.8024 14.052 29.8837C14.1383 29.965 14.2422 30.0254 14.3555 30.0603L14.8803 30.2235C14.9625 30.2998 15.0287 30.3917 15.0749 30.4939C15.1212 30.5961 15.1465 30.7065 15.1495 30.8187V36.851C15.1495 36.9531 15.19 37.051 15.2622 37.1232C15.3344 37.1953 15.4323 37.2359 15.5343 37.2359C15.6364 37.2359 15.7343 37.1953 15.8065 37.1232C15.8787 37.051 15.9192 36.9531 15.9192 36.851V30.8187C15.9189 30.6651 15.8941 30.5126 15.8455 30.367C15.8538 30.3125 15.8756 30.2609 15.9091 30.2172C17.1504 28.171 17.1748 26.7888 17.1749 26.7751C17.1755 26.6947 17.2078 26.6178 17.2648 26.5611C17.3218 26.5044 17.3989 26.4725 17.4793 26.4724H17.4805C17.561 26.4725 17.6381 26.5046 17.695 26.5616C17.7518 26.6185 17.7838 26.6957 17.7838 26.7762C17.7838 26.8348 17.7697 28.1585 16.6493 30.1561L16.4441 32.8051C16.44 32.858 16.4469 32.9112 16.4643 32.9613C16.4817 33.0114 16.5093 33.0573 16.5453 33.0963C16.5814 33.1352 16.6251 33.1663 16.6737 33.1875C16.7223 33.2087 16.7748 33.2197 16.8278 33.2197H17.5761L17.7083 36.5992C17.7146 36.7704 17.7871 36.9325 17.9106 37.0513C18.0341 37.17 18.1989 37.2361 18.3702 37.2356H21.2778C21.4492 37.2361 21.614 37.17 21.7375 37.0512C21.861 36.9325 21.9335 36.7704 21.9397 36.5992L22.072 33.2197H22.8424C22.8964 33.2197 22.9498 33.2083 22.9991 33.1863C23.0485 33.1643 23.0926 33.1322 23.1287 33.092C23.1648 33.0518 23.192 33.0044 23.2086 32.953C23.2252 32.9016 23.2308 32.8472 23.225 32.7935L23.0925 31.5642C22.6884 31.4933 22.3004 31.3503 21.9468 31.1422C21.7356 31.0089 21.58 30.8035 21.5089 30.5641C21.4378 30.3247 21.456 30.0677 21.5602 29.8407C21.9876 28.9064 22.1108 27.8615 21.9123 26.8534C21.8924 26.7756 21.9041 26.693 21.9448 26.6237C21.9855 26.5545 22.052 26.5041 22.1297 26.4836C22.2074 26.4632 22.29 26.4742 22.3596 26.5144C22.4291 26.5547 22.48 26.6207 22.501 26.6983C22.5185 26.7643 22.9199 28.3358 22.1136 30.0944C22.0708 30.1868 22.063 30.2917 22.0916 30.3894C22.1203 30.4872 22.1835 30.5712 22.2694 30.6259C22.478 30.7562 22.8358 30.9121 23.4233 31.0042H25.3174L24.9488 36.4681C24.9421 36.5664 24.9557 36.6651 24.9888 36.7579C25.0218 36.8507 25.0736 36.9358 25.1409 37.0078C25.2082 37.0798 25.2896 37.1372 25.38 37.1764C25.4704 37.2156 25.5679 37.2359 25.6664 37.2359H27.3085C27.4917 37.2356 27.6679 37.1656 27.8013 37.04C27.9347 36.9145 28.0152 36.7428 28.0265 36.56L28.0631 31.5282C28.0631 31.4534 28.0928 31.3817 28.1456 31.3287C28.1985 31.2758 28.2702 31.2461 28.345 31.2461C28.4198 31.2461 28.4916 31.2757 28.5445 31.3286C28.5974 31.3815 28.6271 31.4532 28.6272 31.528L28.6669 36.56C28.6782 36.7429 28.7587 36.9145 28.8921 37.0401C29.0255 37.1656 29.2017 37.2357 29.3848 37.2359H31.0129C31.0622 37.2364 31.1114 37.232 31.1599 37.2228C31.3331 37.1898 31.4882 37.0942 31.5956 36.9543C31.703 36.8144 31.7551 36.6399 31.7422 36.464L31.1475 28.364C31.183 28.4594 31.2038 28.5143 31.2046 28.5164C31.4689 29.2433 31.73 29.8307 31.9057 30.2018C31.9944 30.3958 32.1536 30.5488 32.3511 30.6297C32.446 30.6671 32.5471 30.6864 32.6491 30.6866C32.7227 30.6861 32.7959 30.6755 32.8666 30.6551V36.8342C32.865 36.9319 32.8995 37.0267 32.9636 37.1005C33.0277 37.1743 33.1168 37.2218 33.2137 37.2338C33.2672 37.2391 33.3212 37.2331 33.3722 37.2162C33.4232 37.1994 33.4701 37.172 33.5099 37.136C33.5497 37.0999 33.5816 37.0559 33.6033 37.0067C33.6251 36.9576 33.6364 36.9045 33.6364 36.8508V30.6222C33.6343 30.4966 33.6782 30.3747 33.7598 30.2792C33.8058 30.2268 33.8626 30.1848 33.9262 30.1562C33.9898 30.1275 34.0589 30.1127 34.1287 30.1129C34.1304 30.1129 34.1321 30.1129 34.1338 30.1129C34.2634 30.1147 34.3871 30.1672 34.4783 30.2594C34.5695 30.3515 34.6208 30.4757 34.6212 30.6053V31.0063C34.6196 31.104 34.6541 31.1988 34.7182 31.2726C34.7823 31.3463 34.8713 31.3938 34.9683 31.4059C35.0218 31.4111 35.0757 31.4052 35.1267 31.3883C35.1778 31.3714 35.2247 31.3441 35.2645 31.308C35.3043 31.2719 35.3361 31.2279 35.3579 31.1788C35.3797 31.1297 35.3909 31.0766 35.3909 31.0228V30.6053C35.3902 30.3602 35.3183 30.1206 35.1841 29.9155C35.0498 29.7105 34.859 29.5487 34.6346 29.45ZM8.63037 19.7261C8.53008 19.6188 8.46209 19.4854 8.43421 19.3412C8.40633 19.197 8.41969 19.0479 8.47275 18.9109C8.52581 18.774 8.61642 18.6548 8.73418 18.567C8.85193 18.4793 8.99205 18.4265 9.13845 18.4148C9.21662 18.4086 9.29528 18.4142 9.37182 18.4312C9.53411 18.4669 9.70301 18.4582 9.8608 18.4061C10.0186 18.354 10.1594 18.2603 10.2685 18.135C10.3417 18.0515 10.4319 17.9846 10.5331 17.9387C10.6343 17.8929 10.744 17.8692 10.8551 17.8692C10.9662 17.8692 11.076 17.8929 11.1771 17.9387C11.2783 17.9846 11.3685 18.0515 11.4417 18.135C11.5508 18.2603 11.6916 18.354 11.8494 18.4061C12.0071 18.4582 12.176 18.4669 12.3383 18.4312C12.4149 18.4141 12.4936 18.4086 12.5718 18.4148C12.7181 18.4265 12.8583 18.4793 12.976 18.567C13.0938 18.6548 13.1844 18.774 13.2374 18.9109C13.2905 19.0478 13.3039 19.197 13.276 19.3411C13.2481 19.4853 13.1801 19.6187 13.0799 19.726C13.0046 19.8066 12.9131 19.8703 12.8114 19.913C12.7097 19.9556 12.6001 19.9762 12.4898 19.9734C12.3796 19.9707 12.2712 19.9445 12.1717 19.8968C12.0723 19.8491 11.9841 19.7808 11.913 19.6966C11.8298 19.5989 11.7261 19.5206 11.6094 19.4672C11.4927 19.4139 11.3657 19.3867 11.2374 19.3876C11.1671 19.3876 11.097 19.3956 11.0284 19.4112C10.9143 19.4369 10.7959 19.4369 10.6818 19.4112C10.5224 19.3728 10.3554 19.3791 10.1994 19.4294C10.0433 19.4798 9.90414 19.5722 9.79722 19.6966C9.72609 19.7808 9.63791 19.8491 9.53849 19.8968C9.43907 19.9445 9.33066 19.9707 9.22042 19.9734C9.11017 19.9762 9.00058 19.9556 8.89888 19.913C8.79717 19.8703 8.70566 19.8067 8.63037 19.7261ZM12.4837 20.7884C12.4841 21.0003 12.4428 21.2101 12.362 21.4059C12.2813 21.6017 12.1627 21.7797 12.0131 21.9296C11.8635 22.0795 11.6857 22.1985 11.4901 22.2796C11.2944 22.3608 11.0847 22.4026 10.8729 22.4026C10.6611 22.4026 10.4514 22.3608 10.2557 22.2796C10.0601 22.1985 9.88235 22.0795 9.73273 21.9296C9.58311 21.7797 9.46454 21.6017 9.38379 21.4059C9.30303 21.2101 9.2617 21.0003 9.26214 20.7884C9.26214 20.7727 9.26378 20.7574 9.26424 20.7417C9.47891 20.7332 9.68945 20.68 9.88243 20.5856C10.0754 20.4912 10.2466 20.3576 10.3852 20.1934C10.4014 20.1773 10.4217 20.166 10.4438 20.1604C10.4659 20.1549 10.4891 20.1553 10.511 20.1618C10.7376 20.2129 10.9726 20.2129 11.1992 20.1618C11.2211 20.1554 11.2443 20.1549 11.2664 20.1604C11.2886 20.166 11.3088 20.1774 11.3251 20.1934C11.4676 20.3622 11.6445 20.4986 11.8441 20.5934C12.0436 20.6881 12.2612 20.7391 12.482 20.7427C12.4825 20.758 12.4837 20.7731 12.4837 20.7884ZM13.9205 28.9127C13.8527 29.0242 13.8143 29.151 13.8089 29.2813L13.5487 25.4256C13.5458 25.3748 13.5328 25.3252 13.5106 25.2795C13.4883 25.2337 13.4572 25.1929 13.4191 25.1593C13.3809 25.1256 13.3365 25.0999 13.2884 25.0835C13.2402 25.0671 13.1893 25.0605 13.1386 25.0639C13.0879 25.0673 13.0383 25.0808 12.9928 25.1034C12.9473 25.1261 12.9068 25.1576 12.8735 25.196C12.8402 25.2345 12.8149 25.2791 12.799 25.3274C12.7831 25.3757 12.7769 25.4267 12.7808 25.4774L12.898 27.215H8.95643L9.08337 25.4863L9.08344 25.4854L9.08384 25.4796C9.0841 25.4762 9.08391 25.4729 9.08408 25.4694C9.0845 25.4606 9.08487 25.4518 9.08468 25.4431C9.0846 25.4383 9.08412 25.4336 9.08384 25.4288C9.0834 25.4211 9.08296 25.4133 9.08204 25.4057C9.08134 25.3997 9.08026 25.3939 9.07924 25.3881C9.07818 25.3818 9.0772 25.3755 9.07584 25.3692C9.07437 25.3625 9.07253 25.356 9.07072 25.3494C9.06926 25.3441 9.06792 25.3388 9.06622 25.3336C9.064 25.3267 9.06142 25.32 9.05884 25.3133C9.05696 25.3085 9.05519 25.3036 9.05314 25.2989C9.05034 25.2924 9.04719 25.2861 9.04404 25.2798C9.04161 25.275 9.03928 25.2701 9.03666 25.2654C9.03348 25.2596 9.03003 25.2541 9.0266 25.2486C9.02343 25.2435 9.0203 25.2384 9.01691 25.2334C9.01358 25.2286 9.01 25.224 9.00647 25.2193C9.00245 25.214 8.99846 25.2087 8.99415 25.2036C8.99075 25.1995 8.98716 25.1957 8.98358 25.1918C8.97875 25.1865 8.97389 25.1812 8.96875 25.1762C8.96513 25.1726 8.96129 25.1693 8.95755 25.1659C8.95217 25.161 8.94681 25.1562 8.94113 25.1516C8.93687 25.1482 8.93239 25.145 8.92796 25.1418C8.9225 25.1377 8.91708 25.1337 8.91136 25.1299C8.90594 25.1264 8.9003 25.1231 8.89468 25.1198C8.88969 25.1169 8.88477 25.1139 8.87963 25.1112C8.87251 25.1074 8.86515 25.1041 8.85776 25.1008C8.85375 25.099 8.84983 25.097 8.84573 25.0953C8.83713 25.0918 8.82824 25.0888 8.81933 25.0859C8.81653 25.085 8.81391 25.0838 8.81107 25.083L8.80919 25.0825C8.80173 25.0803 8.79406 25.0786 8.7864 25.0768C8.7808 25.0755 8.7752 25.074 8.76961 25.073C8.76535 25.0722 8.76098 25.0718 8.75667 25.0711C8.74758 25.0697 8.73848 25.0685 8.72943 25.0677L8.72815 25.0676C8.72647 25.0675 8.72483 25.0676 8.72316 25.0675C8.71185 25.0668 8.70057 25.0665 8.68939 25.0668C8.68832 25.0668 8.68729 25.0669 8.68624 25.067C8.67443 25.0674 8.66274 25.0683 8.65113 25.0698C8.64966 25.0699 8.64821 25.0702 8.64672 25.0705C8.63583 25.072 8.62503 25.0739 8.61436 25.0763C8.61201 25.0768 8.60974 25.0775 8.60737 25.0781C8.59773 25.0805 8.58818 25.0831 8.57879 25.0863C8.57578 25.0873 8.57287 25.0884 8.5699 25.0895C8.56127 25.0926 8.55275 25.0959 8.54439 25.0996C8.54111 25.101 8.53797 25.1026 8.53474 25.1042C8.52685 25.1079 8.51904 25.1118 8.51142 25.1161C8.50817 25.1179 8.50503 25.1199 8.50182 25.1218C8.49447 25.1263 8.48722 25.1308 8.48016 25.1357C8.47705 25.1379 8.47406 25.1402 8.471 25.1424C8.46417 25.1475 8.45742 25.1527 8.45091 25.1582C8.44795 25.1607 8.44514 25.1634 8.44225 25.166C8.43605 25.1716 8.42991 25.1772 8.42405 25.1832C8.42108 25.1863 8.41828 25.1895 8.41541 25.1927C8.41008 25.1986 8.40482 25.2044 8.39983 25.2106C8.39664 25.2146 8.39368 25.2188 8.39064 25.2229C8.38644 25.2286 8.38224 25.2342 8.37834 25.2402C8.37484 25.2455 8.37166 25.251 8.36841 25.2566C8.36542 25.2616 8.36236 25.2666 8.3596 25.2719C8.35596 25.2788 8.35275 25.2859 8.34952 25.2931C8.34758 25.2974 8.34552 25.3015 8.34372 25.3059C8.34041 25.314 8.33759 25.3224 8.33482 25.3308C8.33376 25.334 8.33241 25.3371 8.33143 25.3403L8.32958 25.3464V25.3466C7.93141 26.6661 7.32489 28.2699 7.31697 28.2907C7.058 29.0028 6.80252 29.5753 6.63384 29.9303C6.63156 29.9353 6.62828 29.9398 6.62419 29.9434C6.6201 29.9471 6.6153 29.9498 6.61009 29.9516C6.60487 29.9534 6.59932 29.9542 6.5938 29.9538C6.58827 29.9534 6.58289 29.9519 6.57798 29.9493L5.38239 29.3453C5.37295 29.3405 5.3657 29.3323 5.36217 29.3224C5.35864 29.3124 5.35909 29.3015 5.36342 29.2918C5.97319 27.9301 6.6021 25.9317 7.1369 24.1565C7.57631 22.6978 8.51361 22.4276 9.01718 22.2825L9.02077 22.2816C9.24668 22.5626 9.53355 22.7884 9.85966 22.9421C10.1858 23.0958 10.5426 23.1733 10.9031 23.1688C11.2635 23.1642 11.6183 23.0777 11.9404 22.9158C12.2625 22.7538 12.5435 22.5208 12.7623 22.2342C13.1703 22.3232 13.9916 22.6101 14.3975 23.5072C14.5003 23.7398 14.5651 23.9873 14.5896 24.2404L14.8875 27.0506C14.6121 27.6946 14.2888 28.317 13.9205 28.9127ZM19.4392 36.4659H18.4734L18.3463 33.2196H19.4392V36.4659ZM21.1746 36.4659H20.2089V33.2196H21.3017L21.1746 36.4659ZM19.9144 23.7882C19.5471 23.7877 19.1911 23.6619 18.905 23.4316C18.6189 23.2013 18.42 22.8803 18.341 22.5216C18.5526 22.5107 18.7598 22.4565 18.9495 22.3622C19.1393 22.268 19.3077 22.1358 19.4443 21.9738C19.4606 21.9577 19.481 21.9463 19.5032 21.9408C19.5254 21.9352 19.5487 21.9357 19.5706 21.9423C19.7971 21.9934 20.0321 21.9934 20.2585 21.9421C20.2804 21.9358 20.3036 21.9353 20.3257 21.9409C20.3478 21.9464 20.3681 21.9577 20.3844 21.9737C20.521 22.1357 20.6894 22.2679 20.8792 22.3622C21.069 22.4565 21.2761 22.5107 21.4878 22.5217C21.4088 22.8803 21.2099 23.2013 20.9238 23.4316C20.6377 23.6619 20.2816 23.7877 19.9144 23.7882ZM21.5687 21.7541C21.4551 21.7542 21.3428 21.7294 21.2398 21.6815C21.1368 21.6336 21.0455 21.5637 20.9723 21.4768C20.889 21.3792 20.7854 21.301 20.6687 21.2476C20.552 21.1942 20.4251 21.1671 20.2968 21.1679C20.2265 21.168 20.1564 21.1759 20.0879 21.1915C19.9738 21.2172 19.8553 21.2173 19.7411 21.1916C19.5817 21.1532 19.4147 21.1595 19.2586 21.2098C19.1025 21.2601 18.9634 21.3525 18.8564 21.4769C18.7735 21.5751 18.6676 21.6513 18.5482 21.6987C18.4287 21.7462 18.2994 21.7634 18.1717 21.7489C18.044 21.7344 17.9219 21.6885 17.8162 21.6155C17.7104 21.5424 17.6244 21.4444 17.5656 21.3301C17.5069 21.2158 17.4773 21.0887 17.4794 20.9602C17.4816 20.8317 17.5154 20.7057 17.578 20.5934C17.6405 20.4811 17.7298 20.386 17.8379 20.3165C17.946 20.2471 18.0696 20.2053 18.1977 20.1951C18.2759 20.189 18.3546 20.1945 18.4312 20.2116C18.5934 20.2473 18.7623 20.2387 18.9201 20.1866C19.0779 20.1345 19.2187 20.0408 19.3277 19.9154C19.4009 19.8318 19.4912 19.7649 19.5923 19.7191C19.6935 19.6732 19.8033 19.6495 19.9144 19.6495C20.0254 19.6495 20.1352 19.6732 20.2364 19.7191C20.3376 19.7649 20.4278 19.8318 20.501 19.9154C20.6101 20.0406 20.751 20.1343 20.9087 20.1864C21.0665 20.2385 21.2354 20.2472 21.3977 20.2116C21.4742 20.1945 21.5528 20.189 21.631 20.1951C21.7774 20.2068 21.9176 20.2596 22.0353 20.3474C22.1531 20.4351 22.2437 20.5543 22.2967 20.6913C22.3498 20.8282 22.3631 20.9774 22.3353 21.1216C22.3074 21.2658 22.2394 21.3992 22.1391 21.5065C22.0663 21.585 21.9781 21.6475 21.8799 21.6902C21.7817 21.7328 21.6757 21.7546 21.5687 21.7541ZM26.9606 20.5544H29.7836C29.8358 20.554 29.886 20.5742 29.9233 20.6106C29.9606 20.6471 29.982 20.6968 29.9829 20.7489V20.7509C29.9833 20.9627 29.942 21.1726 29.8612 21.3684C29.7805 21.5642 29.6619 21.7422 29.5123 21.8921C29.3627 22.042 29.1849 22.161 28.9893 22.2421C28.7936 22.3233 28.5839 22.3651 28.3721 22.3651C28.1603 22.3651 27.9506 22.3233 27.7549 22.2421C27.5593 22.161 27.3815 22.042 27.2319 21.8921C27.0823 21.7422 26.9637 21.5642 26.883 21.3684C26.8022 21.1726 26.7609 20.9627 26.7613 20.7509V20.7489C26.7622 20.6968 26.7836 20.6471 26.8209 20.6106C26.8582 20.5742 26.9084 20.554 26.9606 20.5544ZM33.8624 29.3079L32.667 29.9118C32.6621 29.9143 32.6567 29.9158 32.6512 29.9162C32.6458 29.9166 32.6402 29.9159 32.635 29.9141C32.6298 29.9124 32.625 29.9096 32.6209 29.9059C32.6168 29.9022 32.6135 29.8978 32.6111 29.8928C32.4425 29.5382 32.1871 28.966 31.9261 28.2484C31.9201 28.2324 31.3118 26.6243 30.9135 25.3029C30.9123 25.2989 30.9107 25.2952 30.9093 25.2912C30.9068 25.2838 30.9044 25.2763 30.9014 25.2691C30.8991 25.2633 30.8964 25.2578 30.8938 25.2522C30.8912 25.2466 30.8887 25.241 30.8859 25.2356C30.8821 25.2283 30.8779 25.2213 30.8736 25.2143C30.8716 25.211 30.8697 25.2076 30.8675 25.2043C30.8621 25.1959 30.8563 25.1879 30.8503 25.1801C30.849 25.1784 30.8478 25.1767 30.8465 25.175C30.8395 25.1663 30.8322 25.1579 30.8246 25.1499L30.8227 25.1478C30.8145 25.1392 30.806 25.1311 30.7971 25.1235L30.7962 25.1227C30.7871 25.1148 30.7776 25.1074 30.7679 25.1005L30.7672 25.1C30.7574 25.0931 30.7473 25.0866 30.737 25.0807L30.7359 25.08C30.7256 25.0742 30.7151 25.0688 30.7043 25.0639L30.7027 25.0631C30.692 25.0583 30.681 25.054 30.6698 25.0501L30.6678 25.0494C30.6566 25.0456 30.6451 25.0424 30.6335 25.0396L30.6317 25.0392C30.62 25.0364 30.6081 25.0343 30.596 25.0327L30.5943 25.0324C30.5825 25.0309 30.5705 25.0299 30.5585 25.0295C30.5575 25.0295 30.5565 25.0294 30.5555 25.0294C30.5449 25.0291 30.5342 25.0294 30.5235 25.03C30.5213 25.0301 30.5191 25.03 30.5168 25.0301L30.515 25.0304C30.5068 25.031 30.4985 25.0322 30.4902 25.0335C30.4851 25.0342 30.48 25.0347 30.475 25.0356C30.4699 25.0366 30.4647 25.038 30.4596 25.0391C30.4516 25.0409 30.4436 25.0427 30.4358 25.045L30.4339 25.0455C30.4311 25.0464 30.4284 25.0475 30.4256 25.0484C30.4167 25.0514 30.4078 25.0543 30.3992 25.0579C30.3951 25.0595 30.3912 25.0615 30.3872 25.0633C30.3798 25.0666 30.3724 25.0699 30.3653 25.0737C30.3602 25.0764 30.3553 25.0794 30.3503 25.0824C30.3447 25.0857 30.339 25.0889 30.3336 25.0925C30.3279 25.0962 30.3225 25.1003 30.317 25.1043C30.3126 25.1076 30.3081 25.1107 30.3038 25.1142C30.2982 25.1187 30.2928 25.1236 30.2874 25.1284C30.2836 25.1318 30.2798 25.1352 30.2762 25.1387C30.271 25.1438 30.2662 25.149 30.2614 25.1543C30.2578 25.1582 30.2542 25.1621 30.2508 25.1661C30.2465 25.1712 30.2425 25.1765 30.2385 25.1818C30.2349 25.1865 30.2314 25.1911 30.228 25.196C30.2246 25.2009 30.2215 25.206 30.2183 25.2111C30.2149 25.2166 30.2114 25.2222 30.2083 25.2279C30.2057 25.2327 30.2033 25.2375 30.2009 25.2424C30.1977 25.2487 30.1946 25.255 30.1918 25.2614C30.1897 25.2662 30.188 25.271 30.1861 25.2759C30.1835 25.2826 30.1809 25.2893 30.1787 25.2962C30.177 25.3014 30.1757 25.3067 30.1742 25.312C30.1724 25.3185 30.1706 25.3251 30.1691 25.3318C30.1677 25.338 30.1667 25.3443 30.1657 25.3506C30.1647 25.3565 30.1636 25.3623 30.1629 25.3682C30.162 25.3759 30.1615 25.3836 30.1611 25.3914C30.1608 25.3961 30.1604 25.4008 30.1602 25.4056C30.1601 25.4144 30.1604 25.4232 30.1608 25.432C30.161 25.4354 30.1608 25.4388 30.1611 25.4422L30.1615 25.448L30.1616 25.4488L30.2885 27.1775H26.347L26.4631 25.4567C26.4713 25.3594 26.4433 25.2625 26.3845 25.1846C26.3256 25.1066 26.2401 25.0532 26.1442 25.0345C26.0912 25.0256 26.0369 25.0279 25.9848 25.0412C25.9328 25.0546 25.884 25.0787 25.8418 25.112C25.7997 25.1453 25.7649 25.1871 25.7398 25.2347C25.7147 25.2822 25.6999 25.3345 25.6963 25.3881L25.3693 30.2345H24.0962C24.534 28.6066 24.5935 27.3374 24.4299 26.3483L24.6555 24.2028C24.6799 23.9497 24.7447 23.7023 24.8474 23.4697C25.2534 22.5726 26.0747 22.2858 26.4827 22.1968C26.7015 22.4833 26.9825 22.7164 27.3046 22.8783C27.6268 23.0403 27.9815 23.1268 28.342 23.1313C28.7025 23.1359 29.0593 23.0584 29.3854 22.9047C29.7115 22.7509 29.9984 22.5251 30.2243 22.2441L30.2266 22.2446L30.2278 22.2451C30.7314 22.3902 31.6687 22.6604 32.1081 24.119C32.6429 25.8944 33.2719 27.8929 33.8817 29.2546C33.886 29.2643 33.8864 29.2752 33.8828 29.2851C33.8792 29.2951 33.8719 29.3032 33.8624 29.3079Z" fill="#417A3B"/>
</svg>
