<svg width="40" height="40" viewBox="0 0 40 40" fill="none" xmlns="http://www.w3.org/2000/svg">
<path d="M22.4636 11.1213C23.9933 11.1213 25.3276 9.81196 25.3276 8.26657C25.3276 6.7188 23.9933 5.41064 22.4636 5.41064C20.9347 5.41064 19.6382 6.7188 19.6382 8.26657C19.6382 9.81196 20.9347 11.1213 22.4636 11.1213Z" fill="#417A3B"/>
<path d="M26.8504 17.4402L23.3293 15.6099L21.8004 12.4547C21.6535 11.9771 21.3789 11.5322 20.9774 11.1789C19.8293 10.1688 18.0891 10.2908 17.0899 11.4497L13.1242 16.0472C12.3867 16.9042 12.2586 18.0864 12.7035 19.0543C12.7281 19.1463 12.7582 19.2375 12.7942 19.3275L15.5254 26.1162L13.7121 32.1174C13.3551 33.3004 14.0141 34.5521 15.1848 34.9129C15.4 34.9796 15.6184 35.0104 15.8324 35.0104C16.7813 35.0104 17.6602 34.3902 17.9508 33.4251L19.9957 26.6633C20.1434 26.171 20.1207 25.6425 19.9281 25.1649L17.5883 19.3508L19.9578 16.601L20.4774 17.6727C20.643 18.0134 20.9149 18.2909 21.2484 18.4626L24.6758 20.2085C24.6758 20.8871 24.6758 33.329 24.6758 33.776C24.6758 34.2359 24.7602 35.0104 25.7535 35.0104C26.7473 35.0104 26.8305 34.2099 26.8305 33.776C26.8305 33.1431 26.8305 20.805 26.8305 20.2012C27.007 20.0712 27.1684 19.8926 27.2973 19.6468C27.9016 18.4922 27.3067 17.7497 26.8504 17.4402Z" fill="#417A3B"/>
</svg>
