<svg width="40" height="40" viewBox="0 0 40 40" fill="none" xmlns="http://www.w3.org/2000/svg">
<path d="M22.964 12.3984C23.5296 12.3984 24.1016 12.5524 24.5196 12.8532L27.5996 15.6748C28.3728 16.232 29.5752 17.2176 30.2732 17.8656L33.0704 20.4656L38.0024 14.7496L30.3372 7.41204L28.492 9.22324C28.492 9.22324 27.8752 9.08364 27.446 8.87524L24.5552 7.46884C24.2036 7.29764 23.7708 7.21484 23.3296 7.21484C22.6952 7.21484 22.042 7.38564 21.584 7.70924L17.112 10.846C16.3344 11.3952 16.1624 12.4704 16.73 13.236L16.9952 13.594C17.3584 14.084 17.9536 14.352 18.5488 14.352C18.8832 14.352 19.2172 14.2672 19.5104 14.0904L21.632 12.736C22.0064 12.5096 22.4828 12.3984 22.964 12.3984Z" fill="#417A3B"/>
<path d="M17.7751 27.8816L17.4507 27.5736C17.1171 27.2552 16.6863 27.0972 16.2563 27.0972C15.7983 27.0972 15.3419 27.276 15.0031 27.6316L14.9979 27.6224C15.6547 26.9332 15.6283 25.8312 14.9395 25.1748L14.6159 24.8664C14.2839 24.5496 13.8563 24.3928 13.4291 24.3928C12.9971 24.3928 12.5655 24.5528 12.2323 24.8684L12.8811 24.1884C13.5387 23.4996 13.5131 22.3972 12.8227 21.7404L12.4999 21.432C12.1671 21.1148 11.7383 20.9576 11.3099 20.9576C10.8655 20.9576 10.4211 21.1264 10.0847 21.4616C10.6255 20.77 10.5719 19.764 9.92391 19.146L9.60191 18.8388C9.26751 18.52 8.83671 18.3624 8.40671 18.3624C7.94871 18.3624 7.49191 18.5412 7.15311 18.8968L3.90112 22.306C3.24352 22.9952 3.26952 24.0968 3.96032 24.7536L4.28271 25.0612C4.61431 25.3772 5.04071 25.5336 5.46671 25.5336C5.85911 25.5336 6.25191 25.4012 6.57111 25.1404L5.71432 26.0384C5.05752 26.728 5.08391 27.8296 5.77231 28.4868L6.09712 28.7948C6.43111 29.1132 6.86152 29.2712 7.29112 29.2712C7.74911 29.2712 8.20591 29.0924 8.54471 28.7368L9.21351 28.0352C8.61871 28.7268 8.65751 29.7772 9.32551 30.414L9.64991 30.7224C9.98351 31.0404 10.4139 31.1984 10.8435 31.1984C11.3019 31.1984 11.7587 31.0192 12.0975 30.6636L13.1727 29.552C12.5151 30.2412 12.5407 31.3428 13.2307 32.0004L13.5543 32.3084C13.8879 32.6272 14.3187 32.7848 14.7483 32.7848C15.2063 32.7848 15.6631 32.606 16.0023 32.25L17.8335 30.33C18.4903 29.6408 18.4635 28.5388 17.7751 27.8816Z" fill="#417A3B"/>
<path d="M33.0208 22.0972L28.6468 18.034C28.0536 17.532 27.3792 16.9948 26.898 16.648L26.8408 16.6068L26.7888 16.5592L23.7732 13.7968C23.574 13.6736 23.2704 13.5984 22.964 13.5984C22.6936 13.5984 22.4328 13.6572 22.2616 13.7572L20.1556 15.1016L20.1428 15.1096L20.13 15.1176C19.6596 15.4016 19.1124 15.552 18.5484 15.552C17.5496 15.552 16.6084 15.0872 16.0308 14.3092L15.7656 13.9512C15.2968 13.3188 15.1072 12.544 15.2316 11.7696C15.3556 10.9956 15.7772 10.32 16.4228 9.86402L18.1916 8.62282C17.3752 8.24802 16.05 8.23202 15.198 8.59722C15.198 8.59722 14.2532 9.01202 13.9508 9.14002C13.2472 9.43842 12.2632 9.43402 12.2632 9.43402L9.95276 7.28162L1.99756 15.1852L5.58916 18.7976L6.28476 18.0684C6.83396 17.4928 7.60756 17.162 8.40716 17.162C9.16516 17.162 9.88356 17.4488 10.4308 17.9704L10.7528 18.2776C11.1916 18.696 11.4736 19.2184 11.5932 19.7708C12.244 19.8328 12.852 20.1092 13.33 20.5644L13.6504 20.8708C14.2168 21.41 14.5392 22.1384 14.558 22.9232C14.562 23.0864 14.5524 23.248 14.5308 23.406C14.8668 23.5428 15.1768 23.742 15.4456 23.998L15.7684 24.306C16.2396 24.7552 16.528 25.3248 16.632 25.9212C17.2496 25.9996 17.824 26.2708 18.278 26.7036L18.6044 27.0136C19.5824 27.9468 19.77 29.3996 19.1528 30.5348L20.0396 31.36C20.736 32.0088 21.8376 31.9684 22.4864 31.2708L22.7896 30.944C23.4244 30.26 23.3924 29.1952 22.7348 28.544L24.9788 30.6256C25.6772 31.2732 26.7784 31.2328 27.4272 30.534L27.7304 30.2084C28.3748 29.5148 28.3376 28.4232 27.6504 27.7732L28.2272 28.31C28.9248 28.958 30.0264 28.9172 30.674 28.2192L30.9776 27.8932C31.6256 27.1952 31.5852 26.0932 30.8876 25.4452L30.4 24.9928C31.1 25.6048 32.1708 25.5576 32.8068 24.872L33.1116 24.5452C33.7588 23.8472 33.7188 22.7456 33.0208 22.0972Z" fill="#417A3B"/>
</svg>
