<svg width="24" height="24" viewBox="0 0 24 24" fill="none" xmlns="http://www.w3.org/2000/svg">
<path d="M8.30331 8.58181C8.39215 8.63706 8.47276 8.70456 8.54274 8.78233C8.62244 8.90939 8.66998 9.05396 8.68122 9.20353C8.80359 10.0458 9.1459 10.8409 9.67363 11.5086C9.93853 11.8398 10.2666 12.115 10.6388 12.3183C11.011 12.5216 11.4198 12.6489 11.8416 12.6928C11.8921 12.6972 11.9426 12.6986 11.9931 12.7C12.0436 12.6986 12.0941 12.6972 12.1446 12.6928C12.5664 12.6489 12.9752 12.5216 13.3474 12.3183C13.7196 12.115 14.0477 11.8398 14.3126 11.5086C14.8403 10.8409 15.1826 10.0458 15.305 9.20353C15.3162 9.05396 15.3638 8.90939 15.4435 8.78233C15.5135 8.70456 15.5941 8.63705 15.6829 8.58181C15.8798 8.43448 16.0449 8.24892 16.1683 8.03625C16.2917 7.82359 16.371 7.58819 16.4012 7.34418C16.4402 7.0182 16.2916 6.59126 15.9628 6.59268C16.1012 5.79068 16.2238 4.95982 16.032 4.16792C15.9056 3.68531 15.6763 3.23574 15.3599 2.85007C15.0434 2.46439 14.6473 2.15173 14.1986 1.93354C13.5132 1.60429 12.7482 1.4772 11.9931 1.56716C11.238 1.4772 10.473 1.60429 9.78757 1.93354C9.33893 2.15173 8.94279 2.46439 8.62634 2.85007C8.30988 3.23575 8.0806 3.68531 7.95421 4.16793C7.76235 4.95982 7.88498 5.79068 8.02344 6.59269C7.69455 6.59126 7.54601 7.0182 7.58492 7.34418C7.61522 7.5882 7.69446 7.82359 7.8179 8.03626C7.94134 8.24892 8.10644 8.43448 8.30331 8.58181Z" fill="#231823"/>
<path d="M20.5853 17.6314L20.3702 16.3207C20.325 16.0353 20.2193 15.7629 20.0602 15.5217C19.901 15.2806 19.6921 15.0762 19.4475 14.9224C18.2731 14.1953 16.4675 13.8268 16.4675 13.8268C15.8595 13.7032 15.3208 13.2448 14.9672 13.1107L13.0585 14.3971L13.039 14.4383C12.9752 14.0928 12.758 13.8378 12.4993 13.8378H11.5007C11.2416 13.8378 11.0247 14.0933 10.961 14.4383L10.9414 14.3971L9.03275 13.1107C8.67861 13.2448 8.14047 13.7032 7.53194 13.8268C7.53194 13.8268 5.72634 14.1953 4.55252 14.9224C4.30791 15.0761 4.099 15.2803 3.93985 15.5214C3.78069 15.7625 3.67496 16.0348 3.62976 16.3201L3.41473 17.6314C3.26345 18.5554 3.18745 19.4901 3.1875 20.4263V21.1041C3.1875 21.4717 3.33353 21.8243 3.59347 22.0842C3.85341 22.3441 4.20596 22.4902 4.57357 22.4902H10.6865L11.1454 16.313C11.1612 16.1004 11.2568 15.9017 11.4131 15.7566C11.5693 15.6116 11.7746 15.5309 11.9878 15.5309H12.0115C12.2248 15.5308 12.4303 15.6113 12.5867 15.7564C12.7431 15.9015 12.8388 16.1003 12.8546 16.3131L13.3135 22.4902H19.427C19.7944 22.4902 20.1468 22.3442 20.4067 22.0844C20.6665 21.8245 20.8125 21.4721 20.8125 21.1047V20.4263C20.8125 19.4901 20.7365 18.5554 20.5853 17.6314Z" fill="#231823"/>
</svg>
