<svg width="48" height="48" viewBox="0 0 48 48" fill="none" xmlns="http://www.w3.org/2000/svg">
<path d="M27.5563 14.878C28.235 14.878 28.9214 15.0628 29.423 15.4238L33.119 18.8097C34.0468 19.4784 35.4897 20.6611 36.3273 21.4387L39.6839 24.5587L45.6023 17.6995L36.4041 8.89435L34.1899 11.0678C34.1899 11.0678 33.4497 10.9003 32.9347 10.6502L29.4657 8.96251C29.0438 8.75707 28.5244 8.65771 27.995 8.65771C27.2337 8.65771 26.4499 8.86267 25.9003 9.25099L20.5339 13.0152C19.6007 13.6742 19.3943 14.9644 20.0755 15.8832L20.3937 16.3128C20.8295 16.9008 21.5438 17.2224 22.258 17.2224C22.6593 17.2224 23.0601 17.1206 23.4119 16.9084L25.9579 15.2832C26.4071 15.0115 26.9788 14.878 27.5563 14.878Z" fill="#417A3B"/>
<path d="M21.33 33.458L20.9408 33.0884C20.5404 32.7063 20.0235 32.5167 19.5075 32.5167C18.9579 32.5167 18.4102 32.7312 18.0036 33.158L17.9974 33.1469C18.7856 32.3199 18.7539 30.9975 17.9273 30.2098L17.539 29.8397C17.1406 29.4596 16.6275 29.2714 16.1148 29.2714C15.5964 29.2714 15.0785 29.4634 14.6787 29.8421L15.4572 29.0261C16.2464 28.1996 16.2156 26.8767 15.3872 26.0885L14.9998 25.7184C14.6004 25.3378 14.0859 25.1492 13.5718 25.1492C13.0385 25.1492 12.5052 25.3517 12.1016 25.754C12.7505 24.924 12.6862 23.7168 11.9086 22.9752L11.5222 22.6066C11.1209 22.224 10.604 22.0349 10.088 22.0349C9.53836 22.0349 8.9902 22.2495 8.58364 22.6762L4.68124 26.7672C3.89212 27.5943 3.92332 28.9162 4.75228 29.7044L5.13916 30.0735C5.53708 30.4527 6.04876 30.6404 6.55996 30.6404C7.03084 30.6404 7.5022 30.4815 7.88524 30.1685L6.85708 31.2461C6.06892 32.0736 6.1006 33.3956 6.92668 34.1842L7.31644 34.5538C7.71724 34.9359 8.23372 35.1255 8.74924 35.1255C9.29884 35.1255 9.847 34.9109 10.2536 34.4842L11.0561 33.6423C10.3424 34.4722 10.3889 35.7327 11.1905 36.4968L11.5798 36.8669C11.9801 37.2485 12.4966 37.4381 13.0121 37.4381C13.5622 37.4381 14.1104 37.2231 14.5169 36.7964L15.8072 35.4624C15.018 36.2895 15.0488 37.6114 15.8768 38.4005L16.2651 38.7701C16.6654 39.1527 17.1824 39.3418 17.6979 39.3418C18.2475 39.3418 18.7956 39.1272 19.2027 38.7L21.4001 36.396C22.1883 35.569 22.1561 34.2466 21.33 33.458Z" fill="#417A3B"/>
<path d="M39.6243 26.5168L34.3755 21.6409C33.6637 21.0385 32.8544 20.3939 32.277 19.9777L32.2083 19.9283L32.1459 19.8712L28.5272 16.5563C28.2882 16.4084 27.9238 16.3182 27.5562 16.3182C27.2317 16.3182 26.9187 16.3888 26.7133 16.5088L24.1861 18.122L24.1707 18.1316L24.1554 18.1412C23.5909 18.482 22.9342 18.6625 22.2574 18.6625C21.0589 18.6625 19.9294 18.1048 19.2363 17.1712L18.9181 16.7416C18.3555 15.9827 18.128 15.0529 18.2773 14.1236C18.4261 13.1948 18.932 12.3841 19.7067 11.8369L21.8293 10.3475C20.8496 9.89772 19.2594 9.87852 18.237 10.3168C18.237 10.3168 17.1032 10.8145 16.7403 10.9681C15.896 11.3262 14.7152 11.3209 14.7152 11.3209L11.9427 8.73804L2.39648 18.2224L6.7064 22.5572L7.54112 21.6822C8.20016 20.9915 9.12848 20.5945 10.088 20.5945C10.9976 20.5945 11.8597 20.9387 12.5163 21.5646L12.9027 21.9332C13.4293 22.4353 13.7677 23.0622 13.9112 23.7251C14.6922 23.7995 15.4218 24.1312 15.9954 24.6774L16.3798 25.0451C17.0595 25.6921 17.4464 26.5662 17.469 27.508C17.4738 27.7038 17.4622 27.8977 17.4363 28.0873C17.8395 28.2515 18.2115 28.4905 18.5341 28.7977L18.9214 29.1673C19.4869 29.7064 19.833 30.3899 19.9578 31.1056C20.6989 31.1996 21.3882 31.5251 21.933 32.0444L22.3246 32.4164C23.4982 33.5363 23.7234 35.2796 22.9827 36.6419L24.0469 37.6321C24.8826 38.4107 26.2045 38.3622 26.983 37.5251L27.3469 37.1329C28.1086 36.3121 28.0702 35.0344 27.2811 34.2529L29.9739 36.7508C30.812 37.528 32.1334 37.4795 32.912 36.6409L33.2758 36.2502C34.0491 35.4179 34.0045 34.108 33.1798 33.328L33.872 33.9721C34.7091 34.7497 36.031 34.7008 36.8082 33.8632L37.1725 33.472C37.9501 32.6344 37.9016 31.312 37.0645 30.5344L36.4794 29.9915C37.3194 30.7259 38.6043 30.6692 39.3675 29.8465L39.7333 29.4544C40.5099 28.6168 40.4619 27.2948 39.6243 26.5168Z" fill="#417A3B"/>
</svg>
