<svg width="40" height="40" viewBox="0 0 40 40" fill="none" xmlns="http://www.w3.org/2000/svg">
<path d="M14.2977 13.5766C14.5001 13.779 14.8245 13.8635 15.0539 13.6345C15.1703 13.5181 15.2362 13.4093 15.2499 13.1715C15.2527 12.4764 15.5245 11.8237 16.0162 11.332C16.5108 10.8378 17.168 10.5653 17.867 10.5653C18.5604 10.5653 19.2138 10.834 19.7073 11.3215C20.1979 11.8181 20.4666 12.4715 20.4669 13.1649C20.4666 14.6043 19.2983 15.776 17.8603 15.782C17.6226 15.7957 17.5135 15.8616 17.3974 15.978C17.1684 16.2071 17.2532 16.5318 17.4556 16.7342L20.0618 19.3404L22.6684 16.7342C23.2159 16.1867 24.0475 16.1611 24.562 16.676C24.8391 16.9531 24.972 17.2617 24.993 17.6766L24.9934 17.6969C24.9934 18.1813 25.1821 18.6365 25.5244 18.9788C25.867 19.3211 26.3219 19.5098 26.8063 19.5098C27.2861 19.5098 27.7388 19.3236 28.0808 18.9858C28.4154 18.6474 28.6013 18.195 28.6013 17.7145C28.6013 16.7153 27.7879 15.9023 26.7884 15.9019L26.7673 15.9016C26.3524 15.8805 26.0441 15.7476 25.7671 15.4705C25.2522 14.956 25.2778 14.1241 25.8249 13.577L28.4519 10.9501L22.3037 4.80222C21.0316 3.52979 18.9686 3.52979 17.6966 4.80222L11.6097 10.889L14.2977 13.5766Z" fill="#417A3B"/>
<path d="M26.3933 14.1455C26.1913 14.3478 26.1065 14.6723 26.3355 14.9016C26.4519 15.0181 26.5606 15.084 26.7984 15.0977C28.2368 15.1037 29.4047 16.2751 29.4047 17.7144C29.4047 18.4078 29.1364 19.0612 28.6489 19.5547C28.1522 20.0454 27.4988 20.314 26.8054 20.314C25.3661 20.314 24.1943 19.1457 24.1883 17.7081C24.1747 17.47 24.1087 17.3613 23.9923 17.2448C23.7633 17.0158 23.4385 17.1007 23.2361 17.303L20.6299 19.9096L22.0987 21.3781C22.6462 21.9252 22.6715 22.7575 22.1566 23.2717C21.8799 23.5487 21.5709 23.6817 21.1563 23.7027L21.1356 23.7034C20.1357 23.7034 19.3228 24.5164 19.3228 25.5156C19.3228 25.9961 19.509 26.4489 19.8467 26.7905C20.1852 27.1251 20.6376 27.311 21.1181 27.3106C21.6025 27.3106 22.0573 27.1226 22.3997 26.78C22.742 26.4373 22.9307 25.9824 22.9307 25.4981L22.931 25.4774C22.9524 25.0625 23.085 24.7542 23.362 24.4771C23.8766 23.9622 24.7085 23.9875 25.2552 24.535L28.9592 28.2386L35.0457 22.1522C36.3181 20.8801 36.3181 18.8171 35.0457 17.545L29.0199 11.5186L26.3933 14.1455Z" fill="#417A3B"/>
<path d="M13.8101 25.591C14.0125 25.389 14.097 25.0642 13.868 24.8352C13.7519 24.7188 13.6428 24.6528 13.405 24.6391C11.9667 24.6328 10.7988 23.4614 10.7988 22.022C10.7988 21.3287 11.0678 20.6749 11.5549 20.1821C12.0516 19.6911 12.705 19.4225 13.3983 19.4225C14.0973 19.4225 14.7546 19.6946 15.2488 20.1892C15.7405 20.6805 16.0126 21.3339 16.0155 22.0287C16.0288 22.2669 16.0951 22.3756 16.2112 22.4917C16.4402 22.7207 16.7653 22.6358 16.9673 22.4334L19.4922 19.9086L16.8859 17.302C16.3385 16.7549 16.3129 15.923 16.8277 15.4084C17.1048 15.1314 17.4131 14.9984 17.8283 14.9774L17.8487 14.9771C18.8486 14.9771 19.6616 14.1637 19.6616 13.1645C19.6616 12.6844 19.4753 12.2316 19.1376 11.89C18.7995 11.5557 18.3467 11.3695 17.8662 11.3695C17.3822 11.3695 16.927 11.5582 16.5843 11.9005C16.242 12.2428 16.0537 12.6977 16.0537 13.182L16.053 13.2027C16.0319 13.6176 15.8994 13.9259 15.6219 14.2034C15.1074 14.7179 14.2755 14.6923 13.7284 14.1451L11.0408 11.4575L4.95432 17.5444C3.68189 18.8164 3.68189 20.8794 4.95432 22.1515L11.1018 28.299L13.8101 25.591Z" fill="#417A3B"/>
<path d="M24.6868 25.1035C24.4844 24.9011 24.1596 24.8162 23.9306 25.0456C23.8145 25.1617 23.7482 25.2708 23.7346 25.5082C23.7318 26.2034 23.46 26.8564 22.9682 27.3478C22.4737 27.8423 21.8168 28.1148 21.1178 28.1148C20.4241 28.1148 19.771 27.8461 19.2776 27.3586C18.7869 26.862 18.5179 26.209 18.5179 25.5149C18.5179 24.0755 19.6862 22.9041 21.1245 22.8981C21.3623 22.8848 21.471 22.8185 21.5871 22.7024C21.8165 22.4734 21.7312 22.1483 21.5292 21.9463L20.0604 20.4774L17.5355 23.0023C16.9884 23.5498 16.1561 23.5754 15.6416 23.0602C15.3645 22.7834 15.232 22.4748 15.2109 22.0599L15.2102 22.0392C15.2102 21.5549 15.0219 21.0996 14.6792 20.7573C14.3369 20.415 13.8817 20.2263 13.3977 20.2263C12.9175 20.2263 12.4648 20.4122 12.1232 20.7499C11.7889 21.0884 11.603 21.5412 11.603 22.0213C11.603 23.0209 12.416 23.8342 13.4156 23.8342L13.4363 23.8346C13.8512 23.856 14.1595 23.9885 14.4365 24.2656C14.951 24.7805 14.9258 25.612 14.3787 26.1592L11.6704 28.8675L17.6962 34.8932C18.9682 36.1653 21.0312 36.1653 22.3033 34.8932L28.3897 28.8068L24.6868 25.1035Z" fill="#417A3B"/>
</svg>
