<svg width="46" height="36" viewBox="0 0 46 36" fill="none" xmlns="http://www.w3.org/2000/svg">
<g opacity="0.3">
<path d="M21.579 25.7143C21.579 31.5665 17.5439 36 11.4035 36C5.26316 36 0 31.0345 0 22.1675C0 11.1724 8.24562 1.7734 18.9474 0V6.56157C12.807 7.80295 8.24562 12.2365 8.24562 17.3793C9.29825 16.6699 10.7018 16.1379 12.9825 16.1379C17.5439 16.1379 21.579 19.5074 21.579 25.7143Z" fill="#7FAE7A"/>
<path d="M45.579 25.7143C45.579 31.5665 41.5439 36 35.4035 36C29.2632 36 24 31.0345 24 22.1675C24 11.1724 32.2456 1.7734 42.9474 0V6.56157C36.807 7.80295 32.2456 12.2365 32.2456 17.3793C33.2982 16.6699 34.7018 16.1379 36.9825 16.1379C41.5439 16.1379 45.579 19.5074 45.579 25.7143Z" fill="#7FAE7A"/>
</g>
</svg>
