<svg width="38" height="38" viewBox="0 0 38 38" fill="none" xmlns="http://www.w3.org/2000/svg">
<g id="Group 2610948">
<circle id="Ellipse 1444" cx="19" cy="19" r="18" fill="white" stroke="#DDDDDD" stroke-width="2"/>
<g id="Group 2610947">
<path id="Vector 750" d="M26 13V25" stroke="#417A3B" stroke-width="1.5" stroke-linecap="round"/>
<path id="Arrow 1" d="M22 19.75C22.4142 19.75 22.75 19.4142 22.75 19C22.75 18.5858 22.4142 18.25 22 18.25L22 19.75ZM11.4697 18.4697C11.1768 18.7626 11.1768 19.2374 11.4697 19.5303L16.2426 24.3033C16.5355 24.5962 17.0104 24.5962 17.3033 24.3033C17.5962 24.0104 17.5962 23.5355 17.3033 23.2426L13.0607 19L17.3033 14.7574C17.5962 14.4645 17.5962 13.9896 17.3033 13.6967C17.0104 13.4038 16.5355 13.4038 16.2426 13.6967L11.4697 18.4697ZM22 18.25L12 18.25L12 19.75L22 19.75L22 18.25Z" fill="#417A3B"/>
</g>
</g>
</svg>
