<svg width="24" height="24" viewBox="0 0 24 24" fill="none" xmlns="http://www.w3.org/2000/svg">
<path d="M11.8142 11.296C9.82937 11.296 8.22266 9.66393 8.22266 7.648C8.22266 5.63197 9.82947 4 11.8142 4C13.7991 4 15.4058 5.63207 15.4058 7.648C15.4058 9.66393 13.7991 11.296 11.8142 11.296ZM11.8142 4.7872C10.2453 4.7872 8.97877 6.0736 8.97877 7.6672C8.97877 9.2608 10.2453 10.5472 11.8142 10.5472C13.3832 10.5472 14.6497 9.2608 14.6497 7.6672C14.6497 6.0736 13.3832 4.7872 11.8142 4.7872Z" fill="white" stroke="white" stroke-width="0.4"/>
<path fill-rule="evenodd" clip-rule="evenodd" d="M18.7391 15.4565C18.7391 15.2044 18.9435 15 19.1956 15H19.8043C20.0564 15 20.2609 15.2044 20.2609 15.4565V16.2308C20.2609 16.2951 20.3047 16.3617 20.3811 16.3937C20.3999 16.4016 20.4187 16.4097 20.4372 16.4181C20.5155 16.4534 20.5968 16.4379 20.6437 16.391L21.1663 15.8685C21.3446 15.6902 21.6336 15.6902 21.8119 15.8685L22.2423 16.2989C22.4206 16.4772 22.4206 16.7662 22.2423 16.9445L21.6433 17.5435C21.6169 17.5699 21.6056 17.6156 21.6242 17.6628C21.6439 17.7128 21.6866 17.7391 21.7242 17.7391H22.5435C22.7956 17.7391 23 17.9435 23 18.1956V18.8043C23 19.0564 22.7956 19.2609 22.5435 19.2609H21.7617C21.7023 19.2609 21.6391 19.3021 21.609 19.3747C21.5794 19.4461 21.5944 19.5184 21.6372 19.5612L22.2423 20.1663C22.4206 20.3446 22.4206 20.6336 22.2423 20.8119L21.8119 21.2423C21.6336 21.4206 21.3446 21.4206 21.1663 21.2423L20.5612 20.6372C20.5184 20.5944 20.4461 20.5793 20.3747 20.609C20.3021 20.6391 20.2609 20.7023 20.2609 20.7617V21.5435C20.2609 21.7956 20.0564 22 19.8043 22H19.1956C18.9435 22 18.7391 21.7956 18.7391 21.5435V20.7242C18.7391 20.6866 18.7128 20.6439 18.6628 20.6242C18.6156 20.6056 18.5699 20.6169 18.5434 20.6433L17.9445 21.2423C17.7662 21.4206 17.4772 21.4206 17.2989 21.2423L16.8685 20.8119C16.6902 20.6336 16.6902 20.3446 16.8685 20.1663L17.391 19.6437C17.4379 19.5968 17.4533 19.5154 17.4181 19.4372C17.4097 19.4187 17.4016 19.3999 17.3937 19.3811C17.3617 19.3047 17.2951 19.2609 17.2308 19.2609H16.4565C16.2044 19.2609 16 19.0564 16 18.8043V18.1956C16 17.9435 16.2044 17.7391 16.4565 17.7391H17.2383C17.2977 17.7391 17.3609 17.6979 17.391 17.6253C17.4206 17.5539 17.4055 17.4816 17.3628 17.4388L16.8685 16.9445C16.6902 16.7662 16.6902 16.4772 16.8685 16.2989L17.2989 15.8685C17.4772 15.6902 17.7662 15.6902 17.9445 15.8685L18.4388 16.3628C18.4816 16.4055 18.5539 16.4206 18.6253 16.391C18.6979 16.3608 18.7391 16.2977 18.7391 16.2383L18.7391 15.4565ZM19.1956 15.3043C19.1116 15.3043 19.0435 15.3725 19.0435 15.4565V16.2383C19.0435 16.4393 18.91 16.6024 18.742 16.6721C18.5728 16.7424 18.3651 16.7194 18.2236 16.578L17.7293 16.0837C17.6699 16.0242 17.5735 16.0242 17.5141 16.0837L17.0837 16.5141C17.0243 16.5735 17.0243 16.6699 17.0837 16.7293L17.578 17.2236C17.7194 17.3651 17.7424 17.5728 17.6721 17.742C17.6024 17.91 17.4393 18.0435 17.2383 18.0435H16.4565C16.3725 18.0435 16.3044 18.1116 16.3044 18.1956V18.8043C16.3044 18.8884 16.3725 18.9565 16.4565 18.9565H17.2309C17.4359 18.9565 17.6025 19.0916 17.6745 19.2635C17.6813 19.2799 17.6883 19.296 17.6956 19.3121C17.7746 19.4874 17.756 19.7092 17.6063 19.8589L17.0837 20.3815C17.0243 20.4409 17.0243 20.5372 17.0837 20.5967L17.5141 21.0271C17.5735 21.0865 17.6699 21.0865 17.7293 21.0271L18.3283 20.4281C18.4497 20.3068 18.6272 20.283 18.7745 20.341C18.9255 20.4005 19.0435 20.5459 19.0435 20.7242V21.5435C19.0435 21.6275 19.1116 21.6956 19.1957 21.6956H19.8044C19.8884 21.6956 19.9565 21.6275 19.9565 21.5435V20.7617C19.9565 20.5607 20.09 20.3976 20.258 20.3279C20.4272 20.2576 20.6349 20.2806 20.7764 20.422L21.3814 21.0271C21.4409 21.0866 21.5372 21.0866 21.5967 21.0271L22.0271 20.5967C22.0865 20.5372 22.0865 20.4409 22.0271 20.3815L21.422 19.7764C21.2806 19.6349 21.2576 19.4272 21.3278 19.258C21.3976 19.09 21.5607 18.9565 21.7617 18.9565H22.5435C22.6275 18.9565 22.6956 18.8884 22.6956 18.8044V18.1957C22.6956 18.1116 22.6275 18.0435 22.5435 18.0435H21.7242C21.5459 18.0435 21.4005 17.9255 21.341 17.7745C21.2829 17.6272 21.3068 17.4497 21.4281 17.3283L22.0271 16.7293C22.0865 16.6699 22.0865 16.5735 22.0271 16.5141L21.5967 16.0837C21.5372 16.0243 21.4409 16.0243 21.3814 16.0837L20.8589 16.6063C20.7092 16.756 20.4874 16.7746 20.3121 16.6956C20.296 16.6883 20.2799 16.6813 20.2635 16.6745C20.0916 16.6025 19.9565 16.4359 19.9565 16.2309V15.4565C19.9565 15.3725 19.8884 15.3044 19.8043 15.3044L19.1956 15.3043ZM19.5 17.587C18.9957 17.587 18.587 17.9957 18.587 18.5C18.587 19.0043 18.9957 19.4131 19.5 19.4131C20.0043 19.4131 20.413 19.0043 20.413 18.5C20.413 17.9957 20.0043 17.587 19.5 17.587ZM18.2826 18.5C18.2826 17.8277 18.8276 17.2826 19.5 17.2826C20.1723 17.2826 20.7174 17.8277 20.7174 18.5C20.7174 19.1724 20.1723 19.7174 19.5 19.7174C18.8276 19.7174 18.2826 19.1724 18.2826 18.5Z" fill="white" stroke="white" stroke-width="0.3"/>
<path fill-rule="evenodd" clip-rule="evenodd" d="M16.0902 14.9617C16.2742 14.787 16.4771 14.6321 16.6955 14.5004C15.5837 13.1655 13.924 12.3145 12.0782 12.3145H11.5489C8.22206 12.3145 5.5 15.0793 5.5 18.4585V19.0404C5.5 19.2492 5.66925 19.4185 5.87803 19.4185C6.0868 19.4185 6.25605 19.2492 6.25605 19.0404V18.4585C6.25605 15.5016 8.63789 13.0825 11.5489 13.0825H12.0782C13.6778 13.0825 15.1176 13.8129 16.0902 14.9617Z" fill="white"/>
<path d="M16.0902 14.9617L16.0139 15.0263L16.0823 15.1071L16.1591 15.0342L16.0902 14.9617ZM16.6955 14.5004L16.7472 14.586L16.8469 14.5259L16.7724 14.4364L16.6955 14.5004ZM16.1591 15.0342C16.3378 14.8645 16.5349 14.714 16.7472 14.586L16.6439 14.4148C16.4192 14.5502 16.2105 14.7095 16.0214 14.8892L16.1591 15.0342ZM12.0782 12.4145C13.8925 12.4145 15.5246 13.2509 16.6187 14.5644L16.7724 14.4364C15.6427 13.0801 13.9555 12.2145 12.0782 12.2145V12.4145ZM11.5489 12.4145H12.0782V12.2145H11.5489V12.4145ZM5.6 18.4585C5.6 15.133 8.27875 12.4145 11.5489 12.4145V12.2145C8.16537 12.2145 5.4 15.0255 5.4 18.4585H5.6ZM5.6 19.0404V18.4585H5.4V19.0404H5.6ZM5.87803 19.3185C5.72448 19.3185 5.6 19.194 5.6 19.0404H5.4C5.4 19.3044 5.61402 19.5185 5.87803 19.5185V19.3185ZM6.15605 19.0404C6.15605 19.194 6.03157 19.3185 5.87803 19.3185V19.5185C6.14203 19.5185 6.35605 19.3044 6.35605 19.0404H6.15605ZM6.15605 18.4585V19.0404H6.35605V18.4585H6.15605ZM11.5489 12.9825C8.5812 12.9825 6.15605 15.4479 6.15605 18.4585H6.35605C6.35605 15.5554 8.69458 13.1825 11.5489 13.1825V12.9825ZM12.0782 12.9825H11.5489V13.1825H12.0782V12.9825ZM16.1665 14.8971C15.1761 13.7273 13.709 12.9825 12.0782 12.9825V13.1825C13.6466 13.1825 15.0591 13.8986 16.0139 15.0263L16.1665 14.8971Z" fill="white"/>
</svg>
