<svg width="80" height="80" viewBox="0 0 80 80" fill="none" xmlns="http://www.w3.org/2000/svg">
<circle cx="40" cy="40" r="38" stroke="#417A3B" stroke-width="4"/>
<g clip-path="url(#clip0_170_5846)">
<path d="M40.0004 49.7622C28.2931 49.7622 24.3906 40.0061 24.3906 40.0061C24.3906 40.0061 28.2931 30.25 40.0004 30.25C51.7077 30.25 55.6101 40.0061 55.6101 40.0061C55.6101 40.0061 51.7077 49.7622 40.0004 49.7622ZM40.0004 34.1524C36.7672 34.1524 34.1467 36.7729 34.1467 40.0061C34.1467 43.2393 36.7672 45.8598 40.0004 45.8598C43.2336 45.8598 45.854 43.2393 45.854 40.0061C45.854 36.7729 43.2336 34.1524 40.0004 34.1524ZM40.0004 43.9085C37.8462 43.9085 36.0979 42.1602 36.0979 40.0061H40.0004L37.2414 37.2471C37.603 36.8838 38.033 36.5957 38.5065 36.3995C38.9801 36.2032 39.4878 36.1027 40.0004 36.1037C42.1545 36.1037 43.9028 37.852 43.9028 40.0061C43.9028 42.1602 42.1545 43.9085 40.0004 43.9085Z" fill="#417A3B"/>
</g>
<defs>
<clipPath id="clip0_170_5846">
<rect width="31.2195" height="31.2195" fill="white" transform="translate(24.3906 24.3906)"/>
</clipPath>
</defs>
</svg>
