<svg width="312" height="312" viewBox="0 0 312 312" fill="none" xmlns="http://www.w3.org/2000/svg">
<g opacity="0.2">
<path fill-rule="evenodd" clip-rule="evenodd" d="M174.925 92.3874C174.865 92.2902 174.809 92.1894 174.757 92.0923C174.081 90.7511 173.3 88.7224 172.269 86.4061C169.739 80.7087 165.734 73.4012 158.427 69.7324C153.518 67.2667 147.11 66.4037 138.615 68.8246C134.677 69.9529 131.86 72.7323 129.925 76.2666C127.168 81.2877 126.211 87.8332 126.14 92.8357C126.114 94.8419 126.787 98.7797 127.018 101.507C87.9811 58.5544 10.7359 85.984 15.5217 147.303C15.5778 148.031 16.2165 148.573 16.9413 148.521C17.6661 148.461 18.2116 147.826 18.1556 147.097C13.5193 87.6465 89.3522 61.517 126.331 104.72C127.007 105.508 127.646 105.669 128.035 105.661C128.602 105.646 129.114 105.389 129.443 104.724C129.686 104.227 129.794 103.072 129.675 101.585C129.465 98.9178 128.756 94.898 128.782 92.8693C128.845 88.2479 129.69 82.1807 132.238 77.5406C133.833 74.6303 136.104 72.2915 139.34 71.365C147.013 69.1757 152.808 69.8668 157.246 72.0935C163.956 75.4634 167.531 82.2517 169.859 87.4783C171.096 90.2691 171.996 92.6489 172.777 93.9752C173.3 94.8643 173.864 95.3762 174.349 95.5779C174.6 95.6788 175.156 95.8171 175.777 95.3613C176.378 94.9167 178.455 92.2791 178.848 91.8793C189.615 80.9852 204.469 81.6651 216.716 89.817C237.237 103.479 239.161 121.879 230.038 133.521C222.062 143.701 205.881 148.539 186.79 140.671C186.215 140.365 185.636 140.055 185.061 139.741C183.114 138.684 177.996 136.031 177.245 135.743C176.199 135.34 175.631 136.139 175.553 136.263C175.369 136.565 175.168 137.066 175.579 137.686C175.616 137.746 175.851 138.026 176.457 138.392C179.587 140.275 182.67 141.826 185.681 143.073C188.699 144.687 191.726 146.272 194.67 148.027C206.744 155.238 218.598 163.266 227.483 174.325C237.622 186.938 246.181 207.482 246.129 225.235C246.103 233.929 244.011 241.946 238.911 247.957C233.819 253.969 225.738 257.925 213.858 258.627C213.129 258.668 212.576 259.296 212.617 260.025C212.658 260.753 213.286 261.306 214.014 261.265C226.795 260.506 235.444 256.132 240.925 249.665C246.409 243.202 248.74 234.594 248.767 225.243C248.823 206.91 240.009 185.693 229.541 172.67C220.762 161.746 209.18 153.691 197.277 146.511C212.621 149.219 225.23 143.94 232.115 135.149C242.008 122.529 240.424 102.43 218.176 87.6165C204.85 78.7436 188.692 78.1645 176.969 90.0225C176.741 90.2578 175.661 91.5169 174.925 92.3874Z" fill="#417A3B"/>
</g>
</svg>
