<svg width="56" height="60" viewBox="0 0 56 60" fill="none" xmlns="http://www.w3.org/2000/svg">
<g opacity="0.2">
<path fill-rule="evenodd" clip-rule="evenodd" d="M33.3254 17.6005C33.314 17.582 33.3033 17.5628 33.2934 17.5443C33.1646 17.2888 33.0158 16.9023 32.8194 16.4611C32.3375 15.3757 31.5745 13.9835 30.1824 13.2846C29.2472 12.8149 28.0265 12.6504 26.4081 13.1116C25.6579 13.3266 25.1212 13.8561 24.7526 14.5294C24.2273 15.486 24.0451 16.7329 24.0316 17.686C24.0266 18.0682 24.1547 18.8183 24.1988 19.3379C16.7619 11.1551 2.04608 16.3807 2.95781 28.0624C2.96849 28.2011 3.09018 28.3043 3.22826 28.2944C3.36633 28.283 3.47026 28.162 3.45959 28.0232C2.57632 16.6974 17.0231 11.7195 24.0679 19.95C24.1967 20.1002 24.3184 20.1308 24.3924 20.1293C24.5006 20.1265 24.5981 20.0774 24.6608 19.9507C24.707 19.856 24.7277 19.6361 24.7049 19.3528C24.665 18.8447 24.5298 18.0788 24.5348 17.6924C24.5469 16.8119 24.7077 15.6561 25.1931 14.7721C25.497 14.2177 25.9298 13.7721 26.5461 13.5956C28.008 13.1785 29.1119 13.3102 29.9575 13.7344C31.2357 14.3764 31.9169 15.6696 32.3603 16.6653C32.5959 17.197 32.7674 17.6504 32.9162 17.903C33.0158 18.0724 33.1233 18.1699 33.2158 18.2084C33.2635 18.2276 33.3695 18.2539 33.4877 18.1671C33.6023 18.0824 33.998 17.5799 34.0727 17.5038C36.1239 15.4283 38.9538 15.5579 41.2869 17.1109C45.1964 19.7137 45.563 23.219 43.8249 25.4368C42.3054 27.3762 39.2228 28.2979 35.5859 26.799C35.4763 26.7406 35.3659 26.6816 35.2563 26.6218C34.8855 26.4204 33.9105 25.915 33.7674 25.8602C33.5681 25.7834 33.4599 25.9357 33.445 25.9592C33.4101 26.0168 33.3717 26.1122 33.45 26.2303C33.4571 26.2417 33.5019 26.2951 33.6172 26.3649C34.2137 26.7236 34.8008 27.0189 35.3745 27.2567C35.9496 27.5641 36.5261 27.8659 37.0869 28.2004C39.3873 29.5741 41.6456 31.1036 43.3381 33.2103C45.2697 35.6131 46.9003 39.527 46.8904 42.9091C46.8854 44.5653 46.4868 46.0927 45.5153 47.2379C44.5452 48.3831 43.0057 49.1368 40.7424 49.2706C40.6036 49.2785 40.4983 49.398 40.5061 49.5368C40.5139 49.6756 40.6335 49.7809 40.7723 49.7731C43.2071 49.6286 44.8548 48.7952 45.8989 47.5632C46.9438 46.3319 47.3879 44.692 47.3929 42.9106C47.4035 39.4181 45.7246 35.3761 43.7303 32.895C42.0577 30.8139 39.8513 29.2794 37.5837 27.9115C40.5068 28.4275 42.9089 27.4218 44.2207 25.7471C46.1053 23.3428 45.8035 19.5137 41.5652 16.6917C39.0264 15.0013 35.9482 14.891 33.7147 17.15C33.6713 17.1949 33.4656 17.4347 33.3254 17.6005Z" fill="#417A3B"/>
</g>
</svg>
