<svg width="31" height="33" viewBox="0 0 31 33" fill="none" xmlns="http://www.w3.org/2000/svg">
<path fill-rule="evenodd" clip-rule="evenodd" d="M12.2527 6.60628C12.1616 6.07325 12.0929 5.54627 12.0485 5.01923C11.9817 4.22868 12.023 3.43207 11.9993 2.64152C11.989 2.30613 11.9482 1.43174 11.9646 1.30597C12.1136 0.209967 13.0113 0.0422529 13.2739 0.0123076C13.4009 -0.00565963 14.7053 -0.149333 14.9867 1.27607C15.3319 3.01888 15.4426 4.77366 15.3204 6.49252C15.6055 7.95385 16.093 9.40916 16.7366 10.7268C19.298 15.9672 24.1787 16.4763 29.4668 16.4284C30.28 16.4164 30.9553 17.0452 30.9979 17.8418C31.0404 18.6443 30.435 19.339 29.6254 19.4109C26.6696 19.6924 21.4253 22.0282 19.6122 24.4597C19.2329 24.9688 19.0123 26.1966 18.7205 27.4004C18.3133 29.0713 17.8289 30.7243 17.2861 31.419C17.2046 31.5268 16.2145 32.6288 15.9191 32.7905C15.2092 33.1738 14.6409 32.9522 14.3181 32.7486C13.9954 32.5449 13.6301 32.1437 13.4842 31.4789C13.3316 30.7842 13.4605 29.3587 13.4368 29.0533C13.3505 27.9453 13.1256 25.7713 12.6667 23.9027C12.4193 22.8965 12.1555 21.9682 11.7191 21.5071C10.1035 19.8002 7.52028 20.0518 5.3449 20.3332C5.09508 20.3632 4.84527 20.3991 4.59607 20.4291C3.71048 20.6866 2.77016 20.8782 1.77638 20.992C0.275671 21.1657 0.0289136 19.8062 0.0155416 19.7164C-0.0124181 19.5187 -0.116366 18.5006 1.01478 18.0933C1.13817 18.0514 2.04869 17.8538 2.3994 17.7759C2.88809 17.6681 3.38224 17.5843 3.87822 17.5064C9.00152 15.9373 11.7841 11.5293 12.2527 6.60628ZM14.0112 12.0504C15.9452 15.9912 18.8804 17.8957 22.3595 18.7581H22.359C20.1866 19.8781 18.2106 21.2796 17.1633 22.687C16.7658 23.22 16.4011 24.292 16.0723 25.4958C15.8942 24.3759 15.6535 23.184 15.3356 22.1659C14.974 21.004 14.4871 20.0398 13.9437 19.4649C12.8946 18.3569 11.5781 17.74 10.1624 17.4346C11.857 15.9553 13.142 14.1106 14.0112 12.0504Z" fill="#7FAE7A"/>
</svg>
